<?xml version="1.0" standalone="no"?>
<!DOCTYPE svg PUBLIC "-//W3C//DTD SVG 1.1//EN" "http://www.w3.org/Graphics/SVG/1.1/DTD/svg11.dtd" >
<svg xmlns="http://www.w3.org/2000/svg" xmlns:xlink="http://www.w3.org/1999/xlink" version="1.1">
<metadata>
Created by FontForge 20161116 at Thu Apr 24 05:32:56 2014
 By Jimmy Wärting
Copyright (c) , 2013. All rights reserved.
</metadata>
<defs>
<font id="Radiance" horiz-adv-x="1091" >
  <font-face 
    font-family="Radiance"
    font-weight="400"
    font-stretch="normal"
    units-per-em="2048"
    panose-1="2 0 5 3 4 0 0 2 0 4"
    ascent="1532"
    descent="-516"
    x-height="944"
    cap-height="1376"
    bbox="-356 -627 2253 2195"
    underline-thickness="0"
    underline-position="0"
    unicode-range="U+000D-FB02"
  />
<missing-glyph horiz-adv-x="450" 
 />
    <glyph glyph-name=".notdef" horiz-adv-x="450" 
 />
    <glyph glyph-name="glyph1" horiz-adv-x="0" 
 />
    <glyph glyph-name="glyph1" horiz-adv-x="0" 
 />
    <glyph glyph-name="glyph2" horiz-adv-x="681" 
 />
    <glyph glyph-name="uni000D" unicode="&#xd;" horiz-adv-x="450" 
 />
    <glyph glyph-name="space" unicode=" " horiz-adv-x="450" 
 />
    <glyph glyph-name="exclam" unicode="!" horiz-adv-x="598" 
d="M426 1358l-2 -213q0 -84 -7 -387t-11 -373h-119q-4 70 -11.5 373t-7.5 387l-2 213h160zM242 85q0 42 29.5 72.5t70.5 30.5t71.5 -30.5t30.5 -72.5t-30.5 -71.5t-71.5 -29.5t-70.5 29.5t-29.5 71.5z" />
    <glyph glyph-name="quotedbl" unicode="&#x22;" horiz-adv-x="698" 
d="M586 1460q-23 -462 -23 -481h-112l-25 481h160zM274 1460q-20 -419 -22 -481h-111l-24 481h157z" />
    <glyph glyph-name="numbersign" unicode="#" horiz-adv-x="1230" 
d="M82 401v119h242l63 330h-227v117h250l69 372h131l-69 -372h264l69 372h132l-72 -372h217v-117h-240l-63 -330h229v-119h-252l-73 -383h-129l69 383h-264l-70 -383h-131l74 383h-219zM717 520l65 330h-266l-65 -330h266z" />
    <glyph glyph-name="dollar" unicode="$" horiz-adv-x="1073" 
d="M467 -117v154q-156 2 -293 59l29 158q104 -96 291 -96q111 0 174 56t63 157q0 133 -209 247q-68 37 -97.5 53.5t-83.5 56.5t-100 99t-46 174t76.5 202t211.5 116v147h115v-139q137 -10 233 -43v-156q-88 80 -260 80q-98 0 -159.5 -52t-61.5 -154t83 -152t115 -70t82 -49
t67.5 -41t58.5 -40.5t58 -51.5t50 -67.5t33 -139.5q0 -133 -85 -227t-230 -119v-162h-115z" />
    <glyph glyph-name="percent" unicode="%" horiz-adv-x="1615" 
d="M407.5 1380q133.5 0 221.5 -94t88 -243.5t-89 -246t-221 -96.5t-220.5 95t-88.5 243t88 245t221.5 97zM1209 666q130 0 219.5 -94.5t89.5 -242.5t-89.5 -244.5t-220.5 -96.5t-220 94t-89 244t90 245t220 95zM1352 1370l-955 -1370h-133l950 1370h138zM407 805
q81 0 132 67.5t51 168t-52.5 166t-132.5 65.5t-130 -63t-50 -169t50.5 -170.5t131.5 -64.5zM1208 557q-82 0 -132 -64.5t-50 -167.5t49 -168t132 -65t133.5 65t50.5 169t-50.5 167.5t-132.5 63.5z" />
    <glyph glyph-name="ampersand" unicode="&#x26;" horiz-adv-x="1462" 
d="M528 -18q-186 0 -301.5 111.5t-115.5 279.5q0 121 75.5 217t225.5 180q-84 84 -122 147.5t-38 151.5q0 119 93 201t231 82t227.5 -80t89.5 -186t-61.5 -180.5t-188.5 -153.5q154 -143 348 -355q181 205 244 330h170q-125 -193 -320 -424q168 -174 279 -176l18 -135
q-119 0 -207 45t-198 156q-217 -211 -449 -211zM551 113q158 0 330 176q-164 186 -385 395q-221 -129 -222 -301q0 -117 80 -193.5t197 -76.5zM406 1071q0 -100 145 -233q195 106 194 233q0 68 -47 116t-122.5 48t-122.5 -46t-47 -118z" />
    <glyph glyph-name="quotesingle" unicode="'" horiz-adv-x="391" 
d="M252 979h-111q-10 289 -24 481h157q-8 -84 -22 -481z" />
    <glyph glyph-name="parenleft" unicode="(" horiz-adv-x="632" 
d="M119 547q0 645 332 1038q23 -14 61.5 -45t52.5 -41q-150 -211 -209 -434t-59 -514t56 -513t210 -439l-112 -84q-178 207 -255 458.5t-77 573.5z" />
    <glyph glyph-name="parenright" unicode=")" horiz-adv-x="632" 
d="M354 550q0 292 -59 515t-209 434l115 86q332 -393 331 -1038q0 -322 -76.5 -573.5t-254.5 -458.5l-113 84q156 219 211 439t55 512z" />
    <glyph glyph-name="asterisk" unicode="*" horiz-adv-x="940" 
d="M102 1044v121q207 -16 279 -18l-72 108q-29 45 -90 125l103 64q8 -20 69 -144l60 -114q121 246 124 258l105 -64q-98 -135 -164 -233q233 12 281 18v-123q-174 16 -277 21q68 -106 164 -234l-106 -57q-20 43 -65.5 133t-59.5 123q-52 -95 -89.5 -174.5t-39.5 -83.5
l-109 64q88 113 164 229q-84 -3 -277 -19z" />
    <glyph glyph-name="plus" unicode="+" horiz-adv-x="1075" 
d="M465 451h-373v129h373v397h145v-397h373v-129h-373v-402h-145v402z" />
    <glyph glyph-name="comma" unicode="," horiz-adv-x="452" 
d="M176 61q0 78 -10 132q18 4 162 32q14 -51 14 -125q0 -215 -170 -395l-88 45q92 154 92 311z" />
    <glyph glyph-name="hyphen" unicode="-" horiz-adv-x="686" 
d="M92 561h502v-137h-502v137z" />
    <glyph glyph-name="period" unicode="." horiz-adv-x="450" 
d="M137 90q0 43 33 76t75 33t72.5 -31t30.5 -74t-31.5 -74.5t-74.5 -32.5t-74 29.5t-31 73.5z" />
    <glyph glyph-name="slash" unicode="/" horiz-adv-x="667" 
d="M496 1432h147q-272 -881 -467 -1504h-149z" />
    <glyph glyph-name="zero" unicode="0" horiz-adv-x="1101" 
d="M550 1376q210 0 332 -190.5t122 -508t-122 -506.5t-333 -189t-331 188t-120 510t121 509t331 187zM268 677q0 -263 73 -411.5t208 -148.5t210 150.5t75 410.5t-75 409.5t-210 149.5t-208 -148.5t-73 -411.5z" />
    <glyph glyph-name="one" unicode="1" horiz-adv-x="960" 
d="M651 1376v-1165q0 -100 4 -211h-168q2 82 2 213v983q-211 -92 -290 -135l-29 131q188 82 389 184h92z" />
    <glyph glyph-name="two" unicode="2" 
d="M106 0q0 152 174.5 315.5t348.5 330t174 335.5q0 127 -82 190.5t-191 63.5q-221 0 -378 -170v174q125 141 383 141q113 0 193.5 -36.5t125.5 -78.5t74.5 -114.5t29.5 -182.5t-101 -259.5t-222 -259t-222.5 -204.5t-101.5 -126h477q68 0 168 20l31 8l-59 -147h-822z" />
    <glyph glyph-name="three" unicode="3" horiz-adv-x="1079" 
d="M707 1002q0 108 -67 171.5t-179 63.5q-160 0 -285 -94v157q152 74 316 74t272 -95t108 -255q0 -111 -65.5 -192.5t-181.5 -122.5q129 -31 207.5 -120t78.5 -210q0 -176 -127 -286.5t-340 -110.5q-150 0 -268 43v151q102 -59 248 -59t231.5 71.5t85.5 192.5t-90 186.5
t-233 65.5q-63 0 -99 -2v131h35l52 -2q141 0 221 67t80 175z" />
    <glyph glyph-name="four" unicode="4" horiz-adv-x="1103" 
d="M666 395h-603v90q63 86 182.5 242t155.5 205l338 446h88v-858q109 0 220 4v-131q-49 2 -220 2v-225q0 -78 11 -170h-181q8 81 9 166v229zM670 1106l-213 -295q-61 -87 -213 -291h422z" />
    <glyph glyph-name="five" unicode="5" horiz-adv-x="1054" 
d="M418 -23q-152 0 -279 60v156q115 -78 261 -78t242.5 80.5t96.5 210.5t-88 209t-266 79q-129 0 -199 -28l23 192q45 381 51 506q135 -4 219 -4h205q82 0 197 4v-145q-123 4 -213 4h-273q-18 -147 -47 -414q43 12 103 12q213 0 337.5 -109.5t124.5 -296.5t-136 -312.5
t-359 -125.5z" />
    <glyph glyph-name="six" unicode="6" horiz-adv-x="1087" 
d="M567 858q176 0 301 -126t125 -309t-131 -310t-324 -127q-194 0 -324 126t-130 320q0 442 369 778q41 36 176 162l250 -2q-190 -111 -370.5 -288t-244.5 -355q127 131 303 131zM242 427q0 -126 86 -218t219 -92t211 90t78 213t-88 216t-210 93t-209 -88t-87 -214z" />
    <glyph glyph-name="seven" unicode="7" horiz-adv-x="1019" 
d="M268 1219q-82 0 -159 -5q-2 12 -4.5 37t-4.5 37l-12 74q57 -2 225 -2h625l-610 -1360h-183q12 16 56 98l57 109l457 1012h-447z" />
    <glyph glyph-name="eight" unicode="8" horiz-adv-x="1101" 
d="M145 1020q0 154 115 254t287 100t284.5 -101.5t112.5 -244.5q0 -104 -60.5 -186t-164.5 -129q127 -47 197.5 -136.5t70.5 -207.5q0 -168 -124.5 -276.5t-320.5 -108.5t-316 104.5t-120 273.5q0 117 73 209.5t190 137.5q-104 47 -164 128t-60 183zM274 370
q0 -108 77 -180.5t195 -72.5t196.5 71.5t78.5 181.5t-84 180.5t-215 92.5q-104 -16 -176 -90.5t-72 -182.5zM311 1020q0 -96 70 -160.5t188 -85.5q94 18 151.5 85t57.5 160t-65.5 156.5t-168 63.5t-168 -61.5t-65.5 -157.5z" />
    <glyph glyph-name="nine" unicode="9" horiz-adv-x="1081" 
d="M506 512q-176 0 -303 127q-123 127 -123 309t131 310t325 126q194 0 323 -126q130 -126 130 -320q0 -442 -368 -778q-31 -27 -88.5 -81t-88.5 -81l-249 2q190 111 370 288t244 355q-127 -131 -303 -131zM831 943q0 126 -86 218t-219 92t-210.5 -90t-77.5 -213t88 -216
t210 -93t208.5 88t86.5 214z" />
    <glyph glyph-name="colon" unicode=":" horiz-adv-x="452" 
d="M125 83q0 44 29.5 74.5t72.5 30.5t74 -30.5t31 -74.5t-31 -73.5t-74 -29.5t-72.5 29.5t-29.5 73.5zM125 774q0 43 29.5 75t72.5 32t74 -32t31 -75t-31 -72.5t-74 -29.5t-72.5 29.5t-29.5 72.5z" />
    <glyph glyph-name="semicolon" unicode=";" horiz-adv-x="473" 
d="M176 61q0 78 -10 132q18 4 162 32q14 -51 14 -125q0 -215 -170 -395l-88 45q92 154 92 311zM125 774q0 43 29.5 75t72.5 32t75 -32t32 -75t-32 -72.5t-75 -29.5t-72.5 29.5t-29.5 72.5z" />
    <glyph glyph-name="less" unicode="&#x3c;" horiz-adv-x="1120" 
d="M969 47q-313 162 -860 432v88q287 143 395 197l144 72l321 161v-141q-57 -29 -169 -82t-169 -80l-352 -170l352 -172l338 -159v-146z" />
    <glyph glyph-name="equal" unicode="=" horiz-adv-x="1075" 
d="M92 408h891v-132h-891v132zM92 754h891v-127h-891v127z" />
    <glyph glyph-name="greater" unicode="&#x3e;" horiz-adv-x="1120" 
d="M168 1001q405 -204 840 -430v-90q-274 -139 -422 -215l-418 -215v146q114 51 262 127q285 139 412 200l-674 334v143z" />
    <glyph glyph-name="question" unicode="?" horiz-adv-x="937" 
d="M469 373h-141q0 162 30.5 240.5t139.5 185.5l65 63q63 61 86 94t23 85t-27 95.5t-82 70t-102 26.5q-164 0 -279 -152v172q104 119 279 119q111 0 196.5 -47t122.5 -115t37 -160t-37 -147t-114 -121l-58 -49q-90 -78 -114.5 -143t-24.5 -217zM301 90q0 43 33 76t76 33
t73.5 -31t30.5 -74t-31.5 -74.5t-75.5 -32.5t-75 29.5t-31 73.5z" />
    <glyph glyph-name="at" unicode="@" horiz-adv-x="1638" 
d="M1202 160q100 0 167 97t67 257q0 254 -164 412.5t-433 158.5t-453.5 -193t-184.5 -478t172 -455t432 -170q188 0 287 55q2 -10 4 -25.5t4 -25.5l6 -57q-39 -14 -135.5 -28.5t-165.5 -14.5q-301 0 -513 202.5t-212 523.5t221 544t536.5 223t517 -183.5t201.5 -478.5
q0 -211 -104 -341t-266 -130q-180 0 -187 185q-45 -80 -119.5 -129.5t-158.5 -49.5q-117 0 -196 90.5t-79 252.5t105.5 284.5t277.5 122.5q115 0 170 -98q12 74 13 92l155 -29q-2 -8 -10 -79.5t-14 -109.5t-19.5 -136.5t-21.5 -149.5q0 -139 100 -139zM834 717
q-96 0 -173 -92.5t-77 -210.5t46 -179t128 -61q135 0 219 113l14 379q-61 51 -157 51z" />
    <glyph glyph-name="A" unicode="A" horiz-adv-x="1277" 
d="M1260 0h-193q-8 25 -168 418h-541q-147 -373 -161 -418h-179q63 135 142 334l430 1057h84l461 -1119q43 -102 125 -272zM848 549l-219 577l-221 -577h440z" />
    <glyph glyph-name="B" unicode="B" horiz-adv-x="1083" 
d="M512 0h-352q6 143 6 365v632q0 195 -4 379h319q186 0 294 -94t108 -242q0 -96 -52.5 -172.5t-136.5 -113.5q129 -35 208 -131.5t79 -223.5q0 -179 -126 -289t-343 -110zM815 397q0 123 -81 197t-212 74h-192v-535h172q147 0 230 70.5t83 193.5zM330 793h155
q106 0 171 62.5t65 165.5t-68.5 163.5t-187.5 60.5h-135v-452z" />
    <glyph glyph-name="C" unicode="C" horiz-adv-x="1263" 
d="M819 117q201 0 350 96v-164q-168 -70 -366 -69q-305 0 -504 197.5t-199 498.5t203 510t514 209q172 0 350 -66v-168q-143 92 -342 92q-244 0 -399.5 -162.5t-155.5 -405.5t154.5 -405.5t394.5 -162.5z" />
    <glyph glyph-name="D" unicode="D" horiz-adv-x="1349" 
d="M526 0h-364q4 205 4 383v676q0 154 -4 317h370q309 0 511 -190.5t202 -494.5t-204 -497.5t-515 -193.5zM328 135h192q252 0 404.5 156.5t152.5 400.5t-156.5 395.5t-402.5 151.5h-190v-1104z" />
    <glyph glyph-name="E" unicode="E" horiz-adv-x="962" 
d="M168 1040q0 143 -4 336h311q254 0 361 4l-25 -145q-101 4 -281 4t-200 -2v-451h143q233 0 322 2v-141q-176 4 -322 4h-143v-514h198q240 0 322 2v-141q-80 2 -315 2h-371v37l4 297v706z" />
    <glyph glyph-name="F" unicode="F" horiz-adv-x="927" 
d="M168 360v654q0 154 -4 362h342q233 0 332 4l-25 -145q-74 4 -297 4h-186v-473h184q180 0 264 4v-143q-143 4 -264 4h-184v-279q0 -231 2 -352h-168q4 205 4 360z" />
    <glyph glyph-name="G" unicode="G" horiz-adv-x="1386" 
d="M817 -23q-313 0 -515 192.5t-202 502.5t200 516.5t531 206.5q190 0 365 -68v-166q-145 92 -356 92q-254 0 -412 -156.5t-158 -404.5t149.5 -412.5t405.5 -164.5q158 0 250 49v293q0 174 -4 262h166q-4 -140 -4 -486l-2 -174q-201 -82 -414 -82z" />
    <glyph glyph-name="H" unicode="H" horiz-adv-x="1413" 
d="M1085 788v261q0 168 -4 327h168q-4 -119 -4 -350v-770q0 -109 4 -256h-168q4 160 4 297v358h-757v-358q0 -209 4 -297h-170q4 168 4 313v713q0 178 -4 350h170q-4 -137 -4 -473v-115h757z" />
    <glyph glyph-name="I" unicode="I" horiz-adv-x="509" 
d="M336 1008v-680q0 -225 4 -328h-170q4 184 4 330v678q0 156 -4 368h170q-4 -110 -4 -368z" />
    <glyph glyph-name="J" unicode="J" horiz-adv-x="552" 
d="M383 1026v-1053q0 -170 -94 -268t-260 -98q-80 0 -158 24v150q51 -35 148 -35t148.5 64.5t51.5 179.5v1036q0 250 -4 350h170q-2 -182 -2 -350z" />
    <glyph glyph-name="K" unicode="K" horiz-adv-x="1159" 
d="M330 283q0 -154 2 -283h-170q4 188 4 281v815q0 63 -4 280h170q-2 -115 -2 -278v-393l360 446q127 150 182 225h189q-16 -18 -48 -57t-48 -57l-476 -555l478 -531q102 -115 166 -176h-226q-53 68 -133 160l-444 522v-399z" />
    <glyph glyph-name="L" unicode="L" horiz-adv-x="919" 
d="M330 137h254q139 0 282 4v-145q-86 4 -295 4h-407q4 319 4 383v608q0 164 -4 385h168l-2 -180v-1059z" />
    <glyph glyph-name="M" unicode="M" horiz-adv-x="1652" 
d="M1352 0q0 145 -9 301l-34 758q-158 -295 -449 -871h-57l-455 871l-47 -748q-10 -160 -14 -311h-170q4 53 14 170t14 180l74 1039h98l519 -969l510 969h100l59 -1061q8 -182 25 -328h-178z" />
    <glyph glyph-name="N" unicode="N" horiz-adv-x="1458" 
d="M322 285q0 -158 6 -285h-166q4 176 4 295v749q0 104 -4 347h98l873 -1092v733q0 205 -9 344h179q-10 -125 -11 -332v-761q0 -195 2 -283h-104l-868 1096v-811z" />
    <glyph glyph-name="O" unicode="O" horiz-adv-x="1589" 
d="M794 -23q-296 0 -495 202t-199 505t200 507t495 204t494.5 -205t199.5 -505t-199.5 -504t-495.5 -204zM794 115q228 0 375.5 162.5t147.5 407.5t-148.5 407.5t-372.5 162.5t-375 -160.5t-151 -408.5t148 -409.5t376 -161.5z" />
    <glyph glyph-name="P" unicode="P" horiz-adv-x="1026" 
d="M330 522v-180q0 -246 4 -342h-172q4 184 4 360v721q0 139 -4 295h293q229 0 354 -116t125 -308t-129 -311t-361 -119h-114zM330 651h114q143 0 231.5 80t88.5 217t-86 218t-234 81h-114v-596z" />
    <glyph glyph-name="Q" unicode="Q" horiz-adv-x="1589" 
d="M792 1395q294 0 495.5 -205t201.5 -504q0 -240 -131 -415t-340 -228q104 -104 234 -160.5t230 -56.5t158 16l19 -125q-88 -25 -176 -24q-193 0 -340.5 70.5t-306.5 242.5q-57 -4 -99 -4q-260 0 -449.5 200.5t-189.5 492.5t200 496t494 204zM268 685q0 -245 148 -407.5
t376 -162.5t376.5 161.5t148.5 405.5t-149.5 408.5t-374.5 164.5t-375 -162.5t-150 -407.5z" />
    <glyph glyph-name="R" unicode="R" horiz-adv-x="1136" 
d="M330 532v-172q0 -180 4 -360h-172q4 92 4 367v684q0 248 -4 325h295q205 0 340 -99t135 -290q0 -143 -76 -253.5t-205 -151.5l189 -236q115 -164 286 -346h-231l-377 532h-188zM330 659h188q96 0 171 94.5t75 221.5t-87 198.5t-222 71.5h-125v-586z" />
    <glyph glyph-name="S" unicode="S" horiz-adv-x="997" 
d="M317 1063q0 -90 55.5 -151.5t170.5 -133.5q69 -35 135.5 -83t136.5 -118.5t70 -230.5t-120 -265.5t-308 -105.5t-351 74q4 16 15.5 76.5t21.5 97.5q117 -117 308 -117q117 0 187.5 61.5t70.5 168.5q0 158 -239 293t-279.5 229t-40.5 170q0 168 111 268.5t275 100.5
t293 -51v-175q-92 92 -274 93q-104 0 -171 -55.5t-67 -145.5z" />
    <glyph glyph-name="T" unicode="T" horiz-adv-x="1153" 
d="M799 1239h-144v-885q0 -268 4 -354h-170q2 90 3 354v639q0 174 -3 246h-143q-217 0 -301 -4v141h762q236 0 313 2l-24 -143q-176 4 -297 4z" />
    <glyph glyph-name="U" unicode="U" horiz-adv-x="1370" 
d="M313 997v-465q0 -199 103.5 -305t275.5 -106t271.5 108.5t99.5 307.5v460q0 295 -2 379h174q-2 -100 -2 -381v-467q0 -264 -147.5 -404t-400.5 -140t-396.5 144t-143.5 400v467q0 193 -4 381h178q-6 -92 -6 -379z" />
    <glyph glyph-name="V" unicode="V" horiz-adv-x="1286" 
d="M1075 1376h193q-109 -236 -111 -241l-444 -1160h-135l-439 1131q-59 156 -121 270h199l428 -1153z" />
    <glyph glyph-name="W" unicode="W" horiz-adv-x="1929" 
d="M1266 -8l-310 934l-317 -934h-145l-467 1384h184l348 -1108h23l290 877l-79 231h182l362 -1108h17q29 115 332 1108h178l-453 -1384h-145z" />
    <glyph glyph-name="X" unicode="X" horiz-adv-x="1163" 
d="M573 569l-256 -407q-74 -125 -100 -162h-190q113 154 200 291l260 399l-247 391q-84 131 -195 295h199q57 -102 123 -207l217 -350q35 57 207 328q106 174 141 229h188q-113 -152 -200 -291l-250 -385l250 -399q57 -92 202 -301h-196q-55 100 -117 197z" />
    <glyph glyph-name="Y" unicode="Y" horiz-adv-x="1165" 
d="M504 334v262l-318 520q-18 31 -82.5 131.5t-80.5 128.5h190q48 -98 188 -327.5t187 -309.5l262 443q27 45 111 194h184q-10 -16 -36 -55t-38 -59l-407 -668v-262q0 -144 4 -332h-168q4 172 4 334z" />
    <glyph glyph-name="Z" unicode="Z" horiz-adv-x="1124" 
d="M756 137q225 0 303 2v-141q-78 2 -305 2h-678q42 77 164 281l548 958h-348q-246 0 -323 -4l-25 143q98 -2 375 -2h584l-723 -1239h428z" />
    <glyph glyph-name="bracketleft" unicode="[" horiz-adv-x="636" 
d="M502 -428h-344q4 131 4 231v1506q0 102 -4 233h282q98 0 142 2v-127q-78 4 -131 4h-146v-1728h148q55 0 129 4v-129q-45 4 -80 4z" />
    <glyph glyph-name="backslash" unicode="\" horiz-adv-x="675" 
d="M31 1432h147q207 -657 469 -1504h-151z" />
    <glyph glyph-name="bracketright" unicode="]" horiz-adv-x="636" 
d="M184 -428q-57 0 -127 -4v129q78 -4 131 -4h146v1728h-146q-57 0 -131 -4v127q39 -2 127 -2h297q-4 -123 -4 -217v-1536q0 -98 4 -217h-297z" />
    <glyph glyph-name="asciicircum" unicode="^" horiz-adv-x="1069" 
d="M940 764h-149q-10 23 -35 69t-53.5 101t-36.5 70l-136 256l-135 -256q-25 -45 -67.5 -129t-57.5 -111h-143q16 29 180 317l182 318h86q39 -68 166 -290t199 -345z" />
    <glyph glyph-name="underscore" unicode="_" horiz-adv-x="952" 
d="M12 -154h928v-73h-928v73z" />
    <glyph glyph-name="grave" unicode="`" horiz-adv-x="862" 
d="M35 1376h170q8 -16 160 -295h-129z" />
    <glyph glyph-name="a" unicode="a" horiz-adv-x="942" 
d="M840 633v-334q0 -186 34 -299h-149l-10 111q-66 -63 -157 -97t-173 -34q-135 0 -222 82.5t-87 216.5q0 289 405 307q129 6 224 6v37q0 98 -71.5 156.5t-189.5 58.5t-245 -94l-60 122q143 94 325 94t279 -84.5t97 -248.5zM215 281q0 -78 55.5 -128.5t129.5 -50.5t161.5 37
t143.5 92v244l-201 -6q-289 -10 -289 -188z" />
    <glyph glyph-name="b" unicode="b" horiz-adv-x="1107" 
d="M137 1415h-108l49 86h217l-8 -110v-521q137 98 280 99q238 0 364 -141.5t126 -354.5t-134.5 -347t-359.5 -134q-133 0 -280 86v-47l-146 -37v1421zM557 111q330 0 330 364q0 176 -92.5 265.5t-235.5 89.5t-272 -125v-496q154 -98 270 -98z" />
    <glyph glyph-name="c" unicode="c" horiz-adv-x="1013" 
d="M78 469q0 211 143.5 353.5t372.5 142.5q168 0 297 -74v-154q-119 97 -287 97t-272.5 -104.5t-104.5 -263.5t102.5 -257t278.5 -98q88 0 166 32.5t117 69.5v-150q-102 -79 -313 -79t-355.5 137t-144.5 348z" />
    <glyph glyph-name="d" unicode="d" horiz-adv-x="1114" 
d="M561 -8q-231 0 -355 134t-124 345t129 353.5t350 142.5q143 0 270 -84v479h-110l53 86h221l-14 -178v-1239l-145 -37v139q-47 -63 -121 -102t-154 -39zM557 111q137 0 274 122v512q-143 102 -264 103q-168 0 -252 -103.5t-84 -278.5t94.5 -265t231.5 -90z" />
    <glyph glyph-name="e" unicode="e" horiz-adv-x="991" 
d="M934 548q0 -70 -2 -93h-725q8 -166 100.5 -256t244.5 -90t331 110v-131q-137 -102 -342 -102t-339 130t-134 351t116.5 360.5t325.5 139.5q115 0 200 -38t132 -101.5t69.5 -136.5t22.5 -143zM516 836q-139 0 -216 -85t-91 -182h596q-4 121 -77 194t-212 73z" />
    <glyph glyph-name="f" unicode="f" horiz-adv-x="622" 
d="M57 944h146v154q0 176 77.5 280.5t227.5 104.5q63 0 162 -25l-19 -137q-45 29 -129 29t-128 -70t-44 -178v-158h236l-21 -129h-215v-610q0 -147 2 -205h-151q2 84 2 205v610h-146v129z" />
    <glyph glyph-name="g" unicode="g" horiz-adv-x="999" 
d="M469 -467q-215 0 -317 33l36 121q98 -23 260 -23t241 75t79 216v133q-116 -102 -300 -102t-307.5 125t-123.5 346t126 364.5t318 143.5q76 0 159 -35t128 -90v104h180l-37 -147q0 -399 9 -795q0 -221 -118 -345t-333 -124zM504 850q-137 0 -224 -113.5t-87 -282.5
t83.5 -262.5t219.5 -93.5t272 97v538q-86 117 -264 117z" />
    <glyph glyph-name="h" unicode="h" horiz-adv-x="1136" 
d="M303 1270v-471q137 162 327 162t288 -111t98 -309v-346q0 -141 4 -195h-168q4 133 4 330v248q0 256 -264 256q-86 0 -168 -59.5t-121 -153.5v-433q0 -86 4 -188h-166q4 106 4 193v1187h-90l49 97h205q-6 -47 -6 -207z" />
    <glyph glyph-name="i" unicode="i" horiz-adv-x="458" 
d="M154 209v526q0 147 -7 209h168q-6 -68 -6 -209v-526q0 -147 6 -209h-168q7 68 7 209zM145 1247q0 41 29 71t70 30t70.5 -30t29.5 -71t-29.5 -69.5t-70.5 -28.5t-70 28.5t-29 69.5z" />
    <glyph glyph-name="j" unicode="j" horiz-adv-x="471" 
d="M145 1247q0 41 29 71t70 30t70.5 -30t29.5 -71t-29.5 -69.5t-70.5 -28.5t-70 28.5t-29 69.5zM311 735v-850q0 -82 -2 -98q-16 -143 -99 -216t-214 -73h-127v125h127q166 0 166 268v844q0 147 -6 209h161q-6 -68 -6 -209z" />
    <glyph glyph-name="k" unicode="k" horiz-adv-x="1007" 
d="M141 1391h-82q20 29 45 86h199q-4 -115 -4 -205v-733q57 57 212 216.5t187 188.5h238q-109 -82 -182 -149l-301 -277l405 -395q86 -86 127 -123h-201l-483 473v-276q0 -135 2 -197h-166q4 115 4 213v1178z" />
    <glyph glyph-name="l" unicode="l" horiz-adv-x="481" 
d="M303 1296v-1011q0 -242 6 -285h-166q4 86 4 285v1095h-92l49 97h207q-8 -42 -8 -181z" />
    <glyph glyph-name="m" unicode="m" horiz-adv-x="1593" 
d="M601 961q179 0 247 -181q131 180 317 181q137 0 217 -91.5t80 -263.5v-411q0 -80 4 -195h-166q2 72 3 229v338q0 258 -181 258q-76 0 -139 -51t-102 -143v-436q0 -84 4 -195h-166q2 70 2 229v346q0 250 -182 250q-74 0 -139.5 -51t-102.5 -143v-398q0 -166 2 -233h-164
q2 88 2 199v659h-92q27 39 51 86h187l12 -143q127 160 306 160z" />
    <glyph glyph-name="n" unicode="n" horiz-adv-x="1134" 
d="M141 858h-88q27 39 51 86h181q4 -35 14 -145q137 162 342 162q362 0 363 -418v-320q0 -158 4 -223h-166q2 86 2 233v345q0 127 -69 187t-173 60t-184 -56t-119 -148v-388q0 -160 2 -233h-164q4 147 4 233v625z" />
    <glyph glyph-name="o" unicode="o" 
d="M80 470q0 206 135 348.5t331 142.5t330 -143.5t134 -348.5t-133.5 -345t-332 -140t-331.5 140t-133 346zM544 825q-134 0 -219 -111.5t-85 -253.5t86 -243.5t221 -101.5t219 101t84 255t-86 254t-220 100z" />
    <glyph glyph-name="p" unicode="p" horiz-adv-x="1110" 
d="M147 858h-108l49 86h217l-8 -110q123 133 323 133t313.5 -139.5t113.5 -346.5t-124 -348t-350 -141q-133 0 -280 86v-547l-146 -35v1362zM567 111q160 0 241 85t81 279t-85 283.5t-210 89.5q-168 0 -297 -125v-514q154 -98 270 -98z" />
    <glyph glyph-name="q" unicode="q" horiz-adv-x="1112" 
d="M977 -250q0 -10 6 -256h-168q4 147 4 250v383q-117 -143 -306 -143t-311 137t-122 345t122 349t304 141t315 -100v88h166l-10 -176v-1018zM582 834q-166 0 -252 -101t-86 -257t85 -259.5t222 -103.5q66 0 144.5 24.5t125.5 67.5v555q-116 74 -239 74z" />
    <glyph glyph-name="r" unicode="r" horiz-adv-x="694" 
d="M554 965q68 0 114 -19l-31 -153q-104 53 -195.5 -1.5t-142.5 -111.5q4 -127 4 -188v-283q0 -82 4 -209h-166q4 143 4 215v643h-88l49 86h177l10 -182q51 96 122 149.5t139 53.5z" />
    <glyph glyph-name="s" unicode="s" horiz-adv-x="768" 
d="M682 246q0 -122 -90 -195.5t-242 -73.5t-274 68q14 92 26 152q109 -98 246 -99q82 0 134.5 38t52.5 92t-32 90t-62.5 53.5t-86.5 46.5q-105 54 -174 113.5t-69 172.5t84 185t227 72q92 0 225 -39v-152q-101 70 -199 70t-144 -34t-46 -93t52.5 -97t117.5 -70
q108 -54 181 -116t73 -184z" />
    <glyph glyph-name="t" unicode="t" horiz-adv-x="690" 
d="M451 -18q-252 0 -252 303v530h-156v129h156v70q0 109 -2 155l157 29q-2 -59 -2 -186v-68h273q-6 -43 -23 -129h-250v-496q0 -106 31 -157t97 -51t122 34q17 -86 27 -122q-72 -41 -178 -41z" />
    <glyph glyph-name="u" unicode="u" horiz-adv-x="1013" 
d="M297 562q0 -252 43 -349.5t184 -97.5q92 0 153.5 58t80.5 149v383q0 164 -2 239h166q-4 -70 -4 -231v-518q0 -127 20 -195h-141l-31 125q-84 -141 -277 -141q-156 0 -254 95t-98 316v463h-84l51 86h195q-2 -130 -2 -382z" />
    <glyph glyph-name="v" unicode="v" horiz-adv-x="921" 
d="M14 944h179q18 -55 71 -188l203 -533l203 533q12 33 33.5 95t33.5 93h168q-35 -72 -90 -201l-311 -761h-82l-318 766q-53 126 -90 196z" />
    <glyph glyph-name="w" unicode="w" horiz-adv-x="1402" 
d="M426 244l227 700h107q47 -133 241 -717l187 586q31 90 39 131h164q-14 -37 -84 -225l-263 -737h-83l-256 745l-250 -745h-90l-269 741q-42 114 -82 221h174q31 -119 66 -213z" />
    <glyph glyph-name="x" unicode="x" horiz-adv-x="872" 
d="M678 0l-244 362q-162 -244 -235 -362h-179q72 96 148 209l182 262q-139 207 -171 256t-87 124t-67 93h184q49 -84 110 -176l123 -190l127 190q16 25 101 176h180q-59 -82 -143 -207l-179 -264l211 -311q57 -88 113 -162h-174z" />
    <glyph glyph-name="y" unicode="y" horiz-adv-x="964" 
d="M201 -279q74 0 151 179l58 133q-66 152 -197 456t-197 455h181l288 -747l222 548q37 92 69 199h172q-334 -797 -442 -1018l-43 -90q-100 -227 -266 -227h-125q2 8 47 112h82z" />
    <glyph glyph-name="z" unicode="z" horiz-adv-x="811" 
d="M569 127q76 0 195 4v-133q-43 2 -139 2h-574l486 815h-297q-53 0 -148 -4l-8 133h684l-485 -817h286z" />
    <glyph glyph-name="braceleft" unicode="{" horiz-adv-x="688" 
d="M248 842l-8 354q-1 346 372 346l17 -131q-125 -2 -183.5 -63.5t-58.5 -194.5l8 -338q0 -102 -43 -164.5t-112 -81.5v-12q70 -18 112.5 -78.5t42.5 -163.5l-8 -344q0 -141 59.5 -199.5t180.5 -60.5q-7 -40 -15 -133q-172 0 -272 85t-100 265l8 363q0 207 -176 213v119
q176 6 176 219z" />
    <glyph glyph-name="bar" unicode="|" horiz-adv-x="471" 
d="M166 1559h139v-1995h-139v1995z" />
    <glyph glyph-name="braceright" unicode="}" horiz-adv-x="688" 
d="M88 -422q-20 0 -29 133q139 0 190.5 66.5t51.5 234.5l-8 303q0 203 156 240v12q-70 18 -113 82t-43 166l6 338q0 152 -64.5 205t-175.5 53l17 131l28 2q152 0 248.5 -93t96.5 -255l-9 -330q0 -121 41 -180t133 -63v-119q-90 -2 -132 -53.5t-42 -155.5l9 -367
q0 -172 -94.5 -261t-266.5 -89z" />
    <glyph glyph-name="asciitilde" unicode="~" horiz-adv-x="1075" 
d="M338 514q-100 0 -166 -133l-102 51q35 102 106.5 161.5t151.5 59.5t214 -79.5t187 -79.5q102 0 170 135l107 -54q-33 -102 -108 -160.5t-162 -58.5t-216 79t-182 79z" />
    <glyph glyph-name="exclamdown" unicode="&#xa1;" horiz-adv-x="593" 
d="M178 -414l2 213q0 84 7.5 387t11.5 373h118q4 -70 11.5 -373t7.5 -387l2 -213h-160zM154 859q0 42 29.5 72t70.5 30t71.5 -30t30.5 -72t-30.5 -72.5t-71.5 -30.5t-70.5 30.5t-29.5 72.5z" />
    <glyph glyph-name="cent" unicode="&#xa2;" horiz-adv-x="1073" 
d="M659 -47h-106v178q-176 25 -280.5 155t-104.5 305t108.5 306t278.5 158v188h107v-178q121 -8 196 -39v-147q-78 53 -180 55q-152 2 -252 -90t-100 -249t94 -249t252 -90q96 0 184 55l23 -139q-109 -41 -220 -47v-172z" />
    <glyph glyph-name="sterling" unicode="&#xa3;" horiz-adv-x="1073" 
d="M496 647q0 -393 -174 -524q147 4 249 4h160q92 0 215 4v-133q-55 2 -194 2h-656v115q242 49 242 532h-158v117h162q0 610 432 610q102 0 199 -31l-17 -143q-57 39 -163 39q-268 0 -289 -358l-4 -117h331l-22 -117h-313z" />
    <glyph glyph-name="currency" unicode="&#xa4;" horiz-adv-x="1073" 
d="M98 671q0 138 88 257q-55 51 -153 149l90 88l149 -149q116 92 260 92t265 -92l145 145q16 -14 90 -88l-145 -145q88 -121 88 -260t-90 -254l147 -148l-90 -90l-147 148q-119 -88 -263 -88t-258 88l-145 -144l-90 86l147 150q-88 117 -88 255zM231 670q0 -129 89.5 -219.5
t216.5 -90.5t215 92.5t88 218.5t-88 219t-216 93t-216.5 -92t-88.5 -221z" />
    <glyph glyph-name="yen" unicode="&#xa5;" horiz-adv-x="1073" 
d="M455 223v101h-295v98h295v149h-295v97h289l-402 692h182l308 -576q254 446 311 576h176l-401 -692h286v-97h-295v-149h295v-98h-295v-101q0 -84 4 -223h-167q4 143 4 223z" />
    <glyph glyph-name="brokenbar" unicode="&#xa6;" horiz-adv-x="471" 
d="M166 303h139v-739h-139v739zM166 1559h139v-740h-139v740z" />
    <glyph glyph-name="section" unicode="&#xa7;" horiz-adv-x="1036" 
d="M565 1333q-98 0 -156.5 -46t-58.5 -121t54.5 -125t139.5 -90t166.5 -80.5t147.5 -115.5t66 -184q0 -152 -162 -268q102 -89 102 -231t-107.5 -222.5t-283.5 -80.5t-332 79q27 115 35 144q117 -100 291 -101q113 0 177.5 46.5t64.5 136.5q0 129 -231 234t-293 180t-62 174
q0 172 184 268q-115 86 -114.5 223t96.5 219t257 82t292 -57v-144q-106 80 -273 80zM678 365q100 80 100 182t-89 165t-184 107t-120 58q-121 -60 -121 -176t109 -180t176 -95q67 -30 129 -61z" />
    <glyph glyph-name="dieresis" unicode="&#xa8;" horiz-adv-x="849" 
d="M615 1137q-36 0 -63.5 25.5t-27.5 61.5t28 61.5t64 25.5t61 -25.5t25 -61.5t-25.5 -61.5t-61.5 -25.5zM145 1224q0 36 27 61.5t61.5 25.5t62.5 -25.5t28 -61.5t-27 -61.5t-63 -25.5t-62.5 25.5t-26.5 61.5z" />
    <glyph glyph-name="copyright" unicode="&#xa9;" horiz-adv-x="1503" 
d="M98 655q0 274 189 468t463 194t463.5 -193.5t189.5 -467.5t-188.5 -467t-463.5 -193t-464 192.5t-189 466.5zM199 656q0 -243 158.5 -409.5t393.5 -166.5t393.5 167t158.5 409t-161 407.5t-392.5 165.5t-391 -165t-159.5 -408zM778 373q102 0 180 45l19 -105
q-96 -41 -199 -41q-156 0 -257 108.5t-101 270.5t103.5 275.5t262.5 113.5q94 0 177 -32v-113q-61 45 -172 45t-185 -81t-74 -205t72 -202.5t174 -78.5z" />
    <glyph glyph-name="ordfeminine" unicode="&#xaa;" horiz-adv-x="942" 
d="M45 154q0 162 221 165l119 5v20q0 57 -36.5 88t-102.5 31t-137 -39q-14 23 -29 55q92 51 188 51q195 0 195 -184v-182q0 -119 6 -164h-59l-19 61q-84 -73 -168 -73t-131 46t-47 120zM123 163q0 -50 27.5 -78t74.5 -28q92 0 160 68v139l-106 -4q-80 -4 -107 -18
q-49 -29 -49 -79z" />
    <glyph glyph-name="guillemotleft" unicode="&#xab;" horiz-adv-x="1171" 
d="M96 385v115l475 366v-164l-323 -256l323 -233v-162zM526 385v115l475 366v-164l-323 -256l323 -233v-162z" />
    <glyph glyph-name="logicalnot" unicode="&#xac;" horiz-adv-x="1075" 
d="M821 530h-764v129h914v-507h-150v378z" />
    <glyph glyph-name="registered" unicode="&#xae;" horiz-adv-x="1015" 
d="M117 1036q0 166 112.5 281t275.5 115t278.5 -116t115.5 -281t-113.5 -279.5t-279.5 -114.5t-277.5 114.5t-111.5 280.5zM184 1035q0 -142 92.5 -238.5t230.5 -96.5t230 97.5t92 239t-92 238.5t-230 97t-230.5 -97.5t-92.5 -239.5zM442 827h-65q2 33 2 95v233q0 72 -2 98
h115q72 0 110.5 -30.5t38.5 -77.5t-28.5 -79t-75.5 -44q41 -47 135 -195h-78q-59 111 -115 181h-37v-181zM442 1053h39q96 0 97 80q0 43 -21.5 59t-75.5 16h-39v-155z" />
    <glyph glyph-name="macron" unicode="&#xaf;" horiz-adv-x="849" 
d="M172 1272h506v-117h-506v117z" />
    <glyph glyph-name="degree" unicode="&#xb0;" horiz-adv-x="718" 
d="M82 1095.5q0 116.5 81 197.5t199 81t196.5 -78.5t78.5 -193.5t-83 -200t-202 -85t-194.5 81t-75.5 197.5zM190 1095.5q0 -75.5 48 -125.5t120 -50t120 52t48 126t-49 124t-117 50t-119 -50.5t-51 -126z" />
    <glyph glyph-name="plusminus" unicode="&#xb1;" horiz-adv-x="1075" 
d="M465 608h-373v129h373v334h145v-334h373v-129h-373v-338h-145v338zM92 131h891v-131h-891v131z" />
    <glyph glyph-name="uni00B2" unicode="&#xb2;" horiz-adv-x="679" 
d="M70 879v112q18 20 129.5 120.5t174 178.5t62.5 137.5t-37 98.5t-102 39q-100 0 -186 -72q-8 57 -21 119q110 61 224 61t186.5 -60.5t72.5 -153.5t-37.5 -148.5t-60 -84t-66.5 -69.5t-67 -60.5t-74 -61.5t-63 -52h211q72 0 174 4v-108h-520z" />
    <glyph glyph-name="uni00B3" unicode="&#xb3;" horiz-adv-x="681" 
d="M416 1458q0 117 -152 117q-78 0 -153 -51l-19 108q104 45 207 45t175.5 -51t72.5 -147q0 -131 -164 -189q86 -18 137 -69t51 -137t-77.5 -149t-206.5 -63t-211 39q5 20 10.5 57.5t7.5 49.5q62 -45 158 -45q186 0 186 135q0 61 -48 96t-138 35h-55v94h41q178 0 178 125z
" />
    <glyph glyph-name="acute" unicode="&#xb4;" horiz-adv-x="849" 
d="M725 1374q-42 -59 -201 -295h-129l160 295h170z" />
    <glyph glyph-name="mu" unicode="&#xb5;" horiz-adv-x="1157" 
d="M287 -340q0 -74 6 -195h-152q6 68 6 207v1184h-84l52 86h192v-399q0 -227 58.5 -327.5t220.5 -100.5q90 0 171 60.5t97 146.5v383q0 162 -2 237h166q-4 -70 -4 -229v-518q0 -80 14 -195h-135l-31 125q-106 -141 -291 -141q-80 0 -158.5 37.5t-125.5 117.5v-479z" />
    <glyph glyph-name="paragraph" unicode="&#xb6;" horiz-adv-x="1153" 
d="M111 902q0 208 136 341t353 133h408v-1628h-109v1503h-160v-1155q0 -231 2 -348h-155l2 238v444q-215 12 -346 138t-131 334z" />
    <glyph glyph-name="periodcentered" unicode="&#xb7;" horiz-adv-x="450" 
d="M119 502q0 45 30.5 75.5t75.5 30.5t76 -30.5t31 -75.5t-31 -76t-76 -31t-75.5 31t-30.5 76z" />
    <glyph glyph-name="cedilla" unicode="&#xb8;" horiz-adv-x="849" 
d="M580 -262q0 -78 -59.5 -124t-140.5 -46t-147 22l15 88q53 -26 101 -26t77 21.5t29 60.5q0 84 -133 84q-25 0 -37 -2l39 84q9 16 38 88h103l-47 -101q162 -20 162 -149z" />
    <glyph glyph-name="uni00B9" unicode="&#xb9;" horiz-adv-x="612" 
d="M432 1669v-680q0 -68 4 -112h-129v657q-63 -23 -203 -80l-22 96q145 59 276 119h74z" />
    <glyph glyph-name="ordmasculine" unicode="&#xba;" 
d="M51 282q0 122 80 206.5t198 84.5t197.5 -84.5t79.5 -206.5t-78.5 -207t-197.5 -85t-199 85t-80 207zM329 498q-81 0 -134.5 -69t-53.5 -153t53.5 -148.5t135.5 -64.5t134 62.5t52 156.5t-53 155t-134 61z" />
    <glyph glyph-name="guillemotright" unicode="&#xbb;" horiz-adv-x="1171" 
d="M1083 385l-475 -334v162l324 233l-324 256v164l475 -366v-115zM653 385l-475 -334v162l324 233l-324 256v164l475 -366v-115z" />
    <glyph glyph-name="onequarter" unicode="&#xbc;" horiz-adv-x="1646" 
d="M889 201v65q350 444 414 527h81v-500q84 0 127 2v-96q-29 2 -127 2v-88q0 -66 2 -113h-122v201h-375zM1284 1360l-870 -1360h-121l868 1360h123zM1264 293v119q0 96 4 206l-250 -325h246zM459 1366v-680q0 -68 4 -113h-129v658q-63 -23 -203 -80l-22 96q145 59 276 119
h74z" />
    <glyph glyph-name="onehalf" unicode="&#xbd;" horiz-adv-x="1646" 
d="M1274 1360l-871 -1360h-120l868 1360h123zM1022 0v113q18 20 130 120.5t174.5 178t62.5 137t-37 98.5t-120 39t-169 -72q-8 57 -21 119q110 61 224 61t187 -60t73 -153t-38 -148.5t-60.5 -84.5t-66.5 -69.5t-66.5 -60t-74 -61.5t-63.5 -53h211q72 0 174 5v-109h-520z
M459 1366v-680q0 -68 4 -113h-129v658q-63 -23 -203 -80l-22 96q145 59 276 119h74z" />
    <glyph glyph-name="threequarters" unicode="&#xbe;" horiz-adv-x="1646" 
d="M1223 1360h123q-791 -1237 -869 -1360h-123zM444 1149q0 117 -152 117q-78 0 -153 -52l-18 109q105 45 207 45t174.5 -51t72.5 -148q0 -131 -163 -188q86 -18 137 -69.5t51 -137.5t-78 -148.5t-207 -62.5t-211 39q8 31 12.5 62.5t6.5 44.5q61 -45 157 -45q186 0 187 135
q0 61 -48 96t-138 35h-56v94h41q178 0 178 125zM889 201v65q350 444 414 527h81v-500q84 0 127 2v-96q-29 2 -127 2v-88q0 -66 2 -113h-122v201h-375zM1264 293v119q0 96 4 206l-250 -325h246z" />
    <glyph glyph-name="questiondown" unicode="&#xbf;" horiz-adv-x="931" 
d="M604 580q0 -152 -44 -253.5t-159 -205.5q-45 -30 -86 -79.5t-48 -74t-7 -66.5t26.5 -85t83.5 -70t101 -27q164 0 279 152v-172q-104 -119 -279 -119q-111 0 -197 47t-122.5 116t-36.5 165q0 143 180 287q98 80 132 162t36 223h141zM631 862q0 -43 -33 -75.5t-76 -32.5
t-73.5 30.5t-30.5 73.5t31.5 75t75.5 33t75 -30t31 -74z" />
    <glyph glyph-name="Agrave" unicode="&#xc0;" horiz-adv-x="1275" 
d="M379 1786h170q20 -41 75.5 -141.5t82.5 -153.5h-127zM1260 0h-193q-8 25 -168 418h-541q-147 -373 -161 -418h-179q63 135 142 334l430 1057h84l461 -1119q43 -102 125 -272zM848 549l-219 577l-221 -577h440z" />
    <glyph glyph-name="Aacute" unicode="&#xc1;" horiz-adv-x="1275" 
d="M895 1786q-159 -236 -201 -295h-127l158 295h170zM1260 0h-193q-8 25 -168 418h-541q-147 -373 -161 -418h-179q63 135 142 334l430 1057h84l461 -1119q43 -102 125 -272zM848 549l-219 577l-221 -577h440z" />
    <glyph glyph-name="Acircumflex" unicode="&#xc2;" horiz-adv-x="1275" 
d="M637 1677l-139 -190h-125l221 295h90l221 -295h-129zM1260 0h-193q-8 25 -168 418h-541q-147 -373 -161 -418h-179q63 135 142 334l430 1057h84l461 -1119q43 -102 125 -272zM848 549l-219 577l-221 -577h440z" />
    <glyph glyph-name="Atilde" unicode="&#xc3;" horiz-adv-x="1275" 
d="M358 1528q0 78 40 135t108 57t141 -48q72 -48 101 -48q70 0 71 86h101q0 -78 -37 -135t-105 -57t-143 47q-76 47 -105 47q-63 0 -67 -84h-105zM1260 0h-193q-8 25 -168 418h-541q-147 -373 -161 -418h-179q63 135 142 334l430 1057h84l461 -1119q43 -102 125 -272z
M848 549l-219 577l-221 -577h440z" />
    <glyph glyph-name="Adieresis" unicode="&#xc4;" horiz-adv-x="1275" 
d="M830 1548q-36 0 -63.5 27t-27.5 63t27.5 61t63.5 25t62 -25.5t26 -61.5t-26 -62.5t-62 -26.5zM360 1637q0 36 27 61.5t61.5 25.5t62.5 -25.5t28 -61.5t-28 -62.5t-62.5 -26.5t-61.5 26.5t-27 62.5zM1260 0h-193q-8 25 -168 418h-541q-147 -373 -161 -418h-179
q63 135 142 334l430 1057h84l461 -1119q43 -102 125 -272zM848 549l-219 577l-221 -577h440z" />
    <glyph glyph-name="Aring" unicode="&#xc5;" horiz-adv-x="1275" 
d="M446 1652q0 77 54.5 126t136.5 49t137 -50.5t55 -124.5t-54 -125.5t-136 -51.5t-137.5 50t-55.5 127zM545 1656q0 -42 24.5 -75t67.5 -33t68.5 29t25.5 74t-25.5 72.5t-66.5 27.5t-67.5 -26.5t-26.5 -68.5zM1260 0h-193q-8 25 -168 418h-541q-147 -373 -161 -418h-179
q63 135 142 334l430 1057h84l461 -1119q43 -102 125 -272zM848 549l-219 577l-221 -577h440z" />
    <glyph glyph-name="AE" unicode="&#xc6;" horiz-adv-x="1683" 
d="M1141 1376q233 0 346 4l-25 -145q-90 4 -321 4h-232q43 -240 82 -496h221q119 0 271 5v-142q-74 2 -252 2h-211l74 -471h219q193 0 268 10v-147h-627l-65 424h-471q-88 -160 -217 -424h-197q148 244 413 741.5t339 634.5h385zM862 555l-88 578l-289 -578h377z" />
    <glyph glyph-name="Ccedilla" unicode="&#xc7;" horiz-adv-x="1263" 
d="M100 684q0 297 203 504t514 207q172 0 350 -66v-168q-143 92 -342 92q-239 0 -397 -168q-158 -167 -158 -405t155 -400.5t394 -162.5q201 0 350 96v-164q-147 -61 -315 -67l-43 -95q160 -20 160 -149q0 -78 -59.5 -124t-139.5 -46t-145 22l14 88q53 -26 101 -26t77 21.5
t29 63.5t-29 58q-33 23 -82 23t-59 -2l72 166q-285 16 -467.5 210.5t-182.5 491.5z" />
    <glyph glyph-name="Egrave" unicode="&#xc8;" horiz-adv-x="962" 
d="M221 1786h170q20 -41 75.5 -141.5t82.5 -153.5h-127zM168 1040q0 143 -4 336h311q254 0 361 4l-25 -145q-101 4 -281 4t-200 -2v-451h143q233 0 322 2v-141q-176 4 -322 4h-143v-514h198q240 0 322 2v-141q-80 2 -315 2h-371v37l4 297v706z" />
    <glyph glyph-name="Eacute" unicode="&#xc9;" horiz-adv-x="962" 
d="M557 1786h170l-201 -295h-127zM168 1040q0 143 -4 336h311q254 0 361 4l-25 -145q-101 4 -281 4t-200 -2v-451h143q233 0 322 2v-141q-176 4 -322 4h-143v-514h198q240 0 322 2v-141q-80 2 -315 2h-371v37l4 297v706z" />
    <glyph glyph-name="Ecircumflex" unicode="&#xca;" horiz-adv-x="962" 
d="M436 1782h90q33 -43 103.5 -137.5t118.5 -157.5h-132l-137 190l-139 -190h-125zM168 1040q0 143 -4 336h311q254 0 361 4l-25 -145q-101 4 -281 4t-200 -2v-451h143q233 0 322 2v-141q-176 4 -322 4h-143v-514h198q240 0 322 2v-141q-80 2 -315 2h-371v37l4 297v706z" />
    <glyph glyph-name="Edieresis" unicode="&#xcb;" horiz-adv-x="962" 
d="M672 1548q-37 0 -63.5 27t-26.5 63t26.5 61t63.5 25t62.5 -25.5t25.5 -61.5t-25.5 -62.5t-62.5 -26.5zM203 1637q0 36 26.5 61.5t61.5 25.5t61.5 -25.5t26.5 -61.5t-26.5 -62.5t-61.5 -26.5t-61.5 26.5t-26.5 62.5zM168 1040q0 143 -4 336h311q254 0 361 4l-25 -145
q-101 4 -281 4t-200 -2v-451h143q233 0 322 2v-141q-176 4 -322 4h-143v-514h198q240 0 322 2v-141q-80 2 -315 2h-371v37l4 297v706z" />
    <glyph glyph-name="Igrave" unicode="&#xcc;" horiz-adv-x="509" 
d="M338 1008v-680q0 -225 4 -328h-172q4 184 4 330v678q0 156 -4 368h172q-4 -110 -4 -368zM-6 1786h172q92 -174 160 -295h-129z" />
    <glyph glyph-name="Iacute" unicode="&#xcd;" horiz-adv-x="509" 
d="M336 1008v-680q0 -225 4 -328h-172q4 184 4 330v678q0 156 -4 368h172q-4 -110 -4 -368zM350 1786h170q-43 -59 -201 -295h-129z" />
    <glyph glyph-name="Icircumflex" unicode="&#xce;" horiz-adv-x="509" 
d="M336 1008v-680q0 -225 4 -328h-170q4 184 4 330v678q0 156 -4 368h170q-4 -110 -4 -368zM254 1677l-139 -190h-125l221 295h90l221 -295h-129z" />
    <glyph glyph-name="Idieresis" unicode="&#xcf;" horiz-adv-x="509" 
d="M336 1008v-680q0 -225 4 -328h-170q4 184 4 330v678q0 156 -4 368h170q-4 -110 -4 -368zM448 1548q-36 0 -64 27t-28 63t28 61t64 25t61.5 -25.5t25.5 -61.5t-25.5 -62.5t-61.5 -26.5zM-23 1637q0 36 27 61.5t61.5 25.5t62.5 -25.5t28 -61.5t-28 -62.5t-62.5 -26.5
t-61.5 26.5t-27 62.5z" />
    <glyph glyph-name="Eth" unicode="&#xd0;" horiz-adv-x="1398" 
d="M586 1376q313 0 512.5 -193.5t199.5 -492.5t-198 -493q-109 -106 -246 -151.5t-326 -45.5h-315q4 172 4 332v293h-188v125h188v247q0 174 -4 379h373zM381 135h192q256 0 405.5 158.5t149.5 398.5t-153.5 393.5t-403.5 153.5h-190v-489h321v-125h-321v-490z" />
    <glyph glyph-name="Ntilde" unicode="&#xd1;" horiz-adv-x="1458" 
d="M449 1528q0 78 39.5 135t107.5 57t141 -48q72 -48 101 -48q70 0 71 86h101q0 -78 -37 -135t-105 -57t-143 47q-76 47 -104 47q-64 0 -68 -84h-104zM322 285q0 -158 6 -285h-166q4 176 4 295v749q0 104 -4 347h98l873 -1092v733q0 205 -9 344h179q-10 -125 -11 -332v-761
q0 -195 2 -283h-104l-868 1096v-811z" />
    <glyph glyph-name="Ograve" unicode="&#xd2;" horiz-adv-x="1589" 
d="M794 -23q-296 0 -495 202t-199 505t200 507t495 204t494.5 -205t199.5 -505t-199.5 -504t-495.5 -204zM794 115q228 0 375.5 162.5t147.5 407.5t-148.5 407.5t-372.5 162.5t-375 -160.5t-151 -408.5t148 -409.5t376 -161.5zM535 1786h170q20 -41 75.5 -141.5t81.5 -153.5
h-127z" />
    <glyph glyph-name="Oacute" unicode="&#xd3;" horiz-adv-x="1589" 
d="M794 -23q-296 0 -495 202t-199 505t200 507t495 204t494.5 -205t199.5 -505t-199.5 -504t-495.5 -204zM794 115q228 0 375.5 162.5t147.5 407.5t-148.5 407.5t-372.5 162.5t-375 -160.5t-151 -408.5t148 -409.5t376 -161.5zM1055 1786q-159 -236 -201 -295h-127l158 295
h170z" />
    <glyph glyph-name="Ocircumflex" unicode="&#xd4;" horiz-adv-x="1589" 
d="M794 -23q-296 0 -495 202t-199 505t200 507t495 204t494.5 -205t199.5 -505t-199.5 -504t-495.5 -204zM794 115q228 0 375.5 162.5t147.5 407.5t-148.5 407.5t-372.5 162.5t-375 -160.5t-151 -408.5t148 -409.5t376 -161.5zM793 1677l-140 -190h-125l222 295h90l221 -295
h-129z" />
    <glyph glyph-name="Otilde" unicode="&#xd5;" horiz-adv-x="1589" 
d="M794 -23q-296 0 -495 202t-199 505t200 507t495 204t494.5 -205t199.5 -505t-199.5 -504t-495.5 -204zM794 115q228 0 375.5 162.5t147.5 407.5t-148.5 407.5t-372.5 162.5t-375 -160.5t-151 -408.5t148 -409.5t376 -161.5zM516 1528q0 78 40 135t108 57t141 -48
q72 -48 100 -48q70 0 72 86h100q0 -78 -36.5 -135t-104.5 -57t-143 47q-76 47 -105 47q-63 0 -67 -84h-105z" />
    <glyph glyph-name="Odieresis" unicode="&#xd6;" horiz-adv-x="1589" 
d="M794 -23q-296 0 -495 202t-199 505t200 507t495 204t494.5 -205t199.5 -505t-199.5 -504t-495.5 -204zM794 115q228 0 375.5 162.5t147.5 407.5t-148.5 407.5t-372.5 162.5t-375 -160.5t-151 -408.5t148 -409.5t376 -161.5zM986 1548q-36 0 -63.5 27t-27.5 63t27.5 61
t63.5 25t61.5 -25.5t25.5 -61.5t-25.5 -62.5t-61.5 -26.5zM516 1637q0 36 26.5 61.5t61.5 25.5t62.5 -25.5t27.5 -61.5t-27.5 -62.5t-62.5 -26.5t-61.5 26.5t-26.5 62.5z" />
    <glyph glyph-name="multiply" unicode="&#xd7;" horiz-adv-x="1099" 
d="M549 608l325 324q18 -14 93 -90l-326 -330l328 -324l-95 -92l-323 328l-326 -328l-94 94l328 324l-330 328l23 24q24 23 38.5 38.5t30.5 29.5z" />
    <glyph glyph-name="Oslash" unicode="&#xd8;" horiz-adv-x="1591" 
d="M797 1395q227 0 409 -138l121 140h160l-191 -213q195 -207 195 -503t-199.5 -500t-494.5 -204q-229 0 -418 134l-115 -134h-158l185 213q-189 197 -189 497t200 504t495 204zM1321 670q0 228 -125 389l-721 -830q145 -115 322 -114q227 0 375.5 163.5t148.5 391.5z
M272 704q0 -228 119 -391l721 832q-137 111 -315 110q-223 0 -374 -161.5t-151 -389.5z" />
    <glyph glyph-name="Ugrave" unicode="&#xd9;" horiz-adv-x="1370" 
d="M322 1036v-506q0 -201 100 -307t267 -106t263.5 109.5t96.5 308.5v501q0 256 -2 340h167q-2 -100 -2 -342v-508q0 -266 -142 -406t-387 -140t-384 145t-139 401v508q0 154 -4 342h172q-6 -92 -6 -340zM426 1786h170q20 -41 75.5 -141.5t82.5 -153.5h-127z" />
    <glyph glyph-name="Uacute" unicode="&#xda;" horiz-adv-x="1370" 
d="M322 1036v-506q0 -201 100 -307t267 -106t263.5 109.5t96.5 308.5v501q0 256 -2 340h167q-2 -100 -2 -342v-508q0 -266 -142 -406t-387 -140t-384 145t-139 401v508q0 154 -4 342h172q-6 -92 -6 -340zM745 1786h170l-200 -295h-127z" />
    <glyph glyph-name="Ucircumflex" unicode="&#xdb;" horiz-adv-x="1370" 
d="M322 1036v-506q0 -201 100 -307t267 -106t263.5 109.5t96.5 308.5v501q0 256 -2 340h167q-2 -100 -2 -342v-508q0 -266 -142 -406t-387 -140t-384 145t-139 401v508q0 154 -4 342h172q-6 -92 -6 -340zM684 1677l-139 -190h-125l221 295h90l221 -295h-129z" />
    <glyph glyph-name="Udieresis" unicode="&#xdc;" horiz-adv-x="1370" 
d="M322 1036v-506q0 -201 100 -307t267 -106t263.5 109.5t96.5 308.5v501q0 256 -2 340h167q-2 -100 -2 -342v-508q0 -266 -142 -406t-387 -140t-384 145t-139 401v508q0 154 -4 342h172q-6 -92 -6 -340zM878 1548q-36 0 -64 27t-28 63t28 61t64 25t61.5 -25.5t25.5 -61.5
t-25.5 -62.5t-61.5 -26.5zM408 1637q0 36 26.5 61.5t61 25.5t62.5 -25.5t28 -61.5t-28 -62.5t-62.5 -26.5t-61 26.5t-26.5 62.5z" />
    <glyph glyph-name="Yacute" unicode="&#xdd;" horiz-adv-x="1165" 
d="M578 1786h170q-43 -59 -201 -295h-129zM504 334v262l-318 520q-18 31 -82.5 131.5t-80.5 128.5h190q48 -98 188 -327.5t187 -309.5l262 443q27 45 111 194h184q-10 -16 -36 -55t-38 -59l-407 -668v-262q0 -144 4 -332h-168q4 172 4 334z" />
    <glyph glyph-name="Thorn" unicode="&#xde;" horiz-adv-x="1019" 
d="M330 258v-65q0 -135 2 -193h-180q4 168 4 297v750q0 162 -4 329h180q-2 -63 -2 -178v-51h119q203 0 340 -120t137 -325t-142.5 -324.5t-351.5 -119.5h-102zM330 387h106q133 0 227.5 88t94.5 226t-91.5 226.5t-228.5 88.5h-108v-629z" />
    <glyph glyph-name="germandbls" unicode="&#xdf;" horiz-adv-x="1140" 
d="M952 1079q0 -213 -209 -301q135 -37 221.5 -139t86.5 -248q0 -203 -104.5 -317.5t-305.5 -114.5q-76 0 -147 43v176q23 -25 69.5 -43t75.5 -18q111 0 182.5 68.5t71.5 208.5t-117 222t-266 89v116h29q109 0 183.5 76t74.5 177t-75.5 165t-183.5 64t-172.5 -71t-64.5 -214
l4 -967q0 -117 6 -209h-182q6 94 6 207l8 967q-4 205 99.5 323.5t306.5 110.5q186 0 294.5 -103.5t108.5 -267.5z" />
    <glyph glyph-name="agrave" unicode="&#xe0;" horiz-adv-x="942" 
d="M211 1374h170q27 -53 82 -153.5t76 -141.5h-127zM840 633v-334q0 -186 34 -299h-149l-10 111q-66 -63 -157 -97t-173 -34q-135 0 -222 82.5t-87 216.5q0 289 405 307q129 6 224 6v37q0 98 -71.5 156.5t-189.5 58.5t-245 -94l-60 122q143 94 325 94t279 -84.5t97 -248.5z
M215 281q0 -78 55.5 -128.5t129.5 -50.5t161.5 37t143.5 92v244l-201 -6q-289 -10 -289 -188z" />
    <glyph glyph-name="aacute" unicode="&#xe1;" horiz-adv-x="942" 
d="M532 1374h170l-200 -295h-127zM840 633v-334q0 -186 34 -299h-149l-10 111q-66 -63 -157 -97t-173 -34q-135 0 -222 82.5t-87 216.5q0 289 405 307q129 6 224 6v37q0 98 -71.5 156.5t-189.5 58.5t-245 -94l-60 122q143 94 325 94t279 -84.5t97 -248.5zM215 281
q0 -78 55.5 -128.5t129.5 -50.5t161.5 37t143.5 92v244l-201 -6q-289 -10 -289 -188z" />
    <glyph glyph-name="acircumflex" unicode="&#xe2;" horiz-adv-x="942" 
d="M426 1370h90q43 -57 121 -162.5t100 -134.5h-129l-139 191l-139 -191h-125zM840 633v-334q0 -186 34 -299h-149l-10 111q-66 -63 -157 -97t-173 -34q-135 0 -222 82.5t-87 216.5q0 289 405 307q129 6 224 6v37q0 98 -71.5 156.5t-189.5 58.5t-245 -94l-60 122
q143 94 325 94t279 -84.5t97 -248.5zM215 281q0 -78 55.5 -128.5t129.5 -50.5t161.5 37t143.5 92v244l-201 -6q-289 -10 -289 -188z" />
    <glyph glyph-name="atilde" unicode="&#xe3;" horiz-adv-x="942" 
d="M840 633v-334q0 -186 34 -299h-149l-10 111q-66 -63 -157 -97t-173 -34q-135 0 -222 82.5t-87 216.5q0 289 405 307q129 6 224 6v37q0 98 -71.5 156.5t-189.5 58.5t-245 -94l-60 122q143 94 325 94t279 -84.5t97 -248.5zM215 281q0 -78 55.5 -128.5t129.5 -50.5t161.5 37
t143.5 92v244l-201 -6q-289 -10 -289 -188zM190 1114q0 78 40 135.5t108 57.5t141 -48q72 -48 101 -49q70 0 71 86h101q0 -78 -37 -135t-105 -57t-143 47q-76 47 -105 47q-63 0 -67 -84h-105z" />
    <glyph glyph-name="adieresis" unicode="&#xe4;" horiz-adv-x="942" 
d="M663 1137q-36 0 -64 25.5t-28 61.5t28 61.5t64 25.5t61.5 -25.5t25.5 -61.5t-25.5 -61.5t-61.5 -25.5zM193 1224q0 36 26.5 61.5t61 25.5t62.5 -25.5t28 -61.5t-26.5 -61.5t-62.5 -25.5t-62.5 25.5t-26.5 61.5zM840 633v-334q0 -186 34 -299h-149l-10 111
q-66 -63 -157 -97t-173 -34q-135 0 -222 82.5t-87 216.5q0 289 405 307q129 6 224 6v37q0 98 -71.5 156.5t-189.5 58.5t-245 -94l-60 122q143 94 325 94t279 -84.5t97 -248.5zM215 281q0 -78 55.5 -128.5t129.5 -50.5t161.5 37t143.5 92v244l-201 -6q-289 -10 -289 -188z
" />
    <glyph glyph-name="aring" unicode="&#xe5;" horiz-adv-x="942" 
d="M279 1238q0 77 54 126t136 49t137.5 -49t55.5 -125t-54.5 -127t-136.5 -51t-137 50t-55 127zM377 1242q0 -42 23.5 -73.5t67.5 -31.5t69.5 27.5t25.5 72.5t-25.5 73.5t-66.5 28.5t-67.5 -27.5t-26.5 -69.5zM840 633v-334q0 -186 34 -299h-149l-10 111q-66 -63 -157 -97
t-173 -34q-135 0 -222 82.5t-87 216.5q0 289 405 307q129 6 224 6v37q0 98 -71.5 156.5t-189.5 58.5t-245 -94l-60 122q143 94 325 94t279 -84.5t97 -248.5zM215 281q0 -78 55.5 -128.5t129.5 -50.5t161.5 37t143.5 92v244l-201 -6q-289 -10 -289 -188z" />
    <glyph glyph-name="ae" unicode="&#xe6;" horiz-adv-x="1550" 
d="M1147 989q115 0 201 -39t155.5 -136t69.5 -265q0 -61 -2 -82h-727q8 -170 100 -262t249 -92t329 110v-133q-141 -104 -330 -104q-276 -1 -397 157h-9q-176 -164 -405 -163q-135 0 -220 81.5t-85 217.5q0 295 403 307l207 6v37q0 98 -64 156.5t-180 58.5t-243 -94l-60 122
q143 94 356 94t300 -151q129 174 352 174zM215 281q0 -78 55.5 -128.5t130.5 -50.5t166 40.5t148 103.5l2 6q-31 92 -31 223l-184 -6q-287 -10 -287 -188zM1154 854q-140 0 -217 -87t-91 -185h598q-4 125 -77 198.5t-213 73.5z" />
    <glyph glyph-name="ccedilla" unicode="&#xe7;" horiz-adv-x="1013" 
d="M78 474q0 206 143.5 344t372.5 138q168 0 297 -73v-154q-119 96 -287 96t-272.5 -100t-104.5 -259t102.5 -257t278.5 -98q88 0 166 32.5t117 69.5v-150q-82 -66 -242 -77l-45 -99q160 -20 160 -149q0 -78 -59 -124t-139 -46t-146 22l14 88q54 -26 102 -26t76.5 21.5
t28.5 60.5q0 84 -135 84q-25 0 -35 -2l74 170q-209 14 -338 148t-129 340z" />
    <glyph glyph-name="egrave" unicode="&#xe8;" horiz-adv-x="991" 
d="M938 576q0 -88 -2 -109h-727q8 -170 99 -262t247 -92t332 110v-133q-145 -104 -347 -104t-337 132t-135 360t117.5 369.5t326.5 141.5q152 0 251 -68.5t137 -162.5t38 -182zM519 854q-140 0 -217 -86t-91 -186h596q-4 125 -76 198.5t-212 73.5zM236 1374h170
q27 -53 82 -153.5t75 -141.5h-127z" />
    <glyph glyph-name="eacute" unicode="&#xe9;" horiz-adv-x="991" 
d="M938 576q0 -88 -2 -109h-727q8 -170 99 -262t247 -92t332 110v-133q-145 -104 -347 -104t-337 132t-135 360t117.5 369.5t326.5 141.5q152 0 251 -68.5t137 -162.5t38 -182zM519 854q-140 0 -217 -86t-91 -186h596q-4 125 -76 198.5t-212 73.5zM598 1374h170
q-158 -236 -201 -295h-127z" />
    <glyph glyph-name="ecircumflex" unicode="&#xea;" horiz-adv-x="991" 
d="M938 576q0 -88 -2 -109h-727q8 -170 99 -262t247 -92t332 110v-133q-145 -104 -347 -104t-337 132t-135 360t117.5 369.5t326.5 141.5q152 0 251 -68.5t137 -162.5t38 -182zM519 854q-140 0 -217 -86t-91 -186h596q-4 125 -76 198.5t-212 73.5zM451 1370h90l221 -297
h-129l-139 191l-140 -191h-125z" />
    <glyph glyph-name="edieresis" unicode="&#xeb;" horiz-adv-x="991" 
d="M938 576q0 -88 -2 -109h-727q8 -170 99 -262t247 -92t332 110v-133q-145 -104 -347 -104t-337 132t-135 360t117.5 369.5t326.5 141.5q152 0 251 -68.5t137 -162.5t38 -182zM519 854q-140 0 -217 -86t-91 -186h596q-4 125 -76 198.5t-212 73.5zM687 1137
q-36 0 -63.5 25.5t-27.5 61.5t27.5 61.5t63.5 25.5t61.5 -25.5t25.5 -61.5t-25.5 -61.5t-61.5 -25.5zM217 1224q0 36 26.5 61.5t61.5 25.5t62.5 -25.5t27.5 -61.5t-26.5 -61.5t-62.5 -25.5t-62.5 25.5t-26.5 61.5z" />
    <glyph glyph-name="igrave" unicode="&#xec;" horiz-adv-x="458" 
d="M311 709v-500q0 -147 6 -209h-170q6 68 7 209v645h-86q6 10 49 86h200q-6 -73 -6 -231zM-39 1374h172q8 -16 160 -295h-129z" />
    <glyph glyph-name="iacute" unicode="&#xed;" horiz-adv-x="458" 
d="M309 709v-500q0 -147 6 -209h-170q6 68 7 209v645h-86q6 10 49 86h200q-6 -73 -6 -231zM324 1374h170l-201 -295h-127z" />
    <glyph glyph-name="icircumflex" unicode="&#xee;" horiz-adv-x="458" 
d="M309 709v-500q0 -147 6 -209h-168q6 68 7 209v645h-88q13 20 51 86h198q-6 -73 -6 -231zM170 1370h90q43 -57 121 -162.5t100 -134.5h-129l-139 191l-139 -191h-125z" />
    <glyph glyph-name="idieresis" unicode="&#xef;" horiz-adv-x="458" 
d="M309 709v-500q0 -147 6 -209h-168q6 68 7 209v645h-88q16 25 51 86h198q-6 -73 -6 -231zM394 1137q-36 0 -63.5 25.5t-27.5 61.5t27.5 61.5t63.5 25.5t61.5 -25.5t25.5 -61.5t-25.5 -61.5t-61.5 -25.5zM-76 1224q0 36 26.5 61.5t61.5 25.5t62.5 -25.5t27.5 -61.5
t-26.5 -61.5t-62.5 -25.5t-62.5 25.5t-26.5 61.5z" />
    <glyph glyph-name="eth" unicode="&#xf0;" horiz-adv-x="1128" 
d="M1016 571q0 -268 -130 -427.5t-336 -159.5t-338 137t-132 344t129 345t321 138q100 0 187.5 -45t134.5 -125l10 4q-43 266 -244 418l-227 -147l-51 73l190 125q-133 74 -307 99l15 129q248 -33 421 -146l213 131l46 -82l-183 -110q281 -252 281 -701zM548 117
q134 0 218 104.5t84 255.5t-83 244.5t-217 93.5t-220 -98.5t-86 -250.5t85 -250.5t219 -98.5z" />
    <glyph glyph-name="ntilde" unicode="&#xf1;" horiz-adv-x="1134" 
d="M141 858h-88q27 39 51 86h181q4 -35 14 -145q137 162 342 162q362 0 363 -418v-320q0 -158 4 -223h-166q2 86 2 233v345q0 127 -69 187t-173 60t-184 -56t-119 -148v-388q0 -160 2 -233h-164q4 147 4 233v625zM287 1114q0 78 40 135.5t108 57.5t140 -48t101 -49
q70 0 72 86h100q0 -78 -37 -135t-105 -57t-143 47q-76 47 -104 47q-64 0 -68 -84h-104z" />
    <glyph glyph-name="ograve" unicode="&#xf2;" 
d="M80 470q0 206 135 348.5t331 142.5t330 -143.5t134 -348.5t-133.5 -345t-332 -140t-331.5 140t-133 346zM544 825q-134 0 -219 -111.5t-85 -253.5t86 -243.5t221 -101.5t219 101t84 255t-86 254t-220 100zM287 1374h170q27 -53 82 -153.5t75 -141.5h-127z" />
    <glyph glyph-name="oacute" unicode="&#xf3;" 
d="M80 470q0 206 135 348.5t331 142.5t330 -143.5t134 -348.5t-133.5 -345t-332 -140t-331.5 140t-133 346zM544 825q-134 0 -219 -111.5t-85 -253.5t86 -243.5t221 -101.5t219 101t84 255t-86 254t-220 100zM627 1374h170q-158 -236 -201 -295h-127z" />
    <glyph glyph-name="ocircumflex" unicode="&#xf4;" 
d="M80 470q0 206 135 348.5t331 142.5t330 -143.5t134 -348.5t-133.5 -345t-332 -140t-331.5 140t-133 346zM544 825q-134 0 -219 -111.5t-85 -253.5t86 -243.5t221 -101.5t219 101t84 255t-86 254t-220 100zM502 1370h90q43 -57 121 -162.5t100 -134.5h-129l-139 191
l-139 -191h-125z" />
    <glyph glyph-name="otilde" unicode="&#xf5;" 
d="M80 470q0 206 135 348.5t331 142.5t330 -143.5t134 -348.5t-133.5 -345t-332 -140t-331.5 140t-133 346zM544 825q-134 0 -219 -111.5t-85 -253.5t86 -243.5t221 -101.5t219 101t84 255t-86 254t-220 100zM266 1114q0 78 40 135.5t108 57.5t141 -48q72 -48 100 -49
q70 0 72 86h100q0 -78 -36.5 -135t-104.5 -57t-143 47q-76 47 -105 47q-63 0 -67 -84h-105z" />
    <glyph glyph-name="odieresis" unicode="&#xf6;" 
d="M80 470q0 206 135 348.5t331 142.5t330 -143.5t134 -348.5t-133.5 -345t-332 -140t-331.5 140t-133 346zM544 825q-134 0 -219 -111.5t-85 -253.5t86 -243.5t221 -101.5t219 101t84 255t-86 254t-220 100zM738 1137q-36 0 -63.5 25.5t-27.5 61.5t27.5 61.5t63.5 25.5
t61.5 -25.5t25.5 -61.5t-25.5 -61.5t-61.5 -25.5zM268 1224q0 36 27 61.5t61.5 25.5t62 -25.5t27.5 -61.5t-26.5 -61.5t-62.5 -25.5t-62.5 25.5t-26.5 61.5z" />
    <glyph glyph-name="divide" unicode="&#xf7;" horiz-adv-x="1075" 
d="M102 580h869v-129h-869v129zM538 918q40 0 68.5 -29t28.5 -70t-28.5 -69.5t-68.5 -28.5t-68 28.5t-28 69.5t28 70t68 29zM538 309q40 0 68.5 -28.5t28.5 -68.5t-28.5 -69.5t-68.5 -29.5t-68 28.5t-28 69.5t28 69.5t68 28.5z" />
    <glyph glyph-name="oslash" unicode="&#xf8;" 
d="M1010 465q0 -199 -132.5 -340t-332.5 -141q-158 0 -281 92l-82 -99h-106l133 154q-129 141 -129 343t135 344.5t330 142.5q156 0 282 -99l88 99h107l-137 -154q125 -143 125 -342zM240 478q0 -144 63 -232l434 506q-81 76 -203 76t-208 -103t-86 -247zM852 454
q0 136 -61 236l-435 -506q88 -72 189 -71q135 0 221 102.5t86 238.5z" />
    <glyph glyph-name="ugrave" unicode="&#xf9;" horiz-adv-x="1060" 
d="M272 1374h170q27 -53 82.5 -153.5t75.5 -141.5h-127zM297 562q0 -252 43 -349.5t184 -97.5q92 0 153.5 58t80.5 149v383q0 164 -2 239h166q-4 -70 -4 -231v-518q0 -127 20 -195h-141l-31 125q-84 -141 -277 -141q-156 0 -254 95t-98 316v463h-84l51 86h195
q-2 -130 -2 -382z" />
    <glyph glyph-name="uacute" unicode="&#xfa;" horiz-adv-x="1060" 
d="M526 1374h170l-200 -295h-129zM297 562q0 -252 43 -349.5t184 -97.5q92 0 153.5 58t80.5 149v383q0 164 -2 239h166q-4 -70 -4 -231v-518q0 -127 20 -195h-141l-31 125q-84 -141 -277 -141q-156 0 -254 95t-98 316v463h-84l51 86h195q-2 -130 -2 -382z" />
    <glyph glyph-name="ucircumflex" unicode="&#xfb;" horiz-adv-x="1060" 
d="M487 1370h91q43 -57 120.5 -162.5t100.5 -134.5h-129l-140 191l-137 -191h-127zM297 562q0 -252 43 -349.5t184 -97.5q92 0 153.5 58t80.5 149v383q0 164 -2 239h166q-4 -70 -4 -231v-518q0 -127 20 -195h-141l-31 125q-84 -141 -277 -141q-156 0 -254 95t-98 316v463
h-84l51 86h195q-2 -130 -2 -382z" />
    <glyph glyph-name="udieresis" unicode="&#xfc;" horiz-adv-x="1060" 
d="M724 1137q-36 0 -62.5 25.5t-26.5 61.5t26.5 61.5t62.5 25.5t61.5 -25.5t25.5 -61.5t-25.5 -61.5t-61.5 -25.5zM254 1224q0 36 26.5 61.5t62.5 25.5t62.5 -25.5t26.5 -61.5t-26.5 -61.5t-62.5 -25.5t-62.5 25.5t-26.5 61.5zM297 562q0 -252 43 -349.5t184 -97.5
q92 0 153.5 58t80.5 149v383q0 164 -2 239h166q-4 -70 -4 -231v-518q0 -127 20 -195h-141l-31 125q-84 -141 -277 -141q-156 0 -254 95t-98 316v463h-84l51 86h195q-2 -130 -2 -382z" />
    <glyph glyph-name="yacute" unicode="&#xfd;" horiz-adv-x="964" 
d="M647 1374q-42 -59 -201 -295h-129l160 295h170zM201 -279q74 0 151 179l58 133q-66 152 -197 456t-197 455h181l288 -747l222 548q37 92 69 199h172q-334 -797 -442 -1018l-43 -90q-100 -227 -266 -227h-125q2 8 47 112h82z" />
    <glyph glyph-name="thorn" unicode="&#xfe;" horiz-adv-x="1112" 
d="M131 1278q0 125 -2 197h170v-613q123 111 303 111t304 -143.5t124 -351.5t-126 -356.5t-311 -148.5t-294 109v-375q0 -156 2 -213h-172l2 209v1575zM541 96q147 0 236 110.5t89 269.5t-91 263.5t-226 104.5q-53 0 -128 -25.5t-122 -58.5v-561q47 -37 120 -70t122 -33z
" />
    <glyph glyph-name="ydieresis" unicode="&#xff;" horiz-adv-x="964" 
d="M675 1137q-36 0 -63.5 25.5t-27.5 61.5t27.5 61.5t63.5 25.5t61.5 -25.5t25.5 -61.5t-25.5 -61.5t-61.5 -25.5zM205 1224q0 36 26.5 61.5t61.5 25.5t62.5 -25.5t27.5 -61.5t-26.5 -61.5t-62.5 -25.5t-62.5 25.5t-26.5 61.5zM201 -279q74 0 151 179l58 133
q-66 152 -197 456t-197 455h181l288 -747l222 548q37 92 69 199h172q-334 -797 -442 -1018l-43 -90q-100 -227 -266 -227h-125q2 8 47 112h82z" />
    <glyph glyph-name="Amacron" unicode="&#x100;" horiz-adv-x="1275" 
d="M385 1686h506v-117h-506v117zM1260 0h-193q-8 25 -168 418h-541q-147 -373 -161 -418h-179q63 135 142 334l430 1057h84l461 -1119q43 -102 125 -272zM848 549l-219 577l-221 -577h440z" />
    <glyph glyph-name="amacron" unicode="&#x101;" horiz-adv-x="942" 
d="M217 1272h506v-117h-506v117zM840 633v-334q0 -186 34 -299h-149l-10 111q-66 -63 -157 -97t-173 -34q-135 0 -222 82.5t-87 216.5q0 289 405 307q129 6 224 6v37q0 98 -71.5 156.5t-189.5 58.5t-245 -94l-60 122q143 94 325 94t279 -84.5t97 -248.5zM215 281
q0 -78 55.5 -128.5t129.5 -50.5t161.5 37t143.5 92v244l-201 -6q-289 -10 -289 -188z" />
    <glyph glyph-name="Abreve" unicode="&#x102;" horiz-adv-x="1275" 
d="M639 1606q59 0 99 37.5t48 97.5h107q-6 -104 -77 -172t-177.5 -68t-177 68t-76.5 172h109q6 -63 46 -99t99 -36zM1260 0h-193q-8 25 -168 418h-541q-147 -373 -161 -418h-179q63 135 142 334l430 1057h84l461 -1119q43 -102 125 -272zM848 549l-219 577l-221 -577h440z
" />
    <glyph glyph-name="abreve" unicode="&#x103;" horiz-adv-x="942" 
d="M470 1192q60 0 100 38t48 99h107q-6 -106 -76.5 -172.5t-177 -66.5t-177.5 66.5t-77 172.5h109q6 -63 45 -100t99 -37zM840 633v-334q0 -186 34 -299h-149l-10 111q-66 -63 -157 -97t-173 -34q-135 0 -222 82.5t-87 216.5q0 289 405 307q129 6 224 6v37q0 98 -71.5 156.5
t-189.5 58.5t-245 -94l-60 122q143 94 325 94t279 -84.5t97 -248.5zM215 281q0 -78 55.5 -128.5t129.5 -50.5t161.5 37t143.5 92v244l-201 -6q-289 -10 -289 -188z" />
    <glyph glyph-name="Aogonek" unicode="&#x104;" horiz-adv-x="1275" 
d="M887 -309q0 147 241 309h-61q-8 25 -168 418h-541q-147 -373 -161 -418h-179q63 135 142 334l430 1057h84l461 -1119q43 -102 125 -272q-233 -143 -234 -274q0 -47 27.5 -75t76.5 -28t97 31l10 -98q-70 -35 -157 -35t-140 47t-53 123zM848 549l-219 577l-221 -577h440z
" />
    <glyph glyph-name="aogonek" unicode="&#x105;" horiz-adv-x="942" 
d="M840 633v-334q0 -186 34 -299q-252 -133 -251 -274q0 -47 27.5 -75t77.5 -28t95 31l11 -98q-70 -35 -157 -35t-140.5 47t-53.5 123q0 147 242 309l-10 111q-66 -63 -157 -97t-173 -34q-135 0 -222 82.5t-87 216.5q0 289 405 307q129 6 224 6v37q0 98 -71.5 156.5
t-189.5 58.5t-245 -94l-60 122q143 94 325 94t279 -84.5t97 -248.5zM215 281q0 -78 55.5 -128.5t129.5 -50.5t161.5 37t143.5 92v244l-201 -6q-289 -10 -289 -188z" />
    <glyph glyph-name="Cacute" unicode="&#x106;" horiz-adv-x="1263" 
d="M897 1786h170l-201 -295h-129zM819 117q201 0 350 96v-164q-168 -70 -366 -69q-305 0 -504 197.5t-199 498.5t203 510t514 209q172 0 350 -66v-168q-143 92 -342 92q-244 0 -399.5 -162.5t-155.5 -405.5t154.5 -405.5t394.5 -162.5z" />
    <glyph glyph-name="cacute" unicode="&#x107;" horiz-adv-x="1013" 
d="M78 469q0 211 143.5 349t372.5 138q168 0 297 -73v-154q-119 96 -287 96t-272.5 -100t-104.5 -259t102.5 -257t278.5 -98q88 0 166 32.5t117 69.5v-150q-102 -79 -313 -79t-355.5 137t-144.5 348zM860 1374q-42 -59 -201 -295h-129l160 295h170z" />
    <glyph glyph-name="Ccircumflex" unicode="&#x108;" horiz-adv-x="1263" 
d="M774 1782h90q33 -43 70 -92.5t82 -109.5t69 -93h-131l-137 190l-139 -190h-125zM819 117q201 0 350 96v-164q-168 -70 -366 -69q-305 0 -504 197.5t-199 498.5t203 510t514 209q172 0 350 -66v-168q-143 92 -342 92q-244 0 -399.5 -162.5t-155.5 -405.5t154.5 -405.5
t394.5 -162.5z" />
    <glyph glyph-name="ccircumflex" unicode="&#x109;" horiz-adv-x="1013" 
d="M78 469q0 211 143.5 349t372.5 138q168 0 297 -73v-154q-119 96 -287 96t-272.5 -100t-104.5 -259t102.5 -257t278.5 -98q88 0 166 32.5t117 69.5v-150q-102 -79 -313 -79t-355.5 137t-144.5 348zM545 1370h92q23 -29 100.5 -134.5t120.5 -162.5h-131l-139 191l-137 -191
h-127z" />
    <glyph glyph-name="Cdotaccent" unicode="&#x10a;" horiz-adv-x="1263" 
d="M715 1658q0 44 29.5 69.5t71.5 25.5t70.5 -25.5t28.5 -68.5t-27.5 -69.5t-70.5 -26.5t-72.5 25.5t-29.5 69.5zM819 117q201 0 350 96v-164q-168 -70 -366 -69q-305 0 -504 197.5t-199 498.5t203 510t514 209q172 0 350 -66v-168q-143 92 -342 92q-244 0 -399.5 -162.5
t-155.5 -405.5t154.5 -405.5t394.5 -162.5z" />
    <glyph glyph-name="cdotaccent" unicode="&#x10b;" horiz-adv-x="1013" 
d="M78 469q0 211 143.5 349t372.5 138q168 0 297 -73v-154q-119 96 -287 96t-272.5 -100t-104.5 -259t102.5 -257t278.5 -98q88 0 166 32.5t117 69.5v-150q-102 -79 -313 -79t-355.5 137t-144.5 348zM492 1244q0 44 28.5 70.5t71.5 26.5t71.5 -26.5t28.5 -69.5t-28.5 -69.5
t-71.5 -26.5t-71.5 25.5t-28.5 69.5z" />
    <glyph glyph-name="Ccaron" unicode="&#x10c;" horiz-adv-x="1263" 
d="M543 1774h129l139 -189l137 189h127l-221 -295h-90zM819 117q201 0 350 96v-164q-168 -70 -366 -69q-305 0 -504 197.5t-199 498.5t203 510t514 209q172 0 350 -66v-168q-143 92 -342 92q-244 0 -399.5 -162.5t-155.5 -405.5t154.5 -405.5t394.5 -162.5z" />
    <glyph glyph-name="ccaron" unicode="&#x10d;" horiz-adv-x="1013" 
d="M78 469q0 211 143.5 349t372.5 138q168 0 297 -73v-154q-119 96 -287 96t-272.5 -100t-104.5 -259t102.5 -257t278.5 -98q88 0 166 32.5t117 69.5v-150q-102 -79 -313 -79t-355.5 137t-144.5 348zM324 1362h131l137 -191q55 72 139 191h127l-221 -297h-92z" />
    <glyph glyph-name="Dcaron" unicode="&#x10e;" horiz-adv-x="1349" 
d="M526 0h-364q4 205 4 383v676q0 154 -4 317h370q309 0 511 -190.5t202 -494.5t-204 -497.5t-515 -193.5zM328 135h192q252 0 404.5 156.5t152.5 400.5t-156.5 395.5t-402.5 151.5h-190v-1104zM313 1774h131l138 -189q25 33 139 189h127q-96 -125 -221 -295h-92z" />
    <glyph glyph-name="dcaron" unicode="&#x10f;" horiz-adv-x="1116" 
d="M1077 1118l43 357h148l-74 -357h-117zM555 -14q-231 0 -355 134t-124 345t129 353.5t350 142.5q143 0 270 -84v479h-110l53 86h221l-14 -178v-1239l-146 -37v139q-47 -63 -120.5 -102t-153.5 -39zM551 104q137 0 274 123v512q-143 102 -264 103q-168 0 -252 -103.5
t-84 -278.5t94.5 -265.5t231.5 -90.5z" />
    <glyph glyph-name="Dcroat" unicode="&#x110;" horiz-adv-x="1398" 
d="M586 1376q190 0 351 -79.5t261 -238.5t100 -366q0 -315 -216 -503.5t-554 -188.5h-315q4 172 4 332v293h-188v125h188v247q0 174 -4 379h373zM381 135h192q242 0 398.5 154.5t156.5 401.5t-154.5 397.5t-402.5 150.5h-190v-489h321v-125h-321v-490z" />
    <glyph glyph-name="dcroat" unicode="&#x111;" horiz-adv-x="1114" 
d="M561 1272h270v90h-110l53 86h221l-14 -176h86v-117h-86v-1124l-145 -37v139q-45 -61 -124 -101t-151 -40q-231 0 -355 134t-124 345t129 353.5t350 142.5q143 0 270 -84v272h-270v117zM557 111q137 0 274 122v512q-143 102 -264 103q-168 0 -252 -103.5t-84 -278.5
t94.5 -265t231.5 -90z" />
    <glyph glyph-name="Emacron" unicode="&#x112;" horiz-adv-x="962" 
d="M227 1686h506v-117h-506v117zM168 1040q0 143 -4 336h311q254 0 361 4l-25 -145q-101 4 -281 4t-200 -2v-451h143q233 0 322 2v-141q-176 4 -322 4h-143v-514h198q240 0 322 2v-141q-80 2 -315 2h-371v37l4 297v706z" />
    <glyph glyph-name="emacron" unicode="&#x113;" horiz-adv-x="991" 
d="M938 576q0 -88 -2 -109h-727q8 -170 99 -262t247 -92t332 110v-133q-145 -104 -347 -104t-337 132t-135 360t117.5 369.5t326.5 141.5q152 0 251 -68.5t137 -162.5t38 -182zM519 854q-140 0 -217 -86t-91 -186h596q-4 125 -76 198.5t-212 73.5zM242 1272h506v-117h-506
v117z" />
    <glyph glyph-name="Ebreve" unicode="&#x114;" horiz-adv-x="962" 
d="M481.5 1606q59.5 0 98 37.5t49.5 97.5h106q-6 -104 -77.5 -172t-177.5 -68t-176.5 68t-76.5 172h109q6 -63 46 -99t99.5 -36zM168 1040q0 143 -4 336h311q254 0 361 4l-25 -145q-101 4 -281 4t-200 -2v-451h143q233 0 322 2v-141q-176 4 -322 4h-143v-514h198
q240 0 322 2v-141q-80 2 -315 2h-371v37l4 297v706z" />
    <glyph glyph-name="ebreve" unicode="&#x115;" horiz-adv-x="991" 
d="M938 576q0 -88 -2 -109h-727q8 -170 99 -262t247 -92t332 110v-133q-145 -104 -347 -104t-337 132t-135 360t117.5 369.5t326.5 141.5q152 0 251 -68.5t137 -162.5t38 -182zM519 854q-140 0 -217 -86t-91 -186h596q-4 125 -76 198.5t-212 73.5zM494 1192q60 0 100.5 38
t48.5 99h107q-6 -106 -77 -172.5t-177.5 -66.5t-177 66.5t-76.5 172.5h108q6 -63 45 -100t99 -37z" />
    <glyph glyph-name="Edotaccent" unicode="&#x116;" horiz-adv-x="962" 
d="M379 1658q0 44 29.5 69.5t71.5 25.5t71 -25.5t29 -68.5t-28 -69.5t-71 -26.5t-72.5 25.5t-29.5 69.5zM168 1040q0 143 -4 336h311q254 0 361 4l-25 -145q-101 4 -281 4t-200 -2v-451h143q233 0 322 2v-141q-176 4 -322 4h-143v-514h198q240 0 322 2v-141q-80 2 -315 2
h-371v37l4 297v706z" />
    <glyph glyph-name="edotaccent" unicode="&#x117;" horiz-adv-x="991" 
d="M938 576q0 -88 -2 -109h-727q8 -170 99 -262t247 -92t332 110v-133q-145 -104 -347 -104t-337 132t-135 360t117.5 369.5t326.5 141.5q152 0 251 -68.5t137 -162.5t38 -182zM519 854q-140 0 -217 -86t-91 -186h596q-4 125 -76 198.5t-212 73.5zM395 1244q0 44 29 70.5
t71 26.5t70.5 -26.5t28.5 -69.5t-27.5 -69.5t-70.5 -26.5t-72 25.5t-29 69.5z" />
    <glyph glyph-name="Eogonek" unicode="&#x118;" horiz-adv-x="962" 
d="M850 -2q-236 -151 -236 -263t106 -112q50 0 95 31l10 -98q-71 -35 -157 -35t-139.5 47t-53.5 123q0 147 242 309h-553v37l4 297v706q0 143 -4 336h311q254 0 361 4l-25 -145q-101 4 -281 4t-200 -2v-451h143q233 0 322 2v-141q-176 4 -322 4h-143v-514h198q240 0 322 2
v-141z" />
    <glyph glyph-name="eogonek" unicode="&#x119;" horiz-adv-x="991" 
d="M512 -205q0 88 106 195q-41 -4 -63 -4q-217 0 -352 132t-135 360t117.5 369.5t326.5 141.5q152 0 251 -68.5t137 -162.5t38 -182t-2 -109h-727q8 -170 99 -262t247 -92t332 110v-133q-6 -4 -69.5 -46t-86 -62.5t-51.5 -66.5t-29 -95t28 -76t76 -27t95 29q8 -72 12 -96
q-72 -37 -159 -37t-139 47t-52 135zM519 854q-140 0 -217 -86t-91 -186h596q-4 125 -76 198.5t-212 73.5z" />
    <glyph glyph-name="Ecaron" unicode="&#x11a;" horiz-adv-x="962" 
d="M256 1774h129l139 -189q115 156 140 189h124l-221 -295h-90zM168 1040q0 143 -4 336h311q254 0 361 4l-25 -145q-101 4 -281 4t-200 -2v-451h143q233 0 322 2v-141q-176 4 -322 4h-143v-514h198q240 0 322 2v-141q-80 2 -315 2h-371v37l4 297v706z" />
    <glyph glyph-name="ecaron" unicode="&#x11b;" horiz-adv-x="991" 
d="M938 576q0 -88 -2 -109h-727q8 -170 99 -262t247 -92t332 110v-133q-145 -104 -347 -104t-337 132t-135 360t117.5 369.5t326.5 141.5q152 0 251 -68.5t137 -162.5t38 -182zM519 854q-140 0 -217 -86t-91 -186h596q-4 125 -76 198.5t-212 73.5zM250 1362h129l139 -191
l139 191h125l-221 -297h-90z" />
    <glyph glyph-name="Gcircumflex" unicode="&#x11c;" horiz-adv-x="1386" 
d="M817 1677l-139 -190h-125l219 295h92q35 -45 109 -144.5t112 -150.5h-131zM817 -23q-313 0 -515 192.5t-202 502.5t200 516.5t531 206.5q190 0 365 -68v-166q-145 92 -356 92q-254 0 -412 -156.5t-158 -404.5t149.5 -412.5t405.5 -164.5q158 0 250 49v215q0 174 -4 262
h166q-4 -140 -4 -408l-2 -174q-201 -82 -414 -82z" />
    <glyph glyph-name="gcircumflex" unicode="&#x11d;" horiz-adv-x="999" 
d="M455 1370h90q43 -57 120.5 -162.5t100.5 -134.5h-129l-139 191l-140 -191h-125zM469 -467q-215 0 -317 33l36 121q98 -23 260 -23t241 75t79 216v133q-116 -102 -300 -102t-307.5 125t-123.5 346t126 364.5t318 143.5q76 0 159 -35t128 -90v104h180l-37 -147
q0 -399 9 -795q0 -221 -118 -345t-333 -124zM504 850q-137 0 -224 -113.5t-87 -282.5t83.5 -262.5t219.5 -93.5t272 97v538q-86 117 -264 117z" />
    <glyph glyph-name="Gbreve" unicode="&#x11e;" horiz-adv-x="1386" 
d="M836 1606q60 0 99.5 37.5t47.5 97.5h109q-6 -104 -78 -172t-177 -68t-176 68t-77 172h108q6 -63 45 -99t99 -36zM817 -23q-313 0 -515 192.5t-202 502.5t200 516.5t531 206.5q190 0 365 -68v-166q-145 92 -356 92q-254 0 -412 -156.5t-158 -404.5t149.5 -412.5
t405.5 -164.5q158 0 250 49v215q0 174 -4 262h166q-4 -140 -4 -408l-2 -174q-201 -82 -414 -82z" />
    <glyph glyph-name="gbreve" unicode="&#x11f;" horiz-adv-x="999" 
d="M498 1192q60 0 100.5 38t48.5 99h107q-6 -106 -77 -172.5t-177.5 -66.5t-177 66.5t-76.5 172.5h108q6 -63 45 -100t99 -37zM469 -467q-215 0 -317 33l36 121q98 -23 260 -23t241 75t79 216v133q-116 -102 -300 -102t-307.5 125t-123.5 346t126 364.5t318 143.5
q76 0 159 -35t128 -90v104h180l-37 -147q0 -399 9 -795q0 -221 -118 -345t-333 -124zM504 850q-137 0 -224 -113.5t-87 -282.5t83.5 -262.5t219.5 -93.5t272 97v538q-86 117 -264 117z" />
    <glyph glyph-name="Gdotaccent" unicode="&#x120;" horiz-adv-x="1386" 
d="M733 1658q0 44 29 69.5t72 25.5t71.5 -25.5t28.5 -68.5t-27.5 -69.5t-71.5 -26.5t-73 25.5t-29 69.5zM817 -23q-313 0 -515 192.5t-202 502.5t200 516.5t531 206.5q190 0 365 -68v-166q-145 92 -356 92q-254 0 -412 -156.5t-158 -404.5t149.5 -412.5t405.5 -164.5
q158 0 250 49v215q0 174 -4 262h166q-4 -140 -4 -408l-2 -174q-201 -82 -414 -82z" />
    <glyph glyph-name="gdotaccent" unicode="&#x121;" horiz-adv-x="999" 
d="M399 1244q0 44 29 70.5t71 26.5t70.5 -26.5t28.5 -69.5t-27.5 -69.5t-70.5 -26.5t-72 25.5t-29 69.5zM469 -467q-215 0 -317 33l36 121q98 -23 260 -23t241 75t79 216v133q-116 -102 -300 -102t-307.5 125t-123.5 346t126 364.5t318 143.5q76 0 159 -35t128 -90v104h180
l-37 -147q0 -399 9 -795q0 -221 -118 -345t-333 -124zM504 850q-137 0 -224 -113.5t-87 -282.5t83.5 -262.5t219.5 -93.5t272 97v538q-86 117 -264 117z" />
    <glyph glyph-name="uni0122" unicode="&#x122;" horiz-adv-x="1386" 
d="M737 -256q0 78 -10 131q18 4 162 33q14 -51 14 -125q0 -215 -170 -395l-88 45q92 154 92 311zM817 -23q-313 0 -515 192.5t-202 502.5t200 516.5t531 206.5q190 0 365 -68v-166q-145 92 -356 92q-254 0 -412 -156.5t-158 -404.5t149.5 -412.5t405.5 -164.5q158 0 250 49
v215q0 174 -4 262h166q-4 -140 -4 -408l-2 -174q-201 -82 -414 -82z" />
    <glyph glyph-name="uni0123" unicode="&#x123;" horiz-adv-x="999" 
d="M559 1233q0 -78 10 -131q-18 -4 -161 -33q-14 51 -15 125q0 215 170 395l88 -45q-92 -154 -92 -311zM469 -467q-215 0 -317 33l36 121q98 -23 260 -23t241 75t79 216v133q-116 -102 -300 -102t-307.5 125t-123.5 346t126 364.5t318 143.5q76 0 159 -35t128 -90v104h180
l-37 -147q0 -399 9 -795q0 -221 -118 -345t-333 -124zM504 850q-137 0 -224 -113.5t-87 -282.5t83.5 -262.5t219.5 -93.5t272 97v538q-86 117 -264 117z" />
    <glyph glyph-name="Hcircumflex" unicode="&#x124;" horiz-adv-x="1413" 
d="M705 1677l-140 -190h-125l222 295h90l221 -295h-129zM1085 788v261q0 168 -4 327h168q-4 -119 -4 -350v-770q0 -109 4 -256h-168q4 160 4 297v358h-757v-358q0 -209 4 -297h-170q4 168 4 313v713q0 178 -4 350h170q-4 -137 -4 -473v-115h757z" />
    <glyph glyph-name="hcircumflex" unicode="&#x125;" horiz-adv-x="1136" 
d="M510 1841h90q43 -57 121 -162.5t100 -134.5h-129l-139 191l-139 -191h-125zM303 1270v-471q137 162 327 162t288 -111t98 -309v-346q0 -141 4 -195h-168q4 133 4 330v248q0 256 -264 256q-86 0 -168 -59.5t-121 -153.5v-433q0 -86 4 -188h-166q4 106 4 193v1198h-79
l49 86h194q-6 -47 -6 -207z" />
    <glyph glyph-name="Hbar" unicode="&#x126;" horiz-adv-x="1423" 
d="M1253 1098h121v-117h-121v-692q0 -147 7 -289h-181q4 152 4 297v330h-753v-330q0 -121 4 -297h-178q4 172 4 291v690h-123v117h123v123l-4 155h178l-4 -155v-123h753v104l-4 174h181q-6 -129 -7 -155v-123zM1083 981h-753v-221h753v221z" />
    <glyph glyph-name="hbar" unicode="&#x127;" horiz-adv-x="1044" 
d="M299 1264v-27h342v-117h-342v-327q137 162 342 161q176 0 273.5 -110.5t97.5 -308.5v-347q0 -141 4 -194h-168q4 133 4 330v247q0 256 -264 256q-86 0 -168 -59t-121 -154v-432q0 -86 4 -188h-166q4 106 4 192v934h-100v117h100v147h-80l50 86h194q-6 -47 -6 -206z" />
    <glyph glyph-name="Itilde" unicode="&#x128;" horiz-adv-x="509" 
d="M336 1008v-680q0 -225 4 -328h-170q4 184 4 330v678q0 156 -4 368h170q-4 -110 -4 -368zM-25 1528q0 78 40.5 135t108.5 57t140 -48t101 -48q70 0 71 86h101q0 -78 -36.5 -135t-104.5 -57t-144 47t-105 47q-63 0 -67 -84h-105z" />
    <glyph glyph-name="itilde" unicode="&#x129;" horiz-adv-x="458" 
d="M154 209v526q0 147 -7 209h168q-6 -68 -6 -209v-526q0 -147 6 -209h-168q7 68 7 209zM-51 1114q0 78 40 135.5t108 57.5q69 0 141 -48t100 -49q70 0 72 86h100q0 -78 -37 -135t-105 -57t-143 47q-76 47 -104 47q-64 0 -68 -84h-104z" />
    <glyph glyph-name="Imacron" unicode="&#x12a;" horiz-adv-x="509" 
d="M336 1008v-680q0 -225 4 -328h-170q4 184 4 330v678q0 156 -4 368h170q-4 -110 -4 -368zM2 1686h506v-117h-506v117z" />
    <glyph glyph-name="imacron" unicode="&#x12b;" horiz-adv-x="458" 
d="M-23 1272h506v-117h-506v117zM154 209v526q0 147 -7 209h168q-6 -68 -6 -209v-526q0 -147 6 -209h-168q7 68 7 209z" />
    <glyph glyph-name="Ibreve" unicode="&#x12c;" horiz-adv-x="509" 
d="M336 1008v-680q0 -225 4 -328h-170q4 184 4 330v678q0 156 -4 368h170q-4 -110 -4 -368zM256 1606q59 0 99 37.5t48 97.5h107q-6 -104 -77 -172t-177 -68t-177 68t-77 172h109q6 -63 46 -99t99 -36z" />
    <glyph glyph-name="ibreve" unicode="&#x12d;" horiz-adv-x="458" 
d="M218 1192q60 0 100 38t49 99h106q-6 -106 -76.5 -172.5t-177 -66.5t-177.5 66.5t-77 172.5h109q6 -63 45 -100t99 -37zM154 209v526q0 147 -7 209h168q-6 -68 -6 -209v-526q0 -147 6 -209h-168q7 68 7 209z" />
    <glyph glyph-name="Iogonek" unicode="&#x12e;" horiz-adv-x="509" 
d="M342 0q-236 -148 -236 -263q0 -114 106 -114q50 0 95 31l10 -98q-71 -35 -157 -35t-139.5 47t-53.5 123q0 147 242 309h-39q4 184 4 330v678q0 156 -4 368h172q-4 -111 -4 -368v-680q0 -225 4 -328z" />
    <glyph glyph-name="iogonek" unicode="&#x12f;" horiz-adv-x="458" 
d="M154 209v526q0 147 -7 209h168q-6 -68 -6 -209v-526q0 -147 6 -209q-233 -147 -233 -276q0 -47 27.5 -75t75.5 -28t98 31l10 -98q-72 -35 -158 -35t-139 47t-53 123q0 150 245 311h-41q7 68 7 209zM145 1247q0 41 29 71t70 30t70.5 -30t29.5 -71t-29.5 -69.5t-70.5 -28.5
t-70 28.5t-29 69.5z" />
    <glyph glyph-name="Idotaccent" unicode="&#x130;" horiz-adv-x="509" 
d="M336 1008v-680q0 -225 4 -328h-170q4 184 4 330v678q0 156 -4 368h170q-4 -110 -4 -368zM156 1658q0 44 28.5 69.5t70.5 25.5t70.5 -25.5t28.5 -68.5t-27.5 -69.5t-70.5 -26.5t-71.5 25.5t-28.5 69.5z" />
    <glyph glyph-name="dotlessi" unicode="&#x131;" horiz-adv-x="458" 
d="M154 209v526q0 147 -7 209h168q-6 -68 -6 -209v-526q0 -147 6 -209h-168q7 68 7 209z" />
    <glyph glyph-name="IJ" unicode="&#x132;" horiz-adv-x="1062" 
d="M334 1008v-680q0 -225 4 -328h-172q4 184 4 330v678q0 156 -4 368h172q-4 -110 -4 -368zM895 1026v-1053q0 -170 -94 -268t-260 -98q-80 0 -158 24v150q51 -35 148 -35t148.5 64.5t51.5 179.5v1036q0 250 -4 350h170q-2 -182 -2 -350z" />
    <glyph glyph-name="ij" unicode="&#x133;" horiz-adv-x="929" 
d="M152 209v526q0 147 -7 209h168q-6 -68 -6 -209v-526q0 -147 6 -209h-168q7 68 7 209zM143 1247q0 41 29 71t70 30t70.5 -30t29.5 -71t-29.5 -69.5t-70.5 -28.5t-70 28.5t-29 69.5zM604 1247q0 41 29 71t69.5 30t70.5 -30t30 -71t-30 -69.5t-70.5 -28.5t-69.5 28.5
t-29 69.5zM770 735v-850q0 -82 -2 -98q-16 -143 -99 -216t-214 -73h-127v125h127q166 0 166 268v844q0 147 -7 209h162q-6 -68 -6 -209z" />
    <glyph glyph-name="Jcircumflex" unicode="&#x134;" horiz-adv-x="552" 
d="M258 1782h92q41 -55 117 -156.5t102 -138.5h-129l-139 190l-137 -190h-127zM383 1026v-1053q0 -170 -94 -268t-260 -98q-80 0 -158 24v150q51 -35 148 -35t148.5 64.5t51.5 179.5v1036q0 250 -4 350h170q-2 -182 -2 -350z" />
    <glyph glyph-name="jcircumflex" unicode="&#x135;" horiz-adv-x="471" 
d="M311 735v-850q0 -82 -2 -98q-16 -143 -99 -216t-214 -73h-127v125h127q166 0 166 268v844q0 147 -6 209h161q-6 -68 -6 -209zM188 1370h91q43 -57 120.5 -162.5t100.5 -134.5h-129l-140 191l-139 -191h-125z" />
    <glyph glyph-name="uni0136" unicode="&#x136;" horiz-adv-x="1159" 
d="M530 -256q0 78 -10 131q18 4 162 33q14 -51 14 -125q0 -215 -170 -395l-88 45q92 154 92 311zM330 336q0 -207 2 -336h-170q4 188 4 334v708q0 117 -4 334h170q-2 -115 -2 -332v-319l360 426q127 150 182 225h189q-16 -18 -48 -57t-48 -57l-476 -555l478 -531
q102 -115 166 -176h-226q-53 68 -133 160l-444 502v-326z" />
    <glyph glyph-name="uni0137" unicode="&#x137;" horiz-adv-x="1007" 
d="M461 -256q0 78 -10 131q18 4 161 33q14 -51 15 -125q0 -215 -170 -395l-88 45q92 154 92 311zM141 1391h-82q20 29 45 86h199q-4 -115 -4 -205v-733q57 57 212 216.5t187 188.5h238q-109 -82 -182 -149l-301 -277l405 -395q86 -86 127 -123h-201l-483 473v-276
q0 -135 2 -197h-166q4 115 4 213v1178z" />
    <glyph glyph-name="Lacute" unicode="&#x139;" horiz-adv-x="919" 
d="M354 1786h170l-200 -295h-127zM330 137h254q139 0 282 4v-145q-86 4 -295 4h-407q4 319 4 383v608q0 164 -4 385h168l-2 -180v-1059z" />
    <glyph glyph-name="lacute" unicode="&#x13a;" horiz-adv-x="481" 
d="M293 1296v-1089q0 -164 4 -207h-156q4 86 4 207v1184h-90q5 9 47 86h197q-6 -42 -6 -181zM319 1858h170l-200 -295h-127z" />
    <glyph glyph-name="uni013B" unicode="&#x13b;" horiz-adv-x="919" 
d="M428 -256q0 78 -10 131q18 4 162 33q14 -51 14 -125q0 -215 -170 -395l-88 45q92 154 92 311zM330 137h254q139 0 282 4v-145q-86 4 -295 4h-407q4 319 4 383v608q0 164 -4 385h168l-2 -180v-1059z" />
    <glyph glyph-name="uni013C" unicode="&#x13c;" horiz-adv-x="481" 
d="M150 -612l-89 45q92 154 93 311q0 78 -11 131q18 4 162 33q14 -51 14 -125q1 -215 -169 -395zM293 1296v-1089q0 -164 6 -207h-156q4 86 4 207v1184h-92l49 86h197q-8 -42 -8 -181z" />
    <glyph glyph-name="Lcaron" unicode="&#x13d;" horiz-adv-x="919" 
d="M676 1022l43 358h147l-73 -358h-117zM330 137h254q139 0 282 4v-145q-86 4 -295 4h-407q4 319 4 383v608q0 164 -4 385h168l-2 -180v-1059z" />
    <glyph glyph-name="lcaron" unicode="&#x13e;" horiz-adv-x="481" 
d="M524 1118h-118q25 213 45 357h147zM291 1290v-1089q0 -164 6 -207h-156q4 86 4 207v1183h-92l49 86h197q-8 -41 -8 -180z" />
    <glyph glyph-name="Ldot" unicode="&#x13f;" horiz-adv-x="919" 
d="M330 137h254q139 0 282 4v-145q-86 4 -295 4h-407q4 319 4 383v608q0 164 -4 385h168l-2 -180v-1059zM604 741q0 45 31 76t76 31t75.5 -31t30.5 -76t-30.5 -75.5t-75.5 -30.5t-76 30.5t-31 75.5z" />
    <glyph glyph-name="ldot" unicode="&#x140;" horiz-adv-x="481" 
d="M293 1296v-1089q0 -164 4 -207h-156q4 86 4 207v1184h-90q5 9 47 86h197q-6 -42 -6 -181zM383 762q0 45 30.5 75.5t76 30.5t76 -30.5t30.5 -75.5t-30.5 -76t-76 -31t-76 31t-30.5 76z" />
    <glyph glyph-name="Lslash" unicode="&#x141;" horiz-adv-x="919" 
d="M330 137h254q139 0 282 4v-145q-86 4 -295 4h-407q4 319 4 383v207l-172 -103v146l172 102v256q0 164 -4 385h168l-2 -180v-362l368 223v-148q-297 -180 -368 -223v-549z" />
    <glyph glyph-name="lslash" unicode="&#x142;" horiz-adv-x="481" 
d="M293 207q0 -164 6 -207h-156q4 86 4 207v371l-151 -91v146l151 92v666h-92l49 86h197q-8 -42 -8 -181v-481l141 86v-147q-27 -15 -141 -86v-461z" />
    <glyph glyph-name="Nacute" unicode="&#x143;" horiz-adv-x="1458" 
d="M995 1786q-179 -265 -200 -295h-127l157 295h170zM322 285q0 -158 6 -285h-166q4 176 4 295v749q0 104 -4 347h98l873 -1092v733q0 205 -9 344h179q-10 -125 -11 -332v-761q0 -195 2 -283h-104l-868 1096v-811z" />
    <glyph glyph-name="nacute" unicode="&#x144;" horiz-adv-x="1134" 
d="M641 1374h170q-158 -236 -201 -295h-127zM141 858h-88q27 39 51 86h181q4 -35 14 -145q137 162 342 162q362 0 363 -418v-320q0 -158 4 -223h-166q2 86 2 233v345q0 127 -69 187t-173 60t-184 -56t-119 -148v-388q0 -160 2 -233h-164q4 147 4 233v625z" />
    <glyph glyph-name="uni0145" unicode="&#x145;" horiz-adv-x="1458" 
d="M686 -256q0 78 -10 131q18 4 162 33q14 -51 14 -125q0 -215 -170 -395l-88 45q92 154 92 311zM322 285q0 -158 6 -285h-166q4 176 4 295v749q0 104 -4 347h98l873 -1092v733q0 205 -9 344h179q-10 -125 -11 -332v-761q0 -195 2 -283h-104l-868 1096v-811z" />
    <glyph glyph-name="uni0146" unicode="&#x146;" horiz-adv-x="1134" 
d="M504 -256q0 78 -10 131q18 4 161 33q14 -51 15 -125q0 -215 -170 -395l-88 45q92 154 92 311zM141 858h-88q27 39 51 86h181q4 -35 14 -145q137 162 342 162q362 0 363 -418v-320q0 -158 4 -223h-166q2 86 2 233v345q0 127 -69 187t-173 60t-184 -56t-119 -148v-388
q0 -160 2 -233h-164q4 147 4 233v625z" />
    <glyph glyph-name="Ncaron" unicode="&#x147;" horiz-adv-x="1458" 
d="M463 1774h129l139 -189q115 156 139 189h125l-221 -295h-90zM322 285q0 -158 6 -285h-166q4 176 4 295v749q0 104 -4 347h98l873 -1092v733q0 205 -9 344h179q-10 -125 -11 -332v-761q0 -195 2 -283h-104l-868 1096v-811z" />
    <glyph glyph-name="ncaron" unicode="&#x148;" horiz-adv-x="1134" 
d="M141 858h-88q27 39 51 86h181q4 -35 14 -145q137 162 342 162q362 0 363 -418v-320q0 -158 4 -223h-166q2 86 2 233v345q0 127 -69 187t-173 60t-184 -56t-119 -148v-388q0 -160 2 -233h-164q4 147 4 233v625zM301 1362h131l137 -191q127 174 140 191h125l-222 -297h-90z
" />
    <glyph glyph-name="Eng" unicode="&#x14a;" horiz-adv-x="1458" 
d="M958 -373q-88 0 -163 43v103q49 -31 150 -31t162.5 83t61.5 200l-847 1071v-811q0 -158 6 -285h-166q4 176 4 295v749q0 104 -4 347h98l873 -1092v733q0 205 -9 344h179q-10 -125 -11 -332v-761q0 -41 2 -136.5t0 -144.5q-2 -172 -94 -273.5t-242 -101.5z" />
    <glyph glyph-name="eng" unicode="&#x14b;" horiz-adv-x="1134" 
d="M709 -385q-78 0 -150 20l19 127q53 -12 96 -12q160 0 168 250q2 86 2 578q0 127 -69 187t-173 60t-184 -56t-119 -148v-388q0 -160 2 -233h-164q4 147 4 233v625h-88q27 39 51 86h181q4 -35 14 -145q137 162 342 162q362 0 363 -418l4 -543q0 -174 -75 -279.5
t-224 -105.5z" />
    <glyph glyph-name="Omacron" unicode="&#x14c;" horiz-adv-x="1589" 
d="M794 -23q-296 0 -495 202t-199 505t200 507t495 204t494.5 -205t199.5 -505t-199.5 -504t-495.5 -204zM794 115q228 0 375.5 162.5t147.5 407.5t-148.5 407.5t-372.5 162.5t-375 -160.5t-151 -408.5t148 -409.5t376 -161.5zM541 1686h506v-117h-506v117z" />
    <glyph glyph-name="omacron" unicode="&#x14d;" 
d="M80 470q0 206 135 348.5t331 142.5t330 -143.5t134 -348.5t-133.5 -345t-332 -140t-331.5 140t-133 346zM544 825q-134 0 -219 -111.5t-85 -253.5t86 -243.5t221 -101.5t219 101t84 255t-86 254t-220 100zM293 1272h506v-117h-506v117z" />
    <glyph glyph-name="Obreve" unicode="&#x14e;" horiz-adv-x="1589" 
d="M794 -23q-296 0 -495 202t-199 505t200 507t495 204t494.5 -205t199.5 -505t-199.5 -504t-495.5 -204zM794 115q228 0 375.5 162.5t147.5 407.5t-148.5 407.5t-372.5 162.5t-375 -160.5t-151 -408.5t148 -409.5t376 -161.5zM794.5 1606q59.5 0 99.5 37.5t48 97.5h107
q-6 -104 -77 -172t-177.5 -68t-177 68t-76.5 172h108q6 -63 46 -99t99.5 -36z" />
    <glyph glyph-name="obreve" unicode="&#x14f;" 
d="M80 470q0 206 135 348.5t331 142.5t330 -143.5t134 -348.5t-133.5 -345t-332 -140t-331.5 140t-133 346zM544 825q-134 0 -219 -111.5t-85 -253.5t86 -243.5t221 -101.5t219 101t84 255t-86 254t-220 100zM546 1192q60 0 100 38t48 99h107q-6 -106 -77 -172.5
t-177.5 -66.5t-177 66.5t-76.5 172.5h108q6 -63 45.5 -100t99.5 -37z" />
    <glyph glyph-name="Ohungarumlaut" unicode="&#x150;" horiz-adv-x="1589" 
d="M794 -23q-296 0 -495 202t-199 505t200 507t495 204t494.5 -205t199.5 -505t-199.5 -504t-495.5 -204zM794 115q228 0 375.5 162.5t147.5 407.5t-148.5 407.5t-372.5 162.5t-375 -160.5t-151 -408.5t148 -409.5t376 -161.5zM711 1772h161l-186 -281h-125zM1030 1772h162
q-25 -37 -186 -281h-125z" />
    <glyph glyph-name="ohungarumlaut" unicode="&#x151;" 
d="M80 470q0 206 135 348.5t331 142.5t330 -143.5t134 -348.5t-133.5 -345t-332 -140t-331.5 140t-133 346zM544 825q-134 0 -219 -111.5t-85 -253.5t86 -243.5t221 -101.5t219 101t84 255t-86 254t-220 100zM442 1360h162q-123 -188 -188 -281h-123zM924 1360l-187 -281
h-125l150 281h162z" />
    <glyph glyph-name="OE" unicode="&#x152;" horiz-adv-x="1589" 
d="M1174 0h-379q-299 0 -497 191.5t-198 492.5t199 496.5t496 195.5h317q254 0 363 4l-25 -143h-481v-451h141q233 0 324 2v-141q-180 4 -324 4h-141v-514h198q240 0 322 2v-141q-79 2 -315 2zM801 137v1100q-227 0 -379 -152.5t-152 -398.5t150 -397.5t381 -151.5z" />
    <glyph glyph-name="oe" unicode="&#x153;" horiz-adv-x="1832" 
d="M1743 560q0 -72 -2 -93h-727q8 -170 100 -262t249 -92t329 110v-133q-141 -104 -330 -104q-293 0 -424 227q-63 -106 -167.5 -167.5t-229.5 -61.5q-199 0 -331 140t-132 346t134 348.5t329 142.5q117 0 218 -58.5t167 -159.5q55 115 155.5 180.5t226.5 65.5t212 -39
t132 -104.5t68.5 -139.5t22.5 -146zM539 825q-135 0 -219 -103.5t-84 -250.5t87 -251.5t221 -104.5t219 101t85 255t-87 254t-222 100zM1326 854q-140 0 -217 -86t-93 -186h598q-4 125 -76 198.5t-212 73.5z" />
    <glyph glyph-name="Racute" unicode="&#x154;" horiz-adv-x="1136" 
d="M563 1786h168q-2 -2 -199 -295h-129zM330 573v-213q0 -180 4 -360h-172q4 92 4 367v684q0 248 -4 325h295q205 0 340 -99t135 -290q0 -274 -281 -364l189 -269q131 -186 278 -354h-231l-369 573h-188zM330 700h133q123 0 212 75t89 201t-87 197.5t-222 71.5h-125v-545z
" />
    <glyph glyph-name="racute" unicode="&#x155;" horiz-adv-x="694" 
d="M554 965q68 0 114 -19l-31 -153q-104 53 -195.5 -1.5t-142.5 -111.5q4 -127 4 -188v-283q0 -82 4 -209h-166q4 143 4 215v643h-88l49 86h177l10 -182q51 96 122 149.5t139 53.5zM512 1374q-42 -59 -201 -295h-129l160 295h170z" />
    <glyph glyph-name="uni0156" unicode="&#x156;" horiz-adv-x="1136" 
d="M492 -612l-89 45q92 154 93 311q0 78 -11 131q18 4 162 33q14 -51 15 -125q0 -215 -170 -395zM330 573v-213q0 -180 4 -360h-172q4 92 4 367v684q0 248 -4 325h295q205 0 340 -99t135 -290q0 -274 -281 -364l189 -269q131 -186 278 -354h-231l-369 573h-188zM330 700h133
q123 0 212 75t89 201t-87 197.5t-222 71.5h-125v-545z" />
    <glyph glyph-name="uni0157" unicode="&#x157;" horiz-adv-x="694" 
d="M554 965q68 0 114 -19l-31 -153q-104 53 -195.5 -1.5t-142.5 -111.5q4 -127 4 -188v-283q0 -82 4 -209h-166q4 143 4 215v643h-88l49 86h177l10 -182q51 96 122 149.5t139 53.5zM315 -217q0 -215 -170 -395l-88 45q92 154 93 311q0 78 -11 131q18 4 162 33
q14 -51 14 -125z" />
    <glyph glyph-name="Rcaron" unicode="&#x158;" horiz-adv-x="1136" 
d="M201 1774h131l137 -189l139 189h125l-221 -295h-90zM330 573v-213q0 -180 4 -360h-172q4 92 4 367v684q0 248 -4 325h295q205 0 340 -99t135 -290q0 -274 -281 -364l189 -269q131 -186 278 -354h-231l-369 573h-188zM330 700h133q123 0 212 75t89 201t-87 197.5
t-222 71.5h-125v-545z" />
    <glyph glyph-name="rcaron" unicode="&#x159;" horiz-adv-x="694" 
d="M554 965q68 0 114 -19l-31 -153q-104 53 -195.5 -1.5t-142.5 -111.5q4 -127 4 -188v-283q0 -82 4 -209h-166q4 143 4 215v643h-88l49 86h177l10 -182q51 96 122 149.5t139 53.5zM82 1362h129l139 -191l139 191h125l-221 -297h-90z" />
    <glyph glyph-name="Sacute" unicode="&#x15a;" horiz-adv-x="997" 
d="M764 1786q-159 -236 -201 -295h-127l158 295h170zM317 1063q0 -90 55.5 -151.5t170.5 -133.5q69 -35 135.5 -83t136.5 -118.5t70 -230.5t-120 -265.5t-308 -105.5t-351 74q4 16 15.5 76.5t21.5 97.5q117 -117 308 -117q117 0 187.5 61.5t70.5 168.5q0 158 -239 293
t-279.5 229t-40.5 170q0 168 111 268.5t275 100.5t293 -51v-175q-92 92 -274 93q-104 0 -171 -55.5t-67 -145.5z" />
    <glyph glyph-name="sacute" unicode="&#x15b;" horiz-adv-x="768" 
d="M270 713q0 -57 43 -94t111 -71q111 -55 184.5 -117.5t73.5 -184.5t-90 -195.5t-242 -73.5t-274 68q14 92 26 152q109 -98 246 -99q80 0 128 38t48 92t-27.5 89t-59 54.5t-85.5 47.5q-103 53 -172 112.5t-69 172.5t84 185t227 72q92 0 225 -39v-152q-102 70 -219 70
q-158 0 -158 -127zM483 1374h170q-158 -236 -200 -295h-127z" />
    <glyph glyph-name="Scircumflex" unicode="&#x15c;" horiz-adv-x="997" 
d="M498 1677l-140 -190h-125l222 295h90l221 -295h-129zM317 1063q0 -90 55.5 -151.5t170.5 -133.5q69 -35 135.5 -83t136.5 -118.5t70 -230.5t-120 -265.5t-308 -105.5t-351 74q4 16 15.5 76.5t21.5 97.5q117 -117 308 -117q117 0 187.5 61.5t70.5 168.5q0 158 -239 293
t-279.5 229t-40.5 170q0 168 111 268.5t275 100.5t293 -51v-175q-92 92 -274 93q-104 0 -171 -55.5t-67 -145.5z" />
    <glyph glyph-name="scircumflex" unicode="&#x15d;" horiz-adv-x="768" 
d="M270 713q0 -57 43 -94t111 -71q111 -55 184.5 -117.5t73.5 -184.5t-90 -195.5t-242 -73.5t-274 68q14 92 26 152q109 -98 246 -99q80 0 128 38t48 92t-27.5 89t-59 54.5t-85.5 47.5q-103 53 -172 112.5t-69 172.5t84 185t227 72q92 0 225 -39v-152q-102 70 -219 70
q-158 0 -158 -127zM340 1370h90q43 -57 121 -162.5t100 -134.5h-129l-139 191l-139 -191h-125z" />
    <glyph glyph-name="Scedilla" unicode="&#x15e;" horiz-adv-x="997" 
d="M451 106q117 0 187.5 61.5t70.5 168.5q0 158 -239 293t-279.5 229t-40.5 170q0 168 111 268.5t275 100.5t293 -51v-175q-92 92 -274 93q-104 0 -171 -55.5t-67 -145.5t55.5 -151.5t170.5 -133.5q69 -35 135.5 -83t136.5 -117.5t70 -221.5t-97.5 -254t-261.5 -122l-43 -93
q162 -20 162 -149q0 -78 -59.5 -124t-139.5 -46t-147 22l14 88q53 -26 101 -26t77 21.5t29 60.5q0 84 -133 84q-25 0 -37 -2l39 84q6 12 16.5 37.5t16.5 37.5q-174 6 -316 74q4 16 15.5 76.5t21.5 97.5q117 -117 308 -117z" />
    <glyph glyph-name="scedilla" unicode="&#x15f;" horiz-adv-x="768" 
d="M535 228q0 54 -32 90t-62.5 53.5t-86.5 46.5q-105 54 -174 113.5t-69 172.5t84 185t227 72q92 0 225 -39v-152q-101 70 -199 70t-144 -34t-46 -93t52.5 -97t117.5 -70q108 -54 181 -116t73 -176t-67.5 -184t-184.5 -86l-45 -97q162 -20 162 -149q0 -78 -59.5 -124
t-139.5 -46t-147 22l14 88q53 -26 101 -26t77 21.5t29 60.5q0 84 -133 84q-25 0 -37 -2l39 84q6 12 16 38.5t17 41.5q-143 6 -248 65q14 92 26 152q109 -98 246 -99q82 0 134.5 38t52.5 92z" />
    <glyph glyph-name="Scaron" unicode="&#x160;" horiz-adv-x="997" 
d="M233 1774h129l140 -189q115 156 139 189h125l-221 -295h-90zM317 1063q0 -90 55.5 -151.5t170.5 -133.5q69 -35 135.5 -83t136.5 -118.5t70 -230.5t-120 -265.5t-308 -105.5t-351 74q4 16 15.5 76.5t21.5 97.5q117 -117 308 -117q117 0 187.5 61.5t70.5 168.5
q0 158 -239 293t-279.5 229t-40.5 170q0 168 111 268.5t275 100.5t293 -51v-175q-92 92 -274 93q-104 0 -171 -55.5t-67 -145.5z" />
    <glyph glyph-name="scaron" unicode="&#x161;" horiz-adv-x="768" 
d="M270 713q0 -57 43 -94t111 -71q111 -55 184.5 -117.5t73.5 -184.5t-90 -195.5t-242 -73.5t-274 68q14 92 26 152q109 -98 246 -99q80 0 128 38t48 92t-27.5 89t-59 54.5t-85.5 47.5q-103 53 -172 112.5t-69 172.5t84 185t227 72q92 0 225 -39v-152q-102 70 -219 70
q-158 0 -158 -127zM119 1362h129l139 -191l139 191h125l-221 -297h-90z" />
    <glyph glyph-name="uni0162" unicode="&#x162;" horiz-adv-x="1153" 
d="M799 1239h-144v-885q0 -268 4 -354h-170q2 90 3 354v639q0 174 -3 246h-143q-217 0 -301 -4v141h762q236 0 313 2l-24 -143q-176 4 -297 4zM489 -252q0 61 -10 90q94 23 162 33q14 -29 14 -84q0 -154 -170 -293l-88 45q92 113 92 209z" />
    <glyph glyph-name="uni0163" unicode="&#x163;" horiz-adv-x="690" 
d="M451 -18q-252 0 -252 303v530h-156v129h156v70q0 109 -2 155l157 29q-2 -59 -2 -186v-68h273q-6 -43 -23 -129h-250v-496q0 -106 31 -157t97 -51t122 34q17 -86 27 -122q-72 -41 -178 -41zM285 -252q0 61 -11 90q94 23 162 33q14 -29 15 -84q0 -154 -170 -293l-88 45
q92 113 92 209z" />
    <glyph glyph-name="Tcaron" unicode="&#x164;" horiz-adv-x="1153" 
d="M795 1239h-144v-885q0 -268 4 -354h-170q2 90 2 354v639q0 174 -2 246h-143q-217 0 -301 -4v141h762q236 0 313 2l-24 -143q-176 4 -297 4zM313 1761h129l140 -190l139 190h125l-221 -297h-90z" />
    <glyph glyph-name="tcaron" unicode="&#x165;" horiz-adv-x="690" 
d="M477 1067l43 358h148l-74 -358h-117zM451 -18q-252 0 -252 303v530h-156v129h156v70q0 109 -2 155l157 29q-2 -59 -2 -186v-68h273q-6 -43 -23 -129h-250v-496q0 -106 31 -157t97 -51t122 34q17 -86 27 -122q-72 -41 -178 -41z" />
    <glyph glyph-name="Tbar" unicode="&#x166;" horiz-adv-x="1153" 
d="M795 1239h-144v-477h264v-125h-264v-283q0 -268 4 -354h-170q2 90 2 354v283h-254v125h254v231q0 174 -2 246h-143q-217 0 -301 -4v141h762q236 0 313 2l-24 -143q-176 4 -297 4z" />
    <glyph glyph-name="tbar" unicode="&#x167;" horiz-adv-x="690" 
d="M451 -18q-252 0 -252 303v526h-156v129h156v76h-133v119h133q0 23 -2 34l157 29q-2 -20 -2 -63h219v-119h-219v-76h273l-23 -129h-250v-492q0 -106 31 -157t97 -51t122 34q17 -86 27 -122q-72 -41 -178 -41z" />
    <glyph glyph-name="Utilde" unicode="&#x168;" horiz-adv-x="1370" 
d="M322 1036v-506q0 -201 100 -307t267 -106t263.5 109.5t96.5 308.5v501q0 256 -2 340h167q-2 -100 -2 -342v-508q0 -266 -142 -406t-387 -140t-384 145t-139 401v508q0 154 -4 342h172q-6 -92 -6 -340zM406 1528q0 78 40 135t108 57t140 -48t101 -48q70 0 71 86h101
q0 -78 -36.5 -135t-104.5 -57t-144 47t-104 47q-64 0 -68 -84h-104z" />
    <glyph glyph-name="utilde" unicode="&#x169;" horiz-adv-x="1060" 
d="M297 562q0 -252 43 -349.5t184 -97.5q92 0 153.5 58t80.5 149v383q0 164 -2 239h166q-4 -70 -4 -231v-518q0 -127 20 -195h-141l-31 125q-84 -141 -277 -141q-156 0 -254 95t-98 316v463h-84l51 86h195q-2 -130 -2 -382zM252 1114q0 78 40 135.5t108 57.5t141 -48
q72 -48 100 -49q70 0 72 86h100q0 -78 -36.5 -135t-104.5 -57t-144 47t-104 47q-64 0 -68 -84h-104z" />
    <glyph glyph-name="Umacron" unicode="&#x16a;" horiz-adv-x="1370" 
d="M322 1036v-506q0 -201 100 -307t267 -106t263.5 109.5t96.5 308.5v501q0 256 -2 340h167q-2 -100 -2 -342v-508q0 -266 -142 -406t-387 -140t-384 145t-139 401v508q0 154 -4 342h172q-6 -92 -6 -340zM432 1686h506v-117h-506v117z" />
    <glyph glyph-name="umacron" unicode="&#x16b;" horiz-adv-x="1060" 
d="M279 1272h505v-117h-505v117zM297 562q0 -252 43 -349.5t184 -97.5q92 0 153.5 58t80.5 149v383q0 164 -2 239h166q-4 -70 -4 -231v-518q0 -127 20 -195h-141l-31 125q-84 -141 -277 -141q-156 0 -254 95t-98 316v463h-84l51 86h195q-2 -130 -2 -382z" />
    <glyph glyph-name="Ubreve" unicode="&#x16c;" horiz-adv-x="1370" 
d="M322 1036v-506q0 -201 100 -307t267 -106t263.5 109.5t96.5 308.5v501q0 256 -2 340h167q-2 -100 -2 -342v-508q0 -266 -142 -406t-387 -140t-384 145t-139 401v508q0 154 -4 342h172q-6 -92 -6 -340zM686 1606q59 0 99 37.5t49 97.5h106q-6 -104 -76.5 -172t-177 -68
t-177.5 68t-77 172h109q6 -63 46 -99t99 -36z" />
    <glyph glyph-name="ubreve" unicode="&#x16d;" horiz-adv-x="1060" 
d="M532.5 1192q59.5 0 99.5 38t48 99h106q-6 -106 -76.5 -172.5t-177 -66.5t-177 66.5t-76.5 172.5h110q6 -63 45 -100t98.5 -37zM297 562q0 -252 43 -349.5t184 -97.5q92 0 153.5 58t80.5 149v383q0 164 -2 239h166q-4 -70 -4 -231v-518q0 -127 20 -195h-141l-31 125
q-84 -141 -277 -141q-156 0 -254 95t-98 316v463h-84l51 86h195q-2 -130 -2 -382z" />
    <glyph glyph-name="Uring" unicode="&#x16e;" horiz-adv-x="1370" 
d="M322 1036v-506q0 -201 100 -307t267 -106t263.5 109.5t96.5 308.5v501q0 256 -2 340h167q-2 -100 -2 -342v-508q0 -266 -142 -406t-387 -140t-384 145t-139 401v508q0 154 -4 342h172q-6 -92 -6 -340zM494 1652q0 77 54 126t136 49t137.5 -50.5t55.5 -124.5t-54.5 -125.5
t-136.5 -51.5t-137 50t-55 127zM592 1656q0 -42 24.5 -75t67.5 -33t68.5 29t25.5 74t-25.5 72.5t-66.5 27.5t-67.5 -26.5t-26.5 -68.5z" />
    <glyph glyph-name="uring" unicode="&#x16f;" horiz-adv-x="1060" 
d="M340 1238q0 77 55 126t137 49t136.5 -49t54.5 -125t-54.5 -127t-136.5 -51t-137 50t-55 127zM438 1242q0 -42 23.5 -73.5t67.5 -31.5t71 28.5t27 72.5t-27 72.5t-68 28.5t-67.5 -27.5t-26.5 -69.5zM297 562q0 -252 43 -349.5t184 -97.5q92 0 153.5 58t80.5 149v383
q0 164 -2 239h166q-4 -70 -4 -231v-518q0 -127 20 -195h-141l-31 125q-84 -141 -277 -141q-156 0 -254 95t-98 316v463h-84l51 86h195q-2 -130 -2 -382z" />
    <glyph glyph-name="Uhungarumlaut" unicode="&#x170;" horiz-adv-x="1370" 
d="M322 1036v-506q0 -201 100 -307t267 -106t263.5 109.5t96.5 308.5v501q0 256 -2 340h167q-2 -100 -2 -342v-508q0 -266 -142 -406t-387 -140t-384 145t-139 401v508q0 154 -4 342h172q-6 -92 -6 -340zM518 1772h164l-188 -281h-123zM999 1772q-147 -218 -184 -281h-125
l150 281h159z" />
    <glyph glyph-name="uhungarumlaut" unicode="&#x171;" horiz-adv-x="1060" 
d="M365 1360h163q-123 -188 -188 -281h-123zM846 1360l-184 -281h-125l149 281h160zM297 562q0 -252 43 -349.5t184 -97.5q92 0 153.5 58t80.5 149v383q0 164 -2 239h166q-4 -70 -4 -231v-518q0 -127 20 -195h-141l-31 125q-84 -141 -277 -141q-156 0 -254 95t-98 316v463
h-84l51 86h195q-2 -130 -2 -382z" />
    <glyph glyph-name="Uogonek" unicode="&#x172;" horiz-adv-x="1370" 
d="M410 -309q0 145 215 291q-221 18 -343 160.5t-122 383.5v508q0 154 -4 342h172q-6 -92 -6 -340v-506q0 -201 100 -307t267 -106t263.5 109.5t96.5 308.5v501q0 256 -2 340h167q-2 -100 -2 -342v-508q0 -248 -123.5 -387t-334.5 -155q-207 -137 -207 -248q0 -57 28.5 -85
t76.5 -28t96 31l10 -98q-70 -35 -157 -35t-139 47t-52 123z" />
    <glyph glyph-name="uogonek" unicode="&#x173;" horiz-adv-x="1060" 
d="M575 -309q0 145 230 311l-39 123q-84 -141 -277 -141q-156 0 -254 95t-98 316v463h-84l51 86h195q-2 -130 -2 -382t43 -349.5t184 -97.5q92 0 153.5 58t80.5 149v383q0 164 -2 239h166q-4 -70 -4 -231v-518q0 -127 20 -195q-223 -141 -223 -274q0 -47 27.5 -75t76.5 -28
t96 31l11 -98q-70 -35 -157 -35t-140.5 47t-53.5 123z" />
    <glyph glyph-name="Wcircumflex" unicode="&#x174;" horiz-adv-x="1929" 
d="M963 1677l-140 -190h-125l222 295h90l221 -295h-129zM956 926l-317 -934h-145l-467 1384h184l348 -1108h23l290 877l-79 231h182l362 -1108h17q29 115 332 1108h178l-453 -1384h-145z" />
    <glyph glyph-name="wcircumflex" unicode="&#x175;" horiz-adv-x="1402" 
d="M426 244l227 700h107q47 -133 241 -717l187 586q31 90 39 131h164q-14 -37 -84 -225l-263 -737h-83l-256 745l-250 -745h-90l-269 741q-42 114 -82 221h174q31 -119 66 -213zM657 1370h91q43 -57 120.5 -162.5t100.5 -134.5h-129l-140 191l-139 -191h-125z" />
    <glyph glyph-name="Ycircumflex" unicode="&#x176;" horiz-adv-x="1165" 
d="M582 1677l-140 -190h-125l222 295h90l221 -295h-129zM504 334v262l-318 520q-18 31 -82.5 131.5t-80.5 128.5h190q48 -98 188 -327.5t187 -309.5l262 443q27 45 111 194h184q-10 -16 -36 -55t-38 -59l-407 -668v-262q0 -144 4 -332h-168q4 172 4 334z" />
    <glyph glyph-name="ycircumflex" unicode="&#x177;" horiz-adv-x="964" 
d="M438 1370h90q43 -57 121 -162.5t101 -134.5h-129l-140 191l-139 -191h-125zM201 -279q74 0 151 179l58 133q-66 152 -197 456t-197 455h181l288 -747l222 548q37 92 69 199h172q-334 -797 -442 -1018l-43 -90q-100 -227 -266 -227h-125q2 8 47 112h82z" />
    <glyph glyph-name="Ydieresis" unicode="&#x178;" horiz-adv-x="1165" 
d="M775 1548q-36 0 -63.5 27t-27.5 63t27.5 61t63.5 25t61.5 -25.5t25.5 -61.5t-25.5 -62.5t-61.5 -26.5zM305 1637q0 36 26.5 61.5t61.5 25.5t62.5 -25.5t27.5 -61.5t-27.5 -62.5t-62.5 -26.5t-61.5 26.5t-26.5 62.5zM504 334v262l-318 520q-18 31 -82.5 131.5t-80.5 128.5
h190q48 -98 188 -327.5t187 -309.5l262 443q27 45 111 194h184q-10 -16 -36 -55t-38 -59l-407 -668v-262q0 -144 4 -332h-168q4 172 4 334z" />
    <glyph glyph-name="Zacute" unicode="&#x179;" horiz-adv-x="1124" 
d="M829 1786q-179 -265 -200 -295h-127l157 295h170zM756 137q225 0 303 2v-141q-78 2 -305 2h-678q42 77 164 281l548 958h-348q-246 0 -323 -4l-25 143q98 -2 375 -2h584l-723 -1239h428z" />
    <glyph glyph-name="zacute" unicode="&#x17a;" horiz-adv-x="811" 
d="M502 1374h170q-158 -236 -201 -295h-127zM569 127q76 0 195 4v-133q-43 2 -139 2h-574l486 815h-297q-53 0 -148 -4l-8 133h684l-485 -817h286z" />
    <glyph glyph-name="Zdotaccent" unicode="&#x17b;" horiz-adv-x="1124" 
d="M463 1658q0 44 28.5 69.5t70.5 25.5t71 -25.5t29 -68.5t-28 -69.5t-71 -26.5t-71.5 25.5t-28.5 69.5zM756 137q225 0 303 2v-141q-78 2 -305 2h-678q42 77 164 281l548 958h-348q-246 0 -323 -4l-25 143q98 -2 375 -2h584l-723 -1239h428z" />
    <glyph glyph-name="zdotaccent" unicode="&#x17c;" horiz-adv-x="811" 
d="M305 1244q0 44 28.5 70.5t70.5 26.5t71 -26.5t29 -69.5t-27.5 -69.5t-71 -26.5t-72 25.5t-28.5 69.5zM569 127q76 0 195 4v-133q-43 2 -139 2h-574l486 815h-297q-53 0 -148 -4l-8 133h684l-485 -817h286z" />
    <glyph glyph-name="Zcaron" unicode="&#x17d;" horiz-adv-x="1124" 
d="M297 1774h129l139 -189q115 156 140 189h124l-221 -295h-90zM756 137q225 0 303 2v-141q-78 2 -305 2h-678q42 77 164 281l548 958h-348q-246 0 -323 -4l-25 143q98 -2 375 -2h584l-723 -1239h428z" />
    <glyph glyph-name="zcaron" unicode="&#x17e;" horiz-adv-x="811" 
d="M139 1362h129l140 -191l139 191h125l-221 -297h-91zM569 127q76 0 195 4v-133q-43 2 -139 2h-574l486 815h-297q-53 0 -148 -4l-8 133h684l-485 -817h286z" />
    <glyph glyph-name="florin" unicode="&#x192;" horiz-adv-x="1060" 
d="M180 670v116h201l20 146q31 215 133.5 341t247.5 126q96 0 174 -37v-145q-63 55 -159 55q-203 0 -248 -359l-17 -127h244v-116h-262l-57 -391q-55 -381 -153.5 -531.5t-291.5 -150.5q-111 0 -182 47v147q76 -66 182 -65q131 0 195 146t102 415l56 383h-185z" />
    <glyph glyph-name="Aringacute" unicode="&#x1fa;" horiz-adv-x="1275" 
d="M446 1652q0 77 54.5 126t136.5 49t137 -50.5t55 -124.5t-54 -125.5t-136 -51.5t-137.5 50t-55.5 127zM909 2195l-200 -294h-127l157 294h170zM545 1656q0 -42 24.5 -75t67.5 -33t68.5 29t25.5 74t-25.5 72.5t-66.5 27.5t-67.5 -26.5t-26.5 -68.5zM1260 0h-193
q-8 25 -168 418h-541q-147 -373 -161 -418h-179q63 135 142 334l430 1057h84l461 -1119q43 -102 125 -272zM848 549l-219 577l-221 -577h440z" />
    <glyph glyph-name="aringacute" unicode="&#x1fb;" horiz-adv-x="942" 
d="M279 1238q0 77 54 126t136 49t137.5 -49t55.5 -125t-54.5 -127t-136.5 -51t-137 50t-55 127zM571 1812h170q-176 -262 -200 -296h-127zM377 1242q0 -42 23.5 -73.5t67.5 -31.5t69.5 27.5t25.5 72.5t-25.5 73.5t-66.5 28.5t-67.5 -27.5t-26.5 -69.5zM840 633v-334
q0 -186 34 -299h-149l-10 111q-66 -63 -157 -97t-173 -34q-135 0 -222 82.5t-87 216.5q0 289 405 307q129 6 224 6v37q0 98 -71.5 156.5t-189.5 58.5t-245 -94l-60 122q143 94 325 94t279 -84.5t97 -248.5zM215 281q0 -78 55.5 -128.5t129.5 -50.5t161.5 37t143.5 92v244
l-201 -6q-289 -10 -289 -188z" />
    <glyph glyph-name="AEacute" unicode="&#x1fc;" horiz-adv-x="1683" 
d="M961 1786h167q-2 -2 -198 -295h-129zM1141 1376q233 0 346 4l-25 -145q-90 4 -321 4h-232q43 -240 82 -496h221q119 0 271 5v-142q-74 2 -252 2h-211l74 -471h219q193 0 268 10v-147h-627l-65 424h-471q-88 -160 -217 -424h-197q148 244 413 741.5t339 634.5h385z
M862 555l-88 578l-289 -578h377z" />
    <glyph glyph-name="aeacute" unicode="&#x1fd;" horiz-adv-x="1550" 
d="M915 1374h170q-158 -236 -200 -295h-127zM1147 989q115 0 201 -39t155.5 -136t69.5 -265q0 -61 -2 -82h-727q8 -170 100 -262t249 -92t329 110v-133q-141 -104 -330 -104q-276 -1 -397 157h-9q-176 -164 -405 -163q-135 0 -220 81.5t-85 217.5q0 295 403 307l207 6v37
q0 98 -64 156.5t-180 58.5t-243 -94l-60 122q143 94 356 94t300 -151q129 174 352 174zM215 281q0 -78 55.5 -128.5t130.5 -50.5t166 40.5t148 103.5l2 6q-31 92 -31 223l-184 -6q-287 -10 -287 -188zM1154 854q-140 0 -217 -87t-91 -185h598q-4 125 -77 198.5t-213 73.5z
" />
    <glyph glyph-name="Oslashacute" unicode="&#x1fe;" horiz-adv-x="1591" 
d="M797 1395q227 0 409 -138l121 140h160l-191 -213q195 -207 195 -503t-199.5 -500t-494.5 -204q-229 0 -418 134l-115 -134h-158l185 213q-189 197 -189 497t200 504t495 204zM1321 670q0 228 -125 389l-721 -830q145 -115 322 -114q227 0 375.5 163.5t148.5 391.5z
M272 704q0 -228 119 -391l721 832q-137 111 -315 110q-223 0 -374 -161.5t-151 -389.5zM883 1804h170q-176 -262 -201 -297h-127z" />
    <glyph glyph-name="oslashacute" unicode="&#x1ff;" 
d="M643 1374h170q-158 -236 -201 -295h-127zM1010 465q0 -199 -132.5 -340t-332.5 -141q-158 0 -281 92l-82 -99h-106l133 154q-129 141 -129 343t135 344.5t330 142.5q156 0 282 -99l88 99h107l-137 -154q125 -143 125 -342zM240 478q0 -144 63 -232l434 506
q-81 76 -203 76t-208 -103t-86 -247zM852 454q0 136 -61 236l-435 -506q88 -72 189 -71q135 0 221 102.5t86 238.5z" />
    <glyph glyph-name="uni0219" unicode="&#x219;" horiz-adv-x="768" 
d="M682 246q0 -122 -90 -195.5t-242 -73.5t-274 68q14 92 26 152q109 -98 246 -99q82 0 134.5 38t52.5 92t-32 90t-62.5 53.5t-86.5 46.5q-105 54 -174 113.5t-69 172.5t84 185t227 72q92 0 225 -39v-152q-101 70 -199 70t-144 -34t-46 -93t52.5 -97t117.5 -70
q108 -54 181 -116t73 -184z" />
    <glyph glyph-name="circumflex" unicode="&#x2c6;" horiz-adv-x="849" 
d="M379 1370h90q43 -57 121 -162.5t100 -134.5h-129l-139 191l-139 -191h-125z" />
    <glyph glyph-name="caron" unicode="&#x2c7;" horiz-adv-x="849" 
d="M158 1362h129l139 -191l139 191h125l-221 -297h-90z" />
    <glyph glyph-name="breve" unicode="&#x2d8;" horiz-adv-x="849" 
d="M422 1192q60 0 100.5 38t48.5 99h107q-6 -106 -77 -172.5t-177.5 -66.5t-177 66.5t-76.5 172.5h109q6 -63 44.5 -100t98.5 -37z" />
    <glyph glyph-name="dotaccent" unicode="&#x2d9;" horiz-adv-x="849" 
d="M326 1244q0 44 28.5 70.5t70.5 26.5t70.5 -26.5t28.5 -69.5t-27.5 -69.5t-70.5 -26.5t-71.5 25.5t-28.5 69.5z" />
    <glyph glyph-name="ring" unicode="&#x2da;" horiz-adv-x="849" 
d="M233 1238q0 77 54.5 126t136.5 49t137 -49t55 -125t-54 -127t-136 -51t-137.5 50t-55.5 127zM332 1242q0 -42 23.5 -73.5t67.5 -31.5t69.5 27.5t25.5 72.5t-25.5 73.5t-66.5 28.5t-67.5 -27.5t-26.5 -69.5z" />
    <glyph glyph-name="ogonek" unicode="&#x2db;" horiz-adv-x="849" 
d="M555 -8q-221 -140 -221 -254q0 -115 104 -115q49 0 97 31l10 -98q-70 -35 -157 -35t-140 47t-53 123q0 150 245 311z" />
    <glyph glyph-name="tilde" unicode="&#x2dc;" horiz-adv-x="849" 
d="M143 1114q0 78 40.5 135.5t108.5 57.5t140 -48t100 -49q70 0 72 86h101q0 -78 -36.5 -135t-104.5 -57t-144 47t-105 47q-63 0 -67 -84h-105z" />
    <glyph glyph-name="hungarumlaut" unicode="&#x2dd;" horiz-adv-x="849" 
d="M344 1360h164l-189 -281h-122zM825 1360q-14 -24 -184 -281h-125l150 281h159z" />
    <glyph glyph-name="uni0374" unicode="&#x374;" horiz-adv-x="501" 
d="M74 881q163 353 180 397h174q-166 -295 -221 -397h-133z" />
    <glyph glyph-name="uni0375" unicode="&#x375;" horiz-adv-x="501" 
d="M436 111l-194 -398h-160q8 16 211 398h143z" />
    <glyph glyph-name="tonos" unicode="&#x384;" horiz-adv-x="841" 
d="M463 1079h-133q68 111 178 301h176z" />
    <glyph glyph-name="dieresistonos" unicode="&#x385;" horiz-adv-x="892" 
d="M338 1073l119 313h143l-151 -313h-111zM688 1130q-33 0 -57.5 24t-24.5 58t23.5 58t57.5 24t59.5 -24.5t25.5 -57t-25.5 -57.5t-58.5 -25zM223 1130q-33 0 -57.5 24t-24.5 58t23.5 58t57.5 24t59.5 -24.5t25.5 -57t-25.5 -57.5t-58.5 -25z" />
    <glyph glyph-name="Alphatonos" unicode="&#x386;" horiz-adv-x="1282" 
d="M76 1020l94 371h154q-31 -84 -121 -371h-127zM1260 0h-193q-8 25 -168 418h-541q-147 -373 -161 -418h-179q63 135 142 334l430 1057h84l461 -1119q43 -102 125 -272zM848 549l-219 577l-221 -577h440z" />
    <glyph glyph-name="anoteleia" unicode="&#x387;" horiz-adv-x="450" 
d="M119 788.5q0 45.5 30.5 76t75.5 30.5t76 -30.5t31 -76t-31 -76t-76 -30.5t-75.5 30.5t-30.5 76z" />
    <glyph glyph-name="Epsilontonos" unicode="&#x388;" horiz-adv-x="1142" 
d="M-27 1020l95 371h153l-123 -371h-125zM375 1034q0 143 -4 336h311q254 0 360 4l-24 -145q-102 4 -282 4t-199 -2v-451h143q233 0 321 2v-141q-176 4 -321 4h-143v-514h198q240 0 322 2v-141q-80 2 -316 2h-370v37l4 297v706z" />
    <glyph glyph-name="Etatonos" unicode="&#x389;" horiz-adv-x="1585" 
d="M-29 1020l95 371h153l-123 -371h-125zM1251 782v260q0 168 -4 328h168q-4 -119 -4 -350v-770q0 -109 4 -256h-168q4 160 4 297v358h-757v-358q0 -209 4 -297h-170q4 168 4 313v713q0 178 -4 350h170q-4 -137 -4 -473v-115h757z" />
    <glyph glyph-name="Iotatonos" unicode="&#x38a;" horiz-adv-x="679" 
d="M-25 1020l95 371h153l-123 -371h-125zM510 1001v-679q0 -225 4 -328h-170q4 184 4 330v677q0 156 -4 369h170q-4 -111 -4 -369z" />
    <glyph glyph-name="Omicrontonos" unicode="&#x38c;" horiz-adv-x="1691" 
d="M904 -23q-300 0 -498.5 201t-198.5 501t196.5 508t488.5 208t496.5 -203t204.5 -505t-194.5 -506t-494.5 -204zM904 1255q-228 0 -377.5 -167.5t-149.5 -399.5t145.5 -402.5t372.5 -170.5t376.5 169t152.5 400t-144.5 401t-375.5 170zM231 1391l-122 -371h-127l98 371
h151z" />
    <glyph glyph-name="Upsilontonos" unicode="&#x38e;" horiz-adv-x="1484" 
d="M236 1391q-58 -171 -121 -371h-125l96 371h150zM799 334v262l-318 520q-18 31 -82.5 131.5t-81.5 128.5h191q48 -98 188 -327.5t187 -309.5l262 443q27 45 110 194h185q-10 -16 -36 -55t-38 -59l-408 -668v-262q1 -144 5 -332h-168q4 172 4 334z" />
    <glyph glyph-name="Omegatonos" unicode="&#x38f;" horiz-adv-x="1693" 
d="M733 0h-270q-219 0 -311 -6v137q109 -8 272 -8h149q-168 92 -267 256t-99 338q0 301 209.5 502.5t501.5 201.5t495 -210t203 -494q0 -184 -102.5 -343t-266.5 -251h129q184 0 293 8v-137q-96 6 -330 6h-252v137q166 82 267.5 238.5t101.5 335.5q0 238 -159.5 408.5
t-391.5 170.5t-388 -175t-152 -404q2 -186 102 -338t266 -236v-137zM-20 1020l96 371h151l-121 -371h-126z" />
    <glyph glyph-name="iotadieresistonos" unicode="&#x390;" horiz-adv-x="491" 
d="M135 1073l119 313h143l-151 -313h-111zM485.5 1130q-32.5 0 -57.5 24t-25 58t23.5 58t57.5 24t59.5 -24.5t25.5 -57t-25.5 -57.5t-58 -25zM20.5 1130q-32.5 0 -57 24t-24.5 58t23.5 58t57.5 24t59 -24.5t25 -57t-25.5 -57.5t-58 -25zM152 209v526q0 147 -7 209h168
q-6 -68 -6 -209v-526q0 -147 6 -209h-168q7 68 7 209z" />
    <glyph glyph-name="Alpha" unicode="&#x391;" horiz-adv-x="1275" 
d="M1260 0h-193q-8 25 -168 418h-541q-147 -373 -161 -418h-179q63 135 142 334l430 1057h84l461 -1119q43 -102 125 -272zM848 549l-219 577l-221 -577h440z" />
    <glyph glyph-name="Beta" unicode="&#x392;" horiz-adv-x="1083" 
d="M512 0h-352q6 143 6 365v632q0 195 -4 379h319q186 0 294 -94t108 -242q0 -96 -52.5 -172.5t-136.5 -113.5q129 -35 208 -131.5t79 -223.5q0 -179 -126 -289t-343 -110zM815 397q0 123 -81 197t-212 74h-192v-535h172q147 0 230 70.5t83 193.5zM330 793h155
q106 0 171 62.5t65 165.5t-68.5 163.5t-187.5 60.5h-135v-452z" />
    <glyph glyph-name="Gamma" unicode="&#x393;" horiz-adv-x="915" 
d="M170 365v645q0 262 -4 366h448q86 0 263 4q-8 -28 -15 -80l-12 -67q-80 4 -264 4h-254v-877q0 -237 2 -360h-168q4 102 4 365z" />
    <glyph glyph-name="uni0394" unicode="&#x394;" horiz-adv-x="1273" 
d="M1253 0h-1233q68 142 277 665t295 732h86l438 -1080q94 -231 137 -317zM1014 137l-383 1010q-211 -571 -381 -1010h764z" />
    <glyph glyph-name="Epsilon" unicode="&#x395;" horiz-adv-x="968" 
d="M168 1040q0 143 -4 336h311q254 0 361 4l-25 -145q-101 4 -281 4t-200 -2v-451h143q233 0 322 2v-141q-176 4 -322 4h-143v-514h198q240 0 322 2v-141q-80 2 -315 2h-371v37l4 297v706z" />
    <glyph glyph-name="Zeta" unicode="&#x396;" horiz-adv-x="1124" 
d="M756 137q225 0 303 2v-141q-78 2 -305 2h-678q42 77 164 281l548 958h-348q-246 0 -323 -4l-25 143q98 -2 375 -2h584l-723 -1239h428z" />
    <glyph glyph-name="Eta" unicode="&#x397;" horiz-adv-x="1419" 
d="M1085 788v261q0 168 -4 327h168q-4 -119 -4 -350v-770q0 -109 4 -256h-168q4 160 4 297v358h-757v-358q0 -209 4 -297h-170q4 168 4 313v713q0 178 -4 350h170q-4 -137 -4 -473v-115h757z" />
    <glyph glyph-name="Theta" unicode="&#x398;" horiz-adv-x="1585" 
d="M940 760q119 0 184 4v-139q-106 4 -188 4h-289q-80 0 -186 -4v139l184 -4h295zM787 -29q-296 0 -494.5 202t-198.5 505t200 507t494.5 204t494.5 -205t200 -505t-200 -504t-496 -204zM787 109q228 0 376 162.5t148 407.5t-148.5 407.5t-372.5 162.5t-375 -160.5
t-151 -408.5t147.5 -409.5t375.5 -161.5z" />
    <glyph glyph-name="Iota" unicode="&#x399;" horiz-adv-x="516" 
d="M336 1008v-680q0 -225 4 -328h-170q4 184 4 330v678q0 156 -4 368h170q-4 -110 -4 -368z" />
    <glyph glyph-name="Kappa" unicode="&#x39a;" horiz-adv-x="1157" 
d="M330 283q0 -154 2 -283h-170q4 188 4 281v815q0 63 -4 280h170q-2 -115 -2 -278v-393l360 446q127 150 182 225h189q-16 -18 -48 -57t-48 -57l-476 -555l478 -531q102 -115 166 -176h-226q-53 68 -133 160l-444 522v-399z" />
    <glyph glyph-name="Lambda" unicode="&#x39b;" horiz-adv-x="1286" 
d="M1268 -4h-178l-443 1126l-442 -1126h-187q49 92 121 270l465 1131h78l475 -1159q5 -11 111 -242z" />
    <glyph glyph-name="Mu" unicode="&#x39c;" horiz-adv-x="1658" 
d="M1352 0q0 145 -9 301l-34 758q-158 -295 -449 -871h-57l-455 871l-47 -748q-10 -160 -14 -311h-170q4 53 14 170t14 180l74 1039h98l519 -969l510 969h100l59 -1061q8 -182 25 -328h-178z" />
    <glyph glyph-name="Nu" unicode="&#x39d;" horiz-adv-x="1458" 
d="M322 285q0 -158 6 -285h-166q4 176 4 295v749q0 104 -4 347h98l873 -1092v733q0 205 -9 344h179q-10 -125 -11 -332v-761q0 -195 2 -283h-104l-868 1096v-811z" />
    <glyph glyph-name="Xi" unicode="&#x39e;" horiz-adv-x="1087" 
d="M377 141h319q201 0 295 4v-149q-94 4 -295 4h-321q-195 0 -283 -4v149q82 -4 285 -4zM313 1376h457q61 0 221 4v-149q-80 4 -221 4h-457q-82 0 -217 -4v149q72 -4 217 -4zM739 788q141 0 219 5v-148q-80 4 -219 4h-401q-80 0 -215 -4v148q72 -4 215 -5h401z" />
    <glyph glyph-name="Omicron" unicode="&#x39f;" horiz-adv-x="1585" 
d="M802 -23q-300 0 -500 201t-200 499t200 508t489 210t494.5 -204t205.5 -504t-194.5 -505t-494.5 -205zM796.5 115q231.5 0 378 163.5t146.5 399.5t-146.5 406.5t-374.5 170.5t-377 -167.5t-149 -399.5t145.5 -402.5t377 -170.5z" />
    <glyph glyph-name="Pi" unicode="&#x3a0;" horiz-adv-x="1355" 
d="M1186 1100v-715q0 -168 4 -385h-172q4 180 4 381v858h-690v-860q0 -182 4 -379h-170q2 98 2 383v610q0 264 -4 383h1026q-4 -139 -4 -276z" />
    <glyph glyph-name="Rho" unicode="&#x3a1;" horiz-adv-x="1026" 
d="M330 522v-180q0 -246 4 -342h-172q4 184 4 360v721q0 139 -4 295h293q229 0 354 -116t125 -308t-129 -311t-361 -119h-114zM330 651h114q143 0 231.5 80t88.5 217t-86 218t-234 81h-114v-596z" />
    <glyph glyph-name="Sigma" unicode="&#x3a3;" horiz-adv-x="1105" 
d="M770 1376q170 0 238 2q-10 -68 -27 -143q-78 4 -238 4h-407q63 -84 383 -522l-410 -580h461q178 0 252 2v-141q-33 2 -125 2h-860l506 713l-490 663h717z" />
    <glyph glyph-name="Tau" unicode="&#x3a4;" horiz-adv-x="1153" 
d="M799 1239h-144v-885q0 -268 4 -354h-170q2 90 3 354v639q0 174 -3 246h-143q-217 0 -301 -4v141h762q236 0 313 2l-24 -143q-176 4 -297 4z" />
    <glyph glyph-name="Upsilon" unicode="&#x3a5;" horiz-adv-x="1165" 
d="M504 334v262l-318 520q-18 31 -82.5 131.5t-80.5 128.5h190q48 -98 188 -327.5t187 -309.5l262 443q27 45 111 194h184q-10 -16 -36 -55t-38 -59l-407 -668v-262q0 -144 4 -332h-168q4 172 4 334z" />
    <glyph glyph-name="Phi" unicode="&#x3a6;" horiz-adv-x="1544" 
d="M1446 687q0 -253 -164 -415.5t-434 -185.5q0 -84 4 -174h-162q4 82 4 174q-270 20 -433 185t-163 417t165 417t431 187q0 57 -4 131h162q-4 -39 -4 -131q268 -23 433 -187.5t165 -417.5zM262 690q0 -194 113.5 -310t318.5 -136v893q-199 -20 -315.5 -136.5t-116.5 -310.5
zM1280 688q0 192 -116.5 309t-315.5 140v-893q203 18 317.5 135t114.5 309z" />
    <glyph glyph-name="Chi" unicode="&#x3a7;" horiz-adv-x="1155" 
d="M573 569l-256 -407q-74 -125 -100 -162h-190q113 154 200 291l260 399l-247 391q-84 131 -195 295h199q57 -102 123 -207l217 -350q35 57 207 328q106 174 141 229h188q-113 -152 -200 -291l-250 -385l250 -399q57 -92 202 -301h-196q-55 100 -117 197z" />
    <glyph glyph-name="Psi" unicode="&#x3a8;" horiz-adv-x="1452" 
d="M647 1051q0 242 -4 325h166q-4 -172 -4 -325v-447q98 10 167.5 55.5t132 140t62.5 447.5v129h168q-8 -102 -8 -182q-2 -358 -131 -533.5t-391 -199.5v-123q0 -166 4 -338h-166q4 96 4 338v123q-131 12 -225 58t-148.5 107.5t-87 161t-44 189.5t-17.5 223l-10 176h170
l4 -215q0 -264 83 -400t275 -157v447z" />
    <glyph glyph-name="uni03A9" unicode="&#x3a9;" horiz-adv-x="1673" 
d="M702 0h-270q-260 0 -352 -6v137q109 -8 313 -8h150q-174 96 -291 261t-117 333q0 301 210 502.5t502 201.5t494.5 -210t202.5 -494q0 -180 -118.5 -338t-290.5 -256h129q225 0 333 8v-137q-94 6 -370 6h-252v137q172 86 290.5 244t118.5 330q0 238 -159 408.5t-391 170.5
t-388.5 -175t-152.5 -404q2 -180 118.5 -333t290.5 -241v-137z" />
    <glyph glyph-name="Iotadieresis" unicode="&#x3aa;" horiz-adv-x="516" 
d="M336 1008v-680q0 -225 4 -328h-170q4 184 4 330v678q0 156 -4 368h170q-4 -110 -4 -368zM441 1487q-36 0 -63.5 25.5t-27.5 61.5t28 61.5t64 25.5t61 -25.5t25 -61.5t-25.5 -61.5t-61.5 -25.5zM-29 1574q0 36 27 61.5t61.5 25.5t62.5 -25.5t28 -61.5t-27 -61.5t-63 -25.5
t-62.5 25.5t-26.5 61.5z" />
    <glyph glyph-name="Upsilondieresis" unicode="&#x3ab;" horiz-adv-x="1193" 
d="M504 334v262l-318 520q-18 31 -82.5 131.5t-80.5 128.5h190q48 -98 188 -327.5t187 -309.5l262 443q27 45 111 194h184q-10 -16 -36 -55t-38 -59l-407 -668v-262q0 -144 4 -332h-168q4 172 4 334zM783 1495q-36 0 -63.5 25.5t-27.5 61.5t28 61.5t64 25.5t61 -25.5
t25 -61.5t-25.5 -61.5t-61.5 -25.5zM313 1582q0 36 27 61.5t61.5 25.5t62.5 -25.5t28 -61.5t-27 -61.5t-63 -25.5t-62.5 25.5t-26.5 61.5z" />
    <glyph glyph-name="alphatonos" unicode="&#x3ac;" horiz-adv-x="1142" 
d="M584 1077h-133q86 141 176 303h176q-88 -123 -219 -303zM1036 117q30 0 45 8l19 -119q-49 -23 -103 -22q-84 0 -123.5 60t-72.5 216q-51 -131 -136 -205.5t-200 -74.5q-166 0 -272.5 141t-106.5 350t108.5 348t280.5 139q222 0 320 -272q63 258 63 260l141 -28
q-72 -229 -100 -404q6 -29 13.5 -91.5t14.5 -108.5t19 -95t36 -75.5t54 -26.5zM496 827q-104 0 -176 -101t-72 -255t69 -258t173 -104t181 100t91 266q-18 156 -90 254t-176 98z" />
    <glyph glyph-name="epsilontonos" unicode="&#x3ad;" horiz-adv-x="849" 
d="M516 1077h-133q23 41 180 303h172q-139 -199 -219 -303zM474 -18q-182 0 -285 76.5t-103 199.5q0 86 55.5 145.5t149.5 83.5q-182 63 -182 215q0 115 94.5 187t242.5 72t293 -56v-151q-115 78 -268 77q-96 0 -152.5 -37.5t-56.5 -103.5t61 -105.5t169 -39.5t133 4v-127
q-39 4 -145 4t-172 -41t-66 -114.5t64.5 -117.5t170.5 -44q158 0 291 88q23 -116 27 -127q-139 -88 -321 -88z" />
    <glyph glyph-name="etatonos" unicode="&#x3ae;" horiz-adv-x="1099" 
d="M647 1077h-131q23 41 180 303h174zM141 858h-88q27 39 51 86h181q4 -35 14 -145q137 162 342 162q362 0 363 -418v-830q0 -158 4 -223h-166q2 86 2 234v854q0 127 -69 187t-173 60t-184 -56t-119 -148v-388q0 -160 2 -233h-164q4 147 4 233v625z" />
    <glyph glyph-name="iotatonos" unicode="&#x3af;" horiz-adv-x="491" 
d="M283 1077h-133q86 141 176 303h176q-88 -123 -219 -303zM152 209v526q0 147 -7 209h168q-6 -68 -6 -209v-526q0 -147 6 -209h-168q7 68 7 209z" />
    <glyph glyph-name="upsilondieresistonos" unicode="&#x3b0;" horiz-adv-x="1083" 
d="M418 1073l119 313h143l-152 -313h-110zM768 1130q-33 0 -57.5 24t-24.5 58t23.5 58t57.5 24t59.5 -24.5t25.5 -57t-25.5 -57.5t-58.5 -25zM303 1130q-33 0 -57.5 24t-24.5 58t23.5 58t57.5 24t59.5 -24.5t25.5 -57t-25.5 -57.5t-58.5 -25zM172 692q0 123 -73 123
q-36 0 -50 -6l-35 127q70 27 131 27q199 0 199 -244l-18 -287q0 -319 235 -319q131 0 200.5 105.5t69.5 297.5q0 102 -32.5 221t-85.5 205h178q117 -192 117 -434t-118 -385t-322 -143t-309 110.5t-105 312.5z" />
    <glyph glyph-name="alpha" unicode="&#x3b1;" horiz-adv-x="1142" 
d="M1036 117q30 0 45 8l19 -119q-49 -23 -103 -22q-84 0 -123.5 60t-72.5 216q-51 -131 -136 -205.5t-200 -74.5q-166 0 -272.5 141t-106.5 350t108.5 348t280.5 139q222 0 320 -272q63 258 63 260l141 -28q-72 -229 -100 -404q6 -29 13.5 -91.5t14.5 -108.5t19 -95
t36 -75.5t54 -26.5zM496 827q-104 0 -176 -101t-72 -255t69 -258t173 -104t181 100t91 266q-18 156 -90 254t-176 98z" />
    <glyph glyph-name="beta" unicode="&#x3b2;" horiz-adv-x="1112" 
d="M926 1081q0 -213 -199 -301q129 -37 211 -138t82 -247q0 -203 -99.5 -317.5t-291.5 -114.5q-79 0 -122.5 13.5t-65 20.5t-46 20.5t-36 19.5t-32 20.5t-22.5 14.5l2 -373q0 -117 6 -209h-174q6 96 6 207l9 1321q-4 205 95 322.5t292 109.5q176 0 280.5 -103.5
t104.5 -265.5zM626.5 121q106.5 0 174 68.5t67.5 208.5t-110.5 221t-253.5 88v116h26q104 0 175 76t71 178t-73.5 184t-172.5 82t-163 -88t-64 -235l2 -782q33 -37 124 -77t197.5 -40z" />
    <glyph glyph-name="gamma" unicode="&#x3b3;" horiz-adv-x="1073" 
d="M128 846q-46 0 -83 -12l-31 108q138 49 225 -6t127 -112.5t81.5 -167.5t57 -234t15.5 -158q39 213 127 377t236 350l82 -82q-159 -209 -257 -425t-151 -484l-22 -530h-125l20 536q-14 175 -42 348.5t-49.5 236t-51 127t-71.5 96.5t-88 32z" />
    <glyph glyph-name="delta" unicode="&#x3b4;" horiz-adv-x="1067" 
d="M84 416q0 180 110.5 301t286.5 151q-293 229 -293 377q0 115 107.5 175.5t283.5 60.5t377 -101q-16 -94 -26 -143q-197 119 -387.5 119t-190.5 -121q0 -102 246 -281q102 -74 157.5 -118.5t140.5 -136.5t85 -273q0 -180 -130 -311t-322.5 -131t-318.5 126t-126 306z
M532 115q122 0 203.5 90t81.5 219t-72.5 222t-193.5 130q-12 -4 -33.5 -11t-75 -37t-93.5 -68.5t-71.5 -110t-28.5 -173.5t82 -181.5t201 -79.5z" />
    <glyph glyph-name="epsilon" unicode="&#x3b5;" horiz-adv-x="849" 
d="M474 -18q-182 0 -285 76.5t-103 199.5q0 86 55.5 145.5t149.5 83.5q-182 63 -182 215q0 115 94.5 187t242.5 72t293 -56v-151q-115 78 -268 77q-96 0 -152.5 -37.5t-56.5 -103.5t61 -105.5t169 -39.5t133 4v-127q-39 4 -145 4t-172 -41t-66 -114.5t64.5 -117.5t170.5 -44
q158 0 291 88q23 -116 27 -127q-139 -88 -321 -88z" />
    <glyph glyph-name="zeta" unicode="&#x3b6;" horiz-adv-x="856" 
d="M362 1421q272 0 443 49q0 -47 4 -112q-553 -442 -553 -875q0 -242 213 -303q27 -9 93.5 -28t107.5 -34.5t82 -43t60 -68.5t19 -92q0 -125 -120 -313q-37 12 -131 34q94 145 94 238q0 68 -61.5 98t-143.5 55q-82 26 -136 50t-145.5 95.5t-91.5 270.5q0 453 516 881
q-274 -25 -436 -25l-18 132q79 -9 204 -9z" />
    <glyph glyph-name="eta" unicode="&#x3b7;" horiz-adv-x="1134" 
d="M141 858h-88q27 39 51 86h181q4 -35 14 -145q137 162 342 162q362 0 363 -418v-830q0 -158 4 -223h-166q2 86 2 234v854q0 127 -69 187t-173 60t-184 -56t-119 -148v-388q0 -160 2 -233h-164q4 147 4 233v625z" />
    <glyph glyph-name="theta" unicode="&#x3b8;" horiz-adv-x="1079" 
d="M541 1454q207 0 327.5 -201.5t120.5 -535.5t-119.5 -534.5t-328.5 -200.5t-327 198.5t-118 538.5t119 537.5t326 197.5zM541 125q123 0 195.5 135t82.5 373h-553q10 -242 81 -375t194 -133zM541 1307q-121 0 -193 -132.5t-82 -367.5h553q-12 233 -84.5 366.5
t-193.5 133.5z" />
    <glyph glyph-name="iota" unicode="&#x3b9;" horiz-adv-x="458" 
d="M154 209v526q0 147 -7 209h168q-6 -68 -6 -209v-526q0 -147 6 -209h-168q7 68 7 209z" />
    <glyph glyph-name="kappa" unicode="&#x3ba;" horiz-adv-x="1021" 
d="M309 0h-170v940h170v-446q258 309 647 487l60 -143q-223 -92 -449 -289q169 -201 449 -549h-203l-367 453q-90 -90 -137 -158v-295z" />
    <glyph glyph-name="lambda" unicode="&#x3bb;" horiz-adv-x="966" 
d="M211 1219h-131v112h127q111 0 171.5 -73.5t94.5 -153.5q135 -272 485 -1104h-172q-109 338 -290 743l-289 -743h-180l393 907q-24 66 -58 133q-77 179 -151 179z" />
    <glyph glyph-name="uni03BC" unicode="&#x3bc;" horiz-adv-x="1157" 
d="M287 -340q0 -74 6 -195h-152q6 68 6 207v1184h-84l52 86h192v-399q0 -227 58.5 -327.5t220.5 -100.5q90 0 171 60.5t97 146.5v383q0 162 -2 237h166q-4 -70 -4 -229v-518q0 -80 14 -195h-135l-31 125q-106 -141 -291 -141q-80 0 -158.5 37.5t-125.5 117.5v-479z" />
    <glyph glyph-name="nu" unicode="&#x3bd;" horiz-adv-x="940" 
d="M692 723q0 121 -39 217h170q27 -102 27 -211q0 -317 -387 -745h-72l-373 956h183l266 -747q225 274 225 530z" />
    <glyph glyph-name="xi" unicode="&#x3be;" horiz-adv-x="897" 
d="M352 956q0 -184 291 -184q47 0 92 4v-133q-27 4 -92 4q-156 0 -260 -59q-113 -61 -113 -187q0 -150 225 -214t293 -123.5t68 -157.5q0 -99 -127 -285l-133 76q82 111 82 180q0 98 -211 160q-135 36 -254 109t-119 231q0 117 78 201t207 122q-201 63 -201 230
q0 223 352 366l-2 13q-246 -37 -372 -41q-10 45 -41 137q393 0 721 45q10 -90 10 -100q-494 -178 -494 -394z" />
    <glyph glyph-name="omicron" unicode="&#x3bf;" horiz-adv-x="1095" 
d="M80 470q0 206 135 348.5t331 142.5t330 -143.5t134 -348.5t-133.5 -345t-332 -140t-331.5 140t-133 346zM544 825q-134 0 -219 -111.5t-85 -253.5t86 -243.5t221 -101.5t219 101t84 255t-86 254t-220 100z" />
    <glyph glyph-name="pi" unicode="&#x3c0;" horiz-adv-x="1193" 
d="M991 793h-102v-492q0 -213 22 -301h-155q-10 63 -11 281v512h-296v-793h-138v793h-268v122h952q62 1 119 7v-131q-27 2 -123 2z" />
    <glyph glyph-name="rho" unicode="&#x3c1;" 
d="M141 -489v997q0 231 107.5 356t309.5 125t321.5 -133.5t119.5 -361.5t-122 -373q-125 -141 -328 -141q-129 0 -234 73v-542h-174zM311 506v-303q105 -82 235 -82t203.5 101.5t73.5 270.5t-74.5 264t-194.5 95t-181.5 -92t-61.5 -254z" />
    <glyph glyph-name="sigma1" unicode="&#x3c2;" horiz-adv-x="856" 
d="M236 467q0 -254 309 -324q135 -31 186 -85t51 -166t-96 -277h-145q92 155 92 229t-36 109t-165 65t-231 115q-123 101 -123 311t139 351t340 141q111 0 211 -27v-178q-78 66 -213 66t-227 -96.5t-92 -233.5z" />
    <glyph glyph-name="sigma" unicode="&#x3c3;" horiz-adv-x="1163" 
d="M952 460q0 -204 -118.5 -342t-318.5 -138t-314.5 133t-114.5 361t138 358q138 132 366 133h567l-47 -142h-291q133 -159 133 -363zM258 464q0 -165 67.5 -256t190.5 -91t193.5 95t70.5 249q0 207 -135 364h-35q-172 0 -262 -98t-90 -263z" />
    <glyph glyph-name="tau" unicode="&#x3c4;" horiz-adv-x="899" 
d="M709 815h-205q-8 -281 -8 -582q0 -133 96 -133q55 0 88 25l27 -105q-68 -40 -165 -40q-204 1 -204 241q0 201 8 594h-67q-164 0 -236 -8v125q76 12 236 12h589l-22 -133q-119 4 -137 4z" />
    <glyph glyph-name="upsilon" unicode="&#x3c5;" horiz-adv-x="1083" 
d="M172 692q0 123 -73 123q-36 0 -50 -6l-35 127q70 27 131 27q199 0 199 -244l-18 -287q0 -319 235 -319q131 0 200.5 105.5t69.5 297.5q0 102 -32.5 221t-85.5 205h178q117 -192 117 -434t-118 -385t-322 -143t-309 110.5t-105 312.5z" />
    <glyph glyph-name="phi" unicode="&#x3c6;" horiz-adv-x="1339" 
d="M82 477q0 205 143.5 341t370.5 157v172q0 115 -4 237h153q-4 -123 -4 -237v-172q229 -23 372.5 -159t143.5 -339t-142 -339t-372 -154v-240q0 -158 2 -217h-153l4 217v242q-238 29 -376 157.5t-138 333.5zM238 477.5q0 -151.5 101 -251t257 -113.5v729
q-156 -10 -257 -111.5t-101 -253zM1100 477.5q0 151.5 -102.5 253t-256.5 111.5v-729q156 14 257.5 113.5t101.5 251z" />
    <glyph glyph-name="chi" unicode="&#x3c7;" horiz-adv-x="958" 
d="M877 -352q25 0 49 6l37 -131q-55 -18 -109 -19q-127 0 -203 123q-84 141 -176 459l-301 -573h-176l403 757q-76 262 -136 406t-148 143q-27 0 -49 -6l-35 131q49 18 110 19q117 0 196 -117t167 -424l272 520h176l-374 -700q127 -408 155 -469q57 -125 142 -125z" />
    <glyph glyph-name="psi" unicode="&#x3c8;" horiz-adv-x="1363" 
d="M598 1417h164v-1311q172 14 267 124t95 294q0 256 -120 418h178q116 -182 116 -423t-142 -386t-394 -160v-462h-164v462q-238 12 -363.5 129t-125.5 330l18 279q0 131 -43 231h164q47 -98 47 -231l-16 -265q0 -317 319 -342v1313z" />
    <glyph glyph-name="omega" unicode="&#x3c9;" horiz-adv-x="1495" 
d="M436 -20q-162 0 -257 122t-95 306q0 313 233 555l175 -33q-231 -244 -232 -512q0 -135 52.5 -212t148.5 -77t150.5 103.5t54.5 243.5t-11 229h191q-10 -87 -10 -229t53 -244.5t150 -102.5t149.5 77t52.5 212q0 270 -231 512l176 33q231 -244 231 -555q0 -180 -96 -304
t-256 -124q-121 0 -201.5 70.5t-111.5 199.5h-4q-27 -127 -109 -198.5t-203 -71.5z" />
    <glyph glyph-name="iotadieresis" unicode="&#x3ca;" horiz-adv-x="491" 
d="M326 1224q0 36 26.5 61.5t62.5 25.5t61.5 -25.5t25.5 -61.5t-25.5 -62.5t-61.5 -26.5t-62.5 26.5t-26.5 62.5zM-53 1224q0 36 26.5 61.5t61.5 25.5t61.5 -25.5t26.5 -61.5t-26.5 -62.5t-61.5 -26.5t-61.5 26.5t-26.5 62.5zM152 209v526q0 147 -7 209h168q-6 -68 -6 -209
v-526q0 -147 6 -209h-168q7 68 7 209z" />
    <glyph glyph-name="upsilondieresis" unicode="&#x3cb;" horiz-adv-x="1083" 
d="M621 1224q0 36 26.5 61.5t62.5 25.5t61.5 -25.5t25.5 -61.5t-25.5 -62.5t-61.5 -26.5t-62.5 26.5t-26.5 62.5zM242 1224q0 36 25.5 61.5t61.5 25.5t62.5 -25.5t26.5 -61.5t-26.5 -62.5t-61.5 -26.5t-61.5 26.5t-26.5 62.5zM168 692q0 123 -73 123q-36 0 -50 -6l-35 127
q70 27 131 27q199 0 199 -244l-18 -287q0 -319 235 -319q131 0 200.5 105.5t69.5 297.5q0 102 -32.5 221t-85.5 205h178q117 -192 117 -434t-118 -385t-322 -143t-309 110.5t-105 312.5z" />
    <glyph glyph-name="omicrontonos" unicode="&#x3cc;" horiz-adv-x="1095" 
d="M606 1077h-131q96 166 174 303h180zM76 464q0 206 135 348t331 142t330 -143t134 -348t-133.5 -345.5t-332 -140.5t-331.5 140.5t-133 346.5zM540 819q-134 0 -219 -111.5t-85 -253.5t86 -243.5t221 -101.5t219 101t84 255t-86 254t-220 100z" />
    <glyph glyph-name="upsilontonos" unicode="&#x3cd;" horiz-adv-x="1083" 
d="M436 1077l178 303h174q-139 -199 -219 -303h-133zM168 692q0 123 -73 123q-36 0 -50 -6l-35 127q70 27 131 27q199 0 199 -244l-18 -287q0 -319 235 -319q131 0 200.5 105.5t69.5 297.5q0 102 -32.5 221t-85.5 205h178q117 -192 117 -434t-118 -385t-322 -143t-309 110.5
t-105 312.5z" />
    <glyph glyph-name="omegatonos" unicode="&#x3ce;" horiz-adv-x="1509" 
d="M690 1077l176 303h174q-139 -199 -219 -303h-131zM436 -20q-162 0 -257 122t-95 306q0 313 233 555l175 -33q-231 -244 -232 -512q0 -135 52.5 -212t148.5 -77t150.5 103.5t54.5 243.5t-11 229h191q-10 -87 -10 -229t53 -244.5t150 -102.5t149.5 77t52.5 212
q0 270 -231 512l176 33q231 -244 231 -555q0 -180 -96 -304t-256 -124q-121 0 -201.5 70.5t-111.5 199.5h-4q-27 -127 -109 -198.5t-203 -71.5z" />
    <glyph glyph-name="uni0400" unicode="&#x400;" horiz-adv-x="968" 
d="M399 1733l185 -256h-140l-231 256h186zM164 1034q0 143 -4 336h311q254 0 360 4l-24 -145q-101 4 -281 4t-200 -2v-451h143q233 0 322 2v-141q-176 4 -322 4h-143v-514h198q240 0 322 2v-141q-80 2 -316 2h-370v37l4 297v706z" />
    <glyph glyph-name="uni0401" unicode="&#x401;" horiz-adv-x="962" 
d="M672 1548q-37 0 -63.5 27t-26.5 63t26.5 61t63.5 25t62.5 -25.5t25.5 -61.5t-25.5 -62.5t-62.5 -26.5zM203 1637q0 36 26.5 61.5t61.5 25.5t61.5 -25.5t26.5 -61.5t-26.5 -62.5t-61.5 -26.5t-61.5 26.5t-26.5 62.5zM168 1040q0 143 -4 336h311q254 0 361 4l-25 -145
q-101 4 -281 4t-200 -2v-451h143q233 0 322 2v-141q-176 4 -322 4h-143v-514h198q240 0 322 2v-141q-80 2 -315 2h-371v37l4 297v706z" />
    <glyph glyph-name="uni0402" unicode="&#x402;" horiz-adv-x="1454" 
d="M45 1376h762q236 0 313 2q-12 -82 -24 -143q-176 4 -297 4h-144v-448q78 4 131 4q289 0 422 -106.5t133 -315.5q0 -166 -104 -275.5t-281 -109.5q-90 0 -163 26l43 146q82 -29 106 -29q100 0 174 70.5t74 179.5q0 139 -104.5 198.5t-305.5 59.5q-68 0 -125 -6v-279
q0 -268 4 -354h-170q2 90 3 354v639q0 174 -3 246h-143q-217 0 -301 -4v141z" />
    <glyph glyph-name="uni0403" unicode="&#x403;" horiz-adv-x="892" 
d="M178 0v1376h703l-56 -153q-74 6 -168 6h-313v-1047q0 -129 4 -182h-170zM756 1726l-183 -301h-137l119 301h201z" />
    <glyph glyph-name="uni0404" unicode="&#x404;" horiz-adv-x="1251" 
d="M812 117q216 0 366 96v-164q-168 -70 -367 -69q-305 0 -503.5 197.5t-198.5 497.5t206.5 510t509.5 210q172 0 351 -66v-168q-145 92 -345 92t-351.5 -130t-192.5 -337h315q233 0 322 2v-141q-176 4 -322 4h-321q10 -229 162.5 -381.5t368.5 -152.5z" />
    <glyph glyph-name="uni0405" unicode="&#x405;" horiz-adv-x="997" 
d="M317 1063q0 -90 55.5 -151.5t170.5 -133.5q69 -35 135.5 -83t136.5 -118.5t70 -230.5t-120 -265.5t-308 -105.5t-351 74q4 16 15.5 76.5t21.5 97.5q117 -117 308 -117q117 0 187.5 61.5t70.5 168.5q0 158 -239 293t-279.5 229t-40.5 170q0 168 111 268.5t275 100.5
t293 -51v-175q-92 92 -274 93q-104 0 -171 -55.5t-67 -145.5z" />
    <glyph glyph-name="uni0406" unicode="&#x406;" horiz-adv-x="509" 
d="M336 1008v-680q0 -225 4 -328h-170q4 184 4 330v678q0 156 -4 368h170q-4 -110 -4 -368z" />
    <glyph glyph-name="uni0407" unicode="&#x407;" horiz-adv-x="509" 
d="M336 1008v-680q0 -225 4 -328h-170q4 184 4 330v678q0 156 -4 368h170q-4 -110 -4 -368zM448 1548q-36 0 -64 27t-28 63t28 61t64 25t61.5 -25.5t25.5 -61.5t-25.5 -62.5t-61.5 -26.5zM-23 1637q0 36 27 61.5t61.5 25.5t62.5 -25.5t28 -61.5t-28 -62.5t-62.5 -26.5
t-61.5 26.5t-27 62.5z" />
    <glyph glyph-name="uni0408" unicode="&#x408;" horiz-adv-x="552" 
d="M383 1026v-1053q0 -170 -94 -268t-260 -98q-80 0 -158 24v150q51 -35 148 -35t148.5 64.5t51.5 179.5v1036q0 250 -4 350h170q-2 -182 -2 -350z" />
    <glyph glyph-name="uni0409" unicode="&#x409;" horiz-adv-x="1828" 
d="M1087 156h136q170 0 262 66.5t92 193.5q0 264 -381 264h-109v-524zM109 -12q-31 0 -60 6v174q25 -4 41 -4q117 0 187.5 141t132.5 453t86 618h596q-4 -115 -5 -348v-194h103q557 0 557 -412q0 -201 -132 -311.5t-398 -110.5h-283l2 1028q0 140 -2 197h-299
q-12 -221 -91 -583t-170 -508t-265 -146z" />
    <glyph glyph-name="uni040A" unicode="&#x40a;" horiz-adv-x="1953" 
d="M301 788h729l2 220q2 90 -4 368h170q-4 -111 -4 -368v-191h100q545 0 545 -403q0 -197 -129 -305.5t-391 -108.5h-289v655h-729v-358q0 -209 4 -297h-170q4 168 4 313v713q0 178 -4 350h170q-4 -137 -4 -473v-115zM1282 666h-102v-514h127q170 0 274.5 66.5t104.5 189.5
q-1 258 -404 258z" />
    <glyph glyph-name="uni040B" unicode="&#x40b;" horiz-adv-x="1413" 
d="M893 1239h-238v-422q135 143 315 143t281 -107.5t101 -283.5v-374q0 -141 4 -195h-168q4 133 4 406v190q0 115 -74 176.5t-171 61.5t-172 -50.5t-120 -130.5v-299q0 -268 4 -354h-170q2 90 3 354v639q0 174 -3 246h-239q-121 0 -205 -4v141l1075 2l-24 -143
q-176 4 -203 4z" />
    <glyph glyph-name="uni040C" unicode="&#x40c;" horiz-adv-x="1206" 
d="M178 1376h160v-626h231q68 0 152 168l225 458h191q-68 -100 -201 -385l-45 -94q-92 -176 -184 -211q86 -39 176 -215q166 -365 239 -471h-184l-213 436q-82 166 -147 166h-240v-602h-160v1376zM856 1726l-182 -301h-137l118 301h201z" />
    <glyph glyph-name="uni040D" unicode="&#x40d;" horiz-adv-x="1462" 
d="M477 1735h174q66 -86 174 -246h-127q-90 105 -221 246zM172 283v761q0 207 -10 332h178q-8 -139 -8 -344v-733l872 1092h99q-4 -242 -5 -347v-749q0 -119 5 -295h-166q6 127 6 285v811l-869 -1096h-104q2 88 2 283z" />
    <glyph glyph-name="uni040E" unicode="&#x40e;" horiz-adv-x="1212" 
d="M620 1430q-144 0 -226.5 82.5t-82.5 218.5h150q0 -78 40 -123t119.5 -45t118.5 46t39 122h150q0 -135 -82 -218t-226 -83zM336 117q78 0 158 184l59 137l-408 938h187l299 -768l301 768h178l-510 -1157q-41 -94 -102.5 -156.5t-165.5 -62.5h-129q14 39 49 117h84z" />
    <glyph glyph-name="uni040F" unicode="&#x40f;" horiz-adv-x="1374" 
d="M770 0v-59q0 -141 4 -318h-174q4 184 4 330v47h-426v1049q0 174 -6 327h172q-6 -276 -6 -332v-888h682v893q0 225 -4 327h170q-6 -276 -6 -329v-1047h-410z" />
    <glyph glyph-name="uni0410" unicode="&#x410;" horiz-adv-x="1275" 
d="M1260 0h-193q-8 25 -168 418h-541q-147 -373 -161 -418h-179q63 135 142 334l430 1057h84l461 -1119q43 -102 125 -272zM848 549l-219 577l-221 -577h440z" />
    <glyph glyph-name="uni0411" unicode="&#x411;" horiz-adv-x="1126" 
d="M500 0h-322v1376h785l-37 -149q-113 12 -219 12h-369v-434h137q281 0 413 -98.5t132 -296.5t-129 -304t-391 -106zM479 664h-141v-525h168q168 0 268 70t100 192q0 263 -395 263z" />
    <glyph glyph-name="uni0412" unicode="&#x412;" horiz-adv-x="1083" 
d="M512 0h-352q6 143 6 365v632q0 195 -4 379h319q186 0 294 -94t108 -242q0 -96 -52.5 -172.5t-136.5 -113.5q129 -35 208 -131.5t79 -223.5q0 -179 -126 -289t-343 -110zM815 397q0 123 -81 197t-212 74h-192v-535h172q147 0 230 70.5t83 193.5zM330 793h155
q106 0 171 62.5t65 165.5t-68.5 163.5t-187.5 60.5h-135v-452z" />
    <glyph glyph-name="uni0413" unicode="&#x413;" horiz-adv-x="892" 
d="M178 0v1376h703l-56 -153q-74 6 -168 6h-313v-1047q0 -129 4 -182h-170z" />
    <glyph glyph-name="uni0414" unicode="&#x414;" horiz-adv-x="1347" 
d="M963 1249h-308q-74 -702 -348 -1112l656 -4v1116zM1124 1380v-1247h142q4 -344 20 -510h-176l14 377h-919q0 -221 12 -377h-176l14 510h66q283 387 409 1247h594z" />
    <glyph glyph-name="uni0415" unicode="&#x415;" horiz-adv-x="962" 
d="M168 1040q0 143 -4 336h311q254 0 361 4l-25 -145q-101 4 -281 4t-200 -2v-451h143q233 0 322 2v-141q-176 4 -322 4h-143v-514h198q240 0 322 2v-141q-80 2 -315 2h-371v37l4 297v706z" />
    <glyph glyph-name="uni0416" unicode="&#x416;" horiz-adv-x="1810" 
d="M801 0v600h-178q-68 0 -148 -164l-213 -436h-184q49 69 196 377l43 94q92 180 177 211q-94 43 -185 215q-170 371 -246 479h191l225 -458q84 -168 152 -168h170v626h151v-626h205q68 0 152 168l225 458h190q-64 -95 -200 -385l-45 -94q-92 -176 -185 -211
q86 -39 176 -215q166 -365 240 -471h-184l-213 436q-80 164 -148 164h-213v-600h-151z" />
    <glyph glyph-name="uni0417" unicode="&#x417;" horiz-adv-x="1079" 
d="M707 1002q0 108 -67 171.5t-179 63.5q-160 0 -285 -94v157q152 74 316 74t272 -95t108 -255q0 -111 -65.5 -192.5t-181.5 -122.5q129 -31 207.5 -120t78.5 -210q0 -176 -127 -286.5t-340 -110.5q-150 0 -268 43v151q102 -59 248 -59t231.5 71.5t85.5 192.5t-90 186.5
t-233 65.5q-63 0 -99 -2v131h35l52 -2q141 0 221 67t80 175z" />
    <glyph glyph-name="uni0418" unicode="&#x418;" horiz-adv-x="1458" 
d="M172 283v761q0 207 -10 332h178q-8 -139 -8 -344v-733l872 1092h99q-4 -242 -5 -347v-749q0 -119 5 -295h-166q6 127 6 285v811l-869 -1096h-104q2 88 2 283z" />
    <glyph glyph-name="uni0419" unicode="&#x419;" horiz-adv-x="1492" 
d="M182 283v761q0 207 -10 332h178q-8 -139 -8 -344v-733l872 1092h99q-4 -242 -4 -347v-749q0 -119 4 -295h-166q6 127 6 285v811l-868 -1096h-105q2 88 2 283zM749 1425q-155 0 -241 82t-86 222h153q0 -78 43.5 -122t129.5 -44t130 45t44 121h155q0 -137 -86.5 -220.5
t-241.5 -83.5z" />
    <glyph glyph-name="uni041A" unicode="&#x41a;" horiz-adv-x="1206" 
d="M178 1376h160v-626h231q68 0 152 168l225 458h191q-68 -100 -201 -385l-45 -94q-92 -176 -184 -211q86 -39 176 -215q166 -365 239 -471h-184l-213 436q-82 166 -147 166h-240v-602h-160v1376z" />
    <glyph glyph-name="uni041B" unicode="&#x41b;" horiz-adv-x="1286" 
d="M78 -10q-31 0 -49 4v170q25 -4 41 -4q115 0 183.5 140t128.5 460t85 616h643v-1376h-154v1247h-348q-26 -297 -96 -631t-164 -480t-270 -146z" />
    <glyph glyph-name="uni041C" unicode="&#x41c;" horiz-adv-x="1652" 
d="M1352 0q0 145 -9 301l-34 758q-158 -295 -449 -871h-57l-455 871l-47 -748q-10 -160 -14 -311h-170q4 53 14 170t14 180l74 1039h98l519 -969l510 969h100l59 -1061q8 -182 25 -328h-178z" />
    <glyph glyph-name="uni041D" unicode="&#x41d;" horiz-adv-x="1413" 
d="M1085 788v261q0 168 -4 327h168q-4 -119 -4 -350v-770q0 -109 4 -256h-168q4 160 4 297v358h-757v-358q0 -209 4 -297h-170q4 168 4 313v713q0 178 -4 350h170q-4 -137 -4 -473v-115h757z" />
    <glyph glyph-name="uni041E" unicode="&#x41e;" horiz-adv-x="1589" 
d="M794 -23q-296 0 -495 202t-199 505t200 507t495 204t494.5 -205t199.5 -505t-199.5 -504t-495.5 -204zM794 115q228 0 375.5 162.5t147.5 407.5t-148.5 407.5t-372.5 162.5t-375 -160.5t-151 -408.5t148 -409.5t376 -161.5z" />
    <glyph glyph-name="uni041F" unicode="&#x41f;" horiz-adv-x="1370" 
d="M1030 330v903h-692v-905q0 -225 4 -328h-170q6 276 6 330v1046h1014l-2 -1048q0 -225 4 -328h-170q6 276 6 330z" />
    <glyph glyph-name="uni0420" unicode="&#x420;" horiz-adv-x="1026" 
d="M330 522v-180q0 -246 4 -342h-172q4 184 4 360v721q0 139 -4 295h293q229 0 354 -116t125 -308t-129 -311t-361 -119h-114zM330 651h114q143 0 231.5 80t88.5 217t-86 218t-234 81h-114v-596z" />
    <glyph glyph-name="uni0421" unicode="&#x421;" horiz-adv-x="1263" 
d="M819 117q201 0 350 96v-164q-168 -70 -366 -69q-305 0 -504 197.5t-199 498.5t203 510t514 209q172 0 350 -66v-168q-143 92 -342 92q-244 0 -399.5 -162.5t-155.5 -405.5t154.5 -405.5t394.5 -162.5z" />
    <glyph glyph-name="uni0422" unicode="&#x422;" horiz-adv-x="1153" 
d="M799 1239h-144v-885q0 -268 4 -354h-170q2 90 3 354v639q0 174 -3 246h-143q-217 0 -301 -4v141h762q236 0 313 2l-24 -143q-176 4 -297 4z" />
    <glyph glyph-name="uni0423" unicode="&#x423;" horiz-adv-x="1179" 
d="M283 -14q-57 0 -88 8v158q31 -8 71 -9q86 0 136.5 51.5t117.5 190.5l-477 991h203q26 -110 282 -628l84 -170q2 0 63.5 129t144.5 327.5t130 341.5h199l-471 -1059q-80 -178 -172 -254.5t-223 -76.5z" />
    <glyph glyph-name="uni0424" unicode="&#x424;" horiz-adv-x="1533" 
d="M1233 675q0 175 -94.5 276.5t-278.5 115.5v-776q184 10 278.5 109.5t94.5 274.5zM301 674q0 -176 95.5 -274.5t281.5 -108.5v778q-186 -14 -281.5 -116.5t-95.5 -278.5zM115 671.5q0 239.5 148.5 380t414.5 156.5q0 96 -6 168h194l-6 -168q264 -18 411.5 -158.5
t147.5 -378t-145.5 -371.5t-413.5 -150q0 -113 4 -187h-194l8 187q-270 16 -416.5 149t-146.5 372.5z" />
    <glyph glyph-name="uni0425" unicode="&#x425;" horiz-adv-x="1155" 
d="M573 569l-256 -407q-74 -125 -100 -162h-190q113 154 200 291l260 399l-247 391q-84 131 -195 295h199q57 -102 123 -207l217 -350q35 57 207 328q106 174 141 229h188q-113 -152 -200 -291l-250 -385l250 -399q57 -92 202 -301h-196q-55 100 -117 197z" />
    <glyph glyph-name="uni0426" unicode="&#x426;" horiz-adv-x="1406" 
d="M1329 141v-190q0 -225 4 -328h-170q4 184 4 330v47h-989v1049q0 225 -4 327h170q-4 -184 -4 -329v-906h682v908q0 225 -4 327h170q-4 -184 -4 -329v-906h145z" />
    <glyph glyph-name="uni0427" unicode="&#x427;" horiz-adv-x="1241" 
d="M330 1026q0 -193 78.5 -260.5t271.5 -67.5q88 0 201 15v344q0 217 -4 319h170q-4 -184 -5 -319v-729q0 -225 5 -328h-170q4 184 4 330v225q-106 -14 -197 -14q-264 0 -389 123.5t-125 394.5q0 215 -4 317h170q-6 -276 -6 -350z" />
    <glyph glyph-name="uni0428" unicode="&#x428;" horiz-adv-x="1845" 
d="M1647 1044v-1044h-1463v1047q0 227 -4 329h170q-6 -276 -6 -332v-888h508v888q0 229 -2 332h170q-6 -137 -6 -334v-886h473v891q0 125 -8 329h170q-2 -92 -2 -332z" />
    <glyph glyph-name="uni0429" unicode="&#x429;" horiz-adv-x="1880" 
d="M184 0v1051q0 223 -4 325h170q-6 -276 -6 -327v-893h508v893q0 225 -2 327h170q-6 -137 -6 -329v-891h473v895q0 121 -8 325h170q-2 -92 -2 -327v-893h159v-205q0 -225 4 -328h-170q4 184 5 330v47h-1461z" />
    <glyph glyph-name="uni042A" unicode="&#x42a;" horiz-adv-x="1396" 
d="M750 666h-103v-514h129q166 0 257 65.5t91 190.5q0 154 -109 206t-265 52zM770 0h-305v1249h-268q-84 0 -146 -10l-45 139h641v-561h96q547 0 547 -403q0 -197 -129 -305.5t-391 -108.5z" />
    <glyph glyph-name="uni042B" unicode="&#x42b;" horiz-adv-x="1509" 
d="M344 666v-514h131q166 0 257 65.5t91 190.5q0 258 -372 258h-107zM1325 1008v-680q0 -225 4 -328h-170q4 184 4 330v678q0 156 -4 368h170q-4 -110 -4 -368zM344 1008v-191h100q226 0 385.5 -87.5t159.5 -315.5q0 -197 -129 -305.5t-391 -108.5h-291l4 1008q0 156 -4 368
h170q-4 -111 -4 -368z" />
    <glyph glyph-name="uni042C" unicode="&#x42c;" horiz-adv-x="1126" 
d="M475 0h-291l4 1008q0 156 -4 368h170q-4 -111 -4 -368v-191h101q227 0 385.5 -88t158.5 -315q0 -197 -129 -305.5t-391 -108.5zM457 666h-107v-514h131q166 0 257 65.5t91 190.5q1 258 -372 258z" />
    <glyph glyph-name="uni042D" unicode="&#x42d;" horiz-adv-x="1222" 
d="M443 117q216 0 369 152.5t163 381.5h-322q-145 0 -321 -4v141q88 -2 321 -2h316q-41 207 -192.5 337t-351.5 130t-345 -92v168q178 66 350 66q303 0 510 -210t207 -510t-198.5 -497.5t-504.5 -197.5q-199 0 -366 69v164q149 -96 365 -96z" />
    <glyph glyph-name="uni042E" unicode="&#x42e;" horiz-adv-x="2015" 
d="M1281 135q200 0 324 148.5t124 386t-125 402.5t-322 165t-322.5 -162.5t-125.5 -402.5t123.5 -388.5t323.5 -148.5zM369 778h297q29 268 198.5 441.5t428.5 173.5t433.5 -210t174.5 -514t-173.5 -496.5t-440.5 -192.5t-437 183t-186 470h-295v-305q0 -225 4 -328h-170
q4 184 4 330v678q0 156 -4 368h170q-4 -111 -4 -368v-230z" />
    <glyph glyph-name="uni042F" unicode="&#x42f;" horiz-adv-x="1136" 
d="M737 700h133v545h-125q-135 0 -222 -71.5t-87 -197.5t89 -201t212 -75zM870 360v213h-188l-369 -573h-231q147 168 278 354l189 269q-281 90 -281 364q0 190 135.5 289.5t339.5 99.5h295q-4 -78 -4 -325v-684q0 -274 4 -367h-172q4 180 4 360z" />
    <glyph glyph-name="uni0430" unicode="&#x430;" horiz-adv-x="942" 
d="M840 633v-334q0 -186 34 -299h-149l-10 111q-66 -63 -157 -97t-173 -34q-135 0 -222 82.5t-87 216.5q0 289 405 307q129 6 224 6v37q0 98 -71.5 156.5t-189.5 58.5t-245 -94l-60 122q143 94 325 94t279 -84.5t97 -248.5zM215 281q0 -78 55.5 -128.5t129.5 -50.5t161.5 37
t143.5 92v244l-201 -6q-289 -10 -289 -188z" />
    <glyph glyph-name="uni0431" unicode="&#x431;" horiz-adv-x="1052" 
d="M529 88q130 0 222.5 110.5t92.5 269.5t-79 257t-241 98q-66 0 -143.5 -30.5t-136.5 -77.5q-2 -18 -2 -119q0 -236 78.5 -372t208.5 -136zM525 -20q-210 0 -324.5 157.5t-114.5 474.5q0 209 51 361.5t133 234.5q104 104 459 195q35 8 88 25.5t70 21.5v-152
q-256 -32 -423 -108t-214 -361q49 39 137 68t184 29q193 0 295.5 -125t102.5 -340t-117 -348t-327 -133z" />
    <glyph glyph-name="uni0432" unicode="&#x432;" horiz-adv-x="946" 
d="M418 831h-133v-290h149q88 0 139.5 34.5t51.5 103.5t-51.5 110.5t-155.5 41.5zM516 418h-231v-305h217q104 0 155.5 44.5t51.5 114.5t-53.5 108t-139.5 38zM498 0h-363v944h283q182 0 272 -70.5t90 -183.5q0 -145 -157 -203q115 -14 178 -73.5t63 -145.5
q0 -121 -91 -194.5t-275 -73.5z" />
    <glyph glyph-name="uni0433" unicode="&#x433;" horiz-adv-x="800" 
d="M311 788v-788h-176v944h637l-53 -156h-408z" />
    <glyph glyph-name="uni0434" unicode="&#x434;" horiz-adv-x="1099" 
d="M750 106v703h-252q-66 -478 -240 -703h492zM31 -190v296h63q135 133 196.5 317.5t104.5 520.5h504v-838h137v-296q0 -31 4 -146h-135q2 59 2 150v180h-747v-180q0 -89 2 -150h-135q4 115 4 146z" />
    <glyph glyph-name="uni0435" unicode="&#x435;" horiz-adv-x="991" 
d="M934 548q0 -70 -2 -93h-725q8 -166 100.5 -256t244.5 -90t331 110v-131q-137 -102 -342 -102t-339 130t-134 351t116.5 360.5t325.5 139.5q115 0 200 -38t132 -101.5t69.5 -136.5t22.5 -143zM516 836q-139 0 -216 -85t-91 -182h596q-4 121 -77 194t-212 73z" />
    <glyph glyph-name="uni0436" unicode="&#x436;" horiz-adv-x="1351" 
d="M571 412h-92q-45 0 -102 -113l-146 -299h-180q51 73 133 258l31 64q61 119 121 147q-61 18 -127 145q-117 256 -168 330h180l154 -317q55 -113 104 -113h94v432h164v-432h94q49 0 105 113l154 317h180q-45 -64 -137 -264l-31 -66q-66 -125 -127 -147q59 -25 121 -145
q115 -248 164 -322h-181l-145 299q-57 113 -103 113h-92v-412h-168v412z" />
    <glyph glyph-name="uni0437" unicode="&#x437;" horiz-adv-x="847" 
d="M563.5 728q0.5 101 -197.5 101q-100 0 -214 -59l-50 129q133 70 290 70t252 -73t95 -187q0 -76 -44 -133.5t-122 -79.5q186 -51 187 -228q0 -123 -101 -205.5t-263 -82.5t-287 61v143q135 -66 262 -65q213 0 213 155q0 147 -254 148q-49 0 -94 -4v133q27 -2 123 -2
t150 39t54.5 140z" />
    <glyph glyph-name="uni0438" unicode="&#x438;" horiz-adv-x="1079" 
d="M109 618q0 201 -11 324h148q-8 -135 -8 -336v-354l641 694h96q-4 -233 -4 -338v-321q0 -115 4 -287h-141q4 82 4 279v419l-631 -698h-101q2 86 3 276v342z" />
    <glyph glyph-name="uni0439" unicode="&#x439;" horiz-adv-x="1079" 
d="M109 618q0 201 -11 324h148q-8 -135 -8 -336v-354l641 694h96q-4 -233 -4 -338v-321q0 -115 4 -287h-141q4 82 4 279v419l-631 -698h-101q2 86 3 276v342zM550 1083q-144 0 -226 83t-82 218h149q0 -78 40 -122.5t120 -44.5t119 46t39 121h149q0 -135 -82 -218t-226 -83z
" />
    <glyph glyph-name="uni043A" unicode="&#x43a;" horiz-adv-x="909" 
d="M135 944h160v-430h94q49 0 105 113l155 317h178q-35 -50 -137 -264l-31 -66q-61 -121 -127 -145q59 -25 123 -147q113 -248 164 -322h-182l-145 299q-57 113 -103 113h-94v-412h-160v944z" />
    <glyph glyph-name="uni043B" unicode="&#x43b;" horiz-adv-x="1011" 
d="M737 248v563h-241q-47 -395 -163 -611t-265 -216q-4 0 -45 4v159q12 -4 26 -4q121 0 204 218.5t124 582.5h508q-4 -115 -4 -342v-352q0 -107 4 -250h-160q12 59 12 248z" />
    <glyph glyph-name="uni043C" unicode="&#x43c;" horiz-adv-x="1204" 
d="M279 309q0 -223 4 -309h-146q4 164 4 305v297q0 174 -4 342h170l299 -491l289 491h166q-4 -115 -4 -342v-352q0 -106 4 -250h-139l2 309v408l-283 -453h-80l-282 453v-408z" />
    <glyph glyph-name="uni043D" unicode="&#x43d;" horiz-adv-x="1044" 
d="M907 250q0 -106 4 -250h-155q2 78 2 254v174h-477v-170q0 -172 4 -258h-154q4 164 4 254v506q0 16 -4 184h154q-4 -76 -4 -184v-203h477v203q0 106 -2 184h155l-4 -184v-510z" />
    <glyph glyph-name="uni043E" unicode="&#x43e;" 
d="M80 470q0 206 135 348.5t331 142.5t330 -143.5t134 -348.5t-133.5 -345t-332 -140t-331.5 140t-133 346zM544 825q-134 0 -219 -111.5t-85 -253.5t86 -243.5t221 -101.5t219 101t84 255t-86 254t-220 100z" />
    <glyph glyph-name="uni043F" unicode="&#x43f;" horiz-adv-x="1032" 
d="M897 944v-625q0 -219 4 -319h-156q4 180 5 322v483h-469v-486q0 -219 4 -319h-160q6 270 6 322v622h766z" />
    <glyph glyph-name="uni0440" unicode="&#x440;" horiz-adv-x="1026" 
d="M805 481q0 162 -103.5 260.5t-252.5 98.5q-70 -1 -164 -21v-676q90 -33 172 -32q150 0 249 104t99 266zM285 -473h-156v1384q172 57 326 58q233 0 362 -130.5t129 -352.5t-137 -364t-344 -142q-82 -1 -180 30v-483z" />
    <glyph glyph-name="uni0441" unicode="&#x441;" horiz-adv-x="872" 
d="M539 -20q-209 0 -333 136t-124 348t134 358.5t345 146.5q135 0 242 -60v-153q-133 86 -228 86q-143 0 -247.5 -107.5t-104.5 -264.5t99.5 -260.5t235.5 -103.5t230 87l52 -125q-129 -88 -301 -88z" />
    <glyph glyph-name="uni0442" unicode="&#x442;" horiz-adv-x="888" 
d="M539 811v-465q0 -262 4 -346h-166q2 88 2 346v465h-119q-131 0 -213 -4v137h666q82 0 157 2l-24 -139l-158 4h-149z" />
    <glyph glyph-name="uni0443" unicode="&#x443;" horiz-adv-x="964" 
d="M201 -279q74 0 151 179l58 133q-66 152 -197 456t-197 455h181l288 -747l222 548q37 92 69 199h172q-334 -797 -442 -1018l-43 -90q-100 -227 -266 -227h-125q2 8 47 112h82z" />
    <glyph glyph-name="uni0444" unicode="&#x444;" horiz-adv-x="1300" 
d="M1057 475q0 139 -94.5 238.5t-239.5 113.5v-706q145 14 239.5 114.5t94.5 239.5zM231 475q0 -139 101 -239.5t246 -114.5v706q-150 -16 -248.5 -114.5t-98.5 -237.5zM82 474q0 208 131 341t365 152l-13 409h170l-12 -409q231 -18 363.5 -152.5t132.5 -339.5t-130 -339
t-366 -154l12 -455h-170l13 455q-231 18 -363.5 151t-132.5 341z" />
    <glyph glyph-name="uni0445" unicode="&#x445;" horiz-adv-x="952" 
d="M725 0l-244 362q-162 -244 -235 -362h-178q72 96 147 209l182 262q-139 207 -171 256t-87 124t-67 93h184q49 -84 111 -176l122 -190l127 190q16 25 101 176h180q-59 -82 -143 -207l-179 -264l211 -311q57 -88 113 -162h-174z" />
    <glyph glyph-name="uni0446" unicode="&#x446;" horiz-adv-x="1079" 
d="M860 0h-737v625q0 219 -4 319h164q-6 -270 -7 -321v-492h443v494q0 219 -4 319h166q-4 -180 -4 -321v-492h139l2 -133q0 -204 4 -320h-166q4 180 4 322z" />
    <glyph glyph-name="uni0447" unicode="&#x447;" horiz-adv-x="974" 
d="M248 635q0 -154 258 -154q128 0 199 37v197q0 119 -7 229h144v-625q0 -219 2 -319h-146q4 180 4 375q-96 -20 -229 -21q-362 0 -362 281v309h149q-12 -135 -12 -309z" />
    <glyph glyph-name="uni0448" unicode="&#x448;" horiz-adv-x="1402" 
d="M1272 625v-625h-1153v627q0 219 -2 319h164q-4 -180 -5 -321v-482h349v482q0 219 -2 319h165q-6 -270 -6 -321v-480h334v484q0 119 -8 319h166q-2 -90 -2 -321z" />
    <glyph glyph-name="uni0449" unicode="&#x449;" horiz-adv-x="1452" 
d="M1272 625v-486h108v-225q0 -180 4 -242h-165q6 51 6 328h-1106v627q0 219 -2 319h164q-4 -180 -5 -321v-484h349v484q0 219 -2 319h165q-6 -270 -6 -321v-482h334v486q0 170 -6 319h164q-2 -90 -2 -321z" />
    <glyph glyph-name="uni044A" unicode="&#x44a;" horiz-adv-x="1183" 
d="M684 465h-104v-330h122q109 0 176.5 43t67.5 123q0 164 -262 164zM709 0h-269v840h-170q-94 0 -153 -4l-41 110h504v-354h108q395 0 395 -293q0 -143 -93 -221t-281 -78z" />
    <glyph glyph-name="uni044B" unicode="&#x44b;" horiz-adv-x="1253" 
d="M289 592h131q395 0 395 -293q0 -141 -94 -220t-283 -79h-286l2 594q0 141 -4 350h145q-6 -87 -6 -352zM289 135h145q109 0 176.5 43t67.5 123q0 164 -262 164h-127v-330zM1108 586v-267q0 -219 4 -319h-166q4 180 4 322v264q0 150 -4 358h166q-4 -106 -4 -358z" />
    <glyph glyph-name="uni044C" unicode="&#x44c;" horiz-adv-x="927" 
d="M289 592h131q395 0 395 -293q0 -141 -94 -220t-283 -79h-286l2 594q0 141 -4 350h145q-6 -87 -6 -352zM434 135q223 0 223 173q0 87 -65.5 122t-175.5 35h-127v-330h145z" />
    <glyph glyph-name="uni044D" unicode="&#x44d;" horiz-adv-x="923" 
d="M344 111q166 0 267.5 87t113.5 234h-459v129h449q-31 119 -129 191.5t-252 72.5t-273 -96v154q129 74 297 73q229 0 372.5 -138t143.5 -349t-144 -348t-356 -137t-313 79v150q39 -37 117 -69.5t166 -32.5z" />
    <glyph glyph-name="uni044E" unicode="&#x44e;" horiz-adv-x="1435" 
d="M1188 474q0 159 -69.5 254t-189.5 95t-191.5 -95t-71.5 -254t71.5 -254t190.5 -95t189.5 95t70.5 254zM297 412v-93q0 -219 4 -319h-166q4 180 4 322v266q0 147 -4 356h166q-4 -106 -4 -379h215q23 182 134.5 293t293.5 111t298 -145.5t116 -346.5t-115 -349t-301 -148
t-299 122.5t-131 309.5h-211z" />
    <glyph glyph-name="uni044F" unicode="&#x44f;" horiz-adv-x="960" 
d="M276 649q0 -70 61.5 -111.5t143.5 -41.5h199v327h-186q-90 0 -154 -52t-64 -122zM141 657q0 129 86 208t250 79h348v-751q0 -139 4 -193h-159q10 98 10 180v178h-215l-223 -358h-217q106 112 159 188l148 203q-80 31 -135.5 106.5t-55.5 159.5z" />
    <glyph glyph-name="uni0450" unicode="&#x450;" horiz-adv-x="997" 
d="M430 1374l158 -297h-129l-199 297h170zM930 540q0 -70 -2 -91h-725q8 -166 100.5 -256.5t244.5 -90.5t331 111v-131q-137 -102 -342 -102t-339.5 130t-134.5 351t117 360.5t326 139.5q115 0 200 -38t132 -101.5t69.5 -137.5t22.5 -144zM512 829q-139 0 -216 -85t-91 -181
h596q-4 121 -77 193.5t-212 72.5z" />
    <glyph glyph-name="uni0451" unicode="&#x451;" horiz-adv-x="991" 
d="M938 576q0 -88 -2 -109h-727q8 -170 99 -262t247 -92t332 110v-133q-145 -104 -347 -104t-337 132t-135 360t117.5 369.5t326.5 141.5q152 0 251 -68.5t137 -162.5t38 -182zM519 854q-140 0 -217 -86t-91 -186h596q-4 125 -76 198.5t-212 73.5zM687 1137
q-36 0 -63.5 25.5t-27.5 61.5t27.5 61.5t63.5 25.5t61.5 -25.5t25.5 -61.5t-25.5 -61.5t-61.5 -25.5zM217 1224q0 36 26.5 61.5t61.5 25.5t62.5 -25.5t27.5 -61.5t-26.5 -61.5t-62.5 -25.5t-62.5 25.5t-26.5 61.5z" />
    <glyph glyph-name="uni0452" unicode="&#x452;" horiz-adv-x="1071" 
d="M324 1307v-33h82q150 0 217 4v-141q-59 4 -199 4h-100v-326q147 141 308 141t257 -141t96 -403q0 -514 -391 -717l-84 133q324 176 324 588q0 186 -61.5 293.5t-176.5 107.5t-272 -151v-412q0 -197 2 -254h-176q10 86 10 236v905q-86 0 -125 -4v141l125 -4q0 94 -10 176
h184q-10 -57 -10 -143z" />
    <glyph glyph-name="uni0453" unicode="&#x453;" horiz-adv-x="796" 
d="M129 375v569h637l-53 -139q-195 8 -426 8v-442l8 -371h-174q8 154 8 375zM532 1374h170q-158 -236 -200 -295h-127z" />
    <glyph glyph-name="uni0454" unicode="&#x454;" horiz-adv-x="927" 
d="M37 469q0 211 143.5 349t372.5 138q168 0 297 -73v-154q-118 96 -272 96t-252.5 -72.5t-128.5 -191.5h448v-129h-459q12 -147 113.5 -234t267.5 -87q88 0 166 32.5t117 69.5v-150q-102 -79 -313 -79t-355.5 137t-144.5 348z" />
    <glyph glyph-name="uni0455" unicode="&#x455;" horiz-adv-x="768" 
d="M682 246q0 -122 -90 -195.5t-242 -73.5t-274 68q14 92 26 152q109 -98 246 -99q82 0 134.5 38t52.5 92t-32 90t-62.5 53.5t-86.5 46.5q-105 54 -174 113.5t-69 172.5t84 185t227 72q92 0 225 -39v-152q-101 70 -199 70t-144 -34t-46 -93t52.5 -97t117.5 -70
q108 -54 181 -116t73 -184z" />
    <glyph glyph-name="uni0456" unicode="&#x456;" horiz-adv-x="458" 
d="M154 209v526q0 147 -7 209h168q-6 -68 -6 -209v-526q0 -147 6 -209h-168q7 68 7 209zM145 1247q0 41 29 71t70 30t70.5 -30t29.5 -71t-29.5 -69.5t-70.5 -28.5t-70 28.5t-29 69.5z" />
    <glyph glyph-name="uni0457" unicode="&#x457;" horiz-adv-x="458" 
d="M154 209v526q0 147 -7 209h168q-6 -68 -6 -209v-526q0 -147 6 -209h-168q7 68 7 209zM421 1137q-36 0 -63.5 25.5t-27.5 61.5t27.5 61.5t63.5 25.5t61.5 -25.5t25.5 -61.5t-25.5 -61.5t-61.5 -25.5zM-49 1224q0 36 26.5 61.5t61.5 25.5t62.5 -25.5t27.5 -61.5
t-26.5 -61.5t-62.5 -25.5t-62.5 25.5t-26.5 61.5z" />
    <glyph glyph-name="uni0458" unicode="&#x458;" horiz-adv-x="471" 
d="M145 1247q0 41 29 71t70 30t70.5 -30t29.5 -71t-29.5 -69.5t-70.5 -28.5t-70 28.5t-29 69.5zM311 735v-850q0 -82 -2 -98q-16 -143 -99 -216t-214 -73h-127v125h127q166 0 166 268v844q0 147 -6 209h161q-6 -68 -6 -209z" />
    <glyph glyph-name="uni0459" unicode="&#x459;" horiz-adv-x="1472" 
d="M88 -16q-2 0 -47 4v159q12 -4 29 -4q94 0 180 221.5t125 579.5h469q-4 -94 -4 -158l4 -200q61 6 117 6q211 0 312 -78t101 -216t-97 -218t-304 -80h-289v811h-188q-29 -223 -88.5 -425t-114.5 -276t-97 -100t-108 -26zM844 127h125q115 0 184.5 46t69.5 123t-68 121
t-199 44q-55 0 -112 -6v-328z" />
    <glyph glyph-name="uni045A" unicode="&#x45a;" horiz-adv-x="1499" 
d="M748 0v428h-441v-139q0 -203 4 -289h-166q4 164 5 305v297q0 174 -5 342h166q-4 -156 -4 -383h443q0 174 -5 383h146q-4 -106 -4 -358q59 6 114 6q416 0 416 -293q0 -299 -401 -299h-268zM887 139h125q129 0 199.5 41t70.5 115q0 154 -283 154q-57 -1 -112 -7v-303z" />
    <glyph glyph-name="uni045B" unicode="&#x45b;" horiz-adv-x="1093" 
d="M604 1278v-141h-285v-338q137 162 328 162t288 -111t97 -309v-346q0 -141 4 -195h-168q4 133 4 330v248q0 256 -264 256q-86 0 -168 -59.5t-121 -153.5v-433q0 -86 5 -188h-166q4 106 4 193v944h-144v141h144v113h-80l49 86h195q-6 -45 -7 -199h285z" />
    <glyph glyph-name="uni045C" unicode="&#x45c;" horiz-adv-x="909" 
d="M295 944v-430h94q49 0 105 113l155 317h178q-51 -74 -168 -330q-61 -121 -127 -145q59 -25 123 -147l29 -64q104 -212 135 -258h-182l-145 299q-57 113 -103 113h-94v-412h-160v944h160zM561 1374h170q-158 -236 -201 -295h-127z" />
    <glyph glyph-name="uni045D" unicode="&#x45d;" horiz-adv-x="1069" 
d="M137 0v944h166q-4 -37 -4 -133v-578l506 711h166v-944h-168q6 137 6 190v508l-506 -698h-166zM467 1374l158 -297h-129l-199 297h170z" />
    <glyph glyph-name="uni045E" unicode="&#x45e;" horiz-adv-x="999" 
d="M201 -279q74 0 151 179l58 133q-66 152 -197 456t-197 455h181l288 -747l222 548q37 92 69 199h172q-354 -844 -485 -1108q-100 -227 -266 -227h-125q2 8 47 112h82zM509 1083q-144 0 -226 83t-82 218h149q0 -78 40 -122.5t120 -44.5t119 46t39 121h149q0 -135 -82 -218
t-226 -83z" />
    <glyph glyph-name="uni045F" unicode="&#x45f;" horiz-adv-x="1054" 
d="M616 0v-45q0 -240 5 -332h-175q4 184 5 330v47h-318v696q0 80 -4 248h170q-4 -184 -4 -248v-540h442v540q0 80 -4 248h170q-4 -184 -4 -248v-696h-283z" />
    <glyph glyph-name="Wgrave" unicode="&#x1e80;" horiz-adv-x="1929" 
d="M616 1786h168q152 -279 160 -295h-129zM956 926l-317 -934h-145l-467 1384h184l348 -1108h23l290 877l-79 231h182l362 -1108h17q29 115 332 1108h178l-453 -1384h-145z" />
    <glyph glyph-name="wgrave" unicode="&#x1e81;" horiz-adv-x="1402" 
d="M422 1374h170q27 -53 82 -153.5t76 -141.5h-127zM426 244l227 700h107q47 -133 241 -717l187 586q31 90 39 131h164q-14 -37 -84 -225l-263 -737h-83l-256 745l-250 -745h-90l-269 741q-42 114 -82 221h174q31 -119 66 -213z" />
    <glyph glyph-name="Wacute" unicode="&#x1e82;" horiz-adv-x="1929" 
d="M987 1786h170l-201 -295h-127zM956 926l-317 -934h-145l-467 1384h184l348 -1108h23l290 877l-79 231h182l362 -1108h17q29 115 332 1108h178l-453 -1384h-145z" />
    <glyph glyph-name="wacute" unicode="&#x1e83;" horiz-adv-x="1402" 
d="M815 1374h170q-158 -236 -201 -295h-127zM426 244l227 700h107q47 -133 241 -717l187 586q31 90 39 131h164q-14 -37 -84 -225l-263 -737h-83l-256 745l-250 -745h-90l-269 741q-42 114 -82 221h174q31 -119 66 -213z" />
    <glyph glyph-name="Wdieresis" unicode="&#x1e84;" horiz-adv-x="1929" 
d="M1156 1548q-36 0 -62.5 27t-26.5 63t26.5 61t62.5 25t61.5 -25.5t25.5 -61.5t-25.5 -62.5t-61.5 -26.5zM686 1637q0 36 26.5 61.5t61.5 25.5t62.5 -25.5t27.5 -61.5t-27.5 -62.5t-62.5 -26.5t-61.5 26.5t-26.5 62.5zM956 926l-317 -934h-145l-467 1384h184l348 -1108h23
l290 877l-79 231h182l362 -1108h17q29 115 332 1108h178l-453 -1384h-145z" />
    <glyph glyph-name="wdieresis" unicode="&#x1e85;" horiz-adv-x="1402" 
d="M894 1137q-36 0 -63.5 25.5t-27.5 61.5t27.5 61.5t63.5 25.5t61.5 -25.5t25.5 -61.5t-25.5 -61.5t-61.5 -25.5zM424 1224q0 36 26.5 61.5t61.5 25.5t62.5 -25.5t27.5 -61.5t-26.5 -61.5t-62.5 -25.5t-62.5 25.5t-26.5 61.5zM426 244l227 700h107q47 -133 241 -717
l187 586q31 90 39 131h164q-14 -37 -84 -225l-263 -737h-83l-256 745l-250 -745h-90l-269 741q-42 114 -82 221h174q31 -119 66 -213z" />
    <glyph glyph-name="Ygrave" unicode="&#x1ef2;" horiz-adv-x="1165" 
d="M324 1786h170q20 -41 75.5 -141.5t81.5 -153.5h-127zM504 334v262l-318 520q-18 31 -82.5 131.5t-80.5 128.5h190q48 -98 188 -327.5t187 -309.5l262 443q27 45 111 194h184q-10 -16 -36 -55t-38 -59l-407 -668v-262q0 -144 4 -332h-168q4 172 4 334z" />
    <glyph glyph-name="ygrave" unicode="&#x1ef3;" horiz-adv-x="964" 
d="M223 1374h170q27 -53 82 -153.5t76 -141.5h-127zM201 -279q74 0 151 179l58 133q-66 152 -197 456t-197 455h181l288 -747l222 548q37 92 69 199h172q-334 -797 -442 -1018l-43 -90q-100 -227 -266 -227h-125q2 8 47 112h82z" />
    <glyph glyph-name="endash" unicode="&#x2013;" horiz-adv-x="958" 
d="M20 559h918v-123h-918v123z" />
    <glyph glyph-name="emdash" unicode="&#x2014;" horiz-adv-x="1843" 
d="M-6 559h1855v-123h-1855v123z" />
    <glyph glyph-name="uni2015" unicode="&#x2015;" horiz-adv-x="1730" 
d="M20 559h1625v-123h-1625v123z" />
    <glyph glyph-name="quoteleft" unicode="&#x2018;" horiz-adv-x="425" 
d="M266 1208q0 -117 25 -217l-144 -35q-25 109 -25 234t79 266q25 -2 104 -10q-39 -121 -39 -238z" />
    <glyph glyph-name="quoteright" unicode="&#x2019;" horiz-adv-x="425" 
d="M158 1192q0 123 -23 229l141 33q27 -102 27 -188q0 -150 -80 -312l-102 11q37 104 37 227z" />
    <glyph glyph-name="quotesinglbase" unicode="&#x201a;" horiz-adv-x="425" 
d="M158 -58q0 104 -27 234l145 35q27 -106 27 -188q0 -166 -80 -312l-102 10q37 117 37 221z" />
    <glyph glyph-name="quotedblleft" unicode="&#x201c;" horiz-adv-x="747" 
d="M590 1215q0 -124 24 -224l-145 -35q-27 94 -27 199q0 156 82 301l103 -10q-37 -107 -37 -231zM266 1208q0 -117 25 -217l-146 -35q-25 109 -24 189q0 170 78 311l106 -10q-39 -121 -39 -238z" />
    <glyph glyph-name="quotedblright" unicode="&#x201d;" horiz-adv-x="747" 
d="M479 1190q0 102 -26 229l145 35q27 -90 27 -222t-78 -278l-107 11q39 123 39 225zM156 1182q0 110 -27 237l147 35q27 -102 27 -188q0 -152 -82 -312l-102 11q37 107 37 217z" />
    <glyph glyph-name="quotedblbase" unicode="&#x201e;" horiz-adv-x="747" 
d="M479 -47q0 94 -26 221l145 37q27 -98 27 -199q0 -160 -78 -301l-109 10q41 138 41 232zM156 -58q0 104 -27 234l147 35q27 -106 27 -188q0 -168 -82 -312l-102 10q37 117 37 221z" />
    <glyph glyph-name="dagger" unicode="&#x2020;" horiz-adv-x="909" 
d="M393 1004q0 70 -14 319h149q-14 -250 -14 -319q117 0 287 16v-139q-213 16 -287 16l8 -510q0 -223 2 -283h-141q2 59 2 283l8 510q-66 0 -287 -16v139q170 -16 287 -16z" />
    <glyph glyph-name="daggerdbl" unicode="&#x2021;" horiz-adv-x="917" 
d="M385 1323h145q0 -32 -10 -307q106 0 279 16v-139q-219 14 -279 14l4 -188q0 -80 -4 -199q59 0 279 15v-140q-172 16 -279 17l10 -308h-145q0 12 10 308q-106 0 -278 -17v140q2 0 51 -5q215 -10 227 -10q-4 119 -4 199l4 188q-59 0 -278 -14v139q172 -16 278 -16
q-10 275 -10 307z" />
    <glyph glyph-name="bullet" unicode="&#x2022;" horiz-adv-x="710" 
d="M353 365q-83 0 -142 60t-59 145t58 145.5t142 60.5t144.5 -60.5t60.5 -145.5t-60.5 -145t-143.5 -60z" />
    <glyph glyph-name="ellipsis" unicode="&#x2026;" horiz-adv-x="1935" 
d="M227 90q0 43 33 76t76 33t73.5 -31t30.5 -74t-32.5 -74.5t-75.5 -32.5t-74 29.5t-31 73.5zM1497 90q0 43 33 76t76 33t73.5 -31t30.5 -74t-31.5 -74.5t-75.5 -32.5t-75 29.5t-31 73.5zM860 90q0 43 33 76t75 33t72.5 -31t30.5 -74t-31.5 -74.5t-74.5 -32.5t-74 29.5
t-31 73.5z" />
    <glyph glyph-name="perthousand" unicode="&#x2030;" horiz-adv-x="2347" 
d="M405.5 1380q133.5 0 220.5 -94t87 -243.5t-88 -246t-221.5 -96.5t-221.5 96t-88 244t89 244t222.5 96zM1943.5 666q131.5 0 220.5 -95.5t89 -243t-89 -243.5t-221 -96t-220.5 94t-88.5 244t89 245t220.5 95zM1205 666q130 0 219 -94.5t89 -242.5t-88 -244.5t-220 -96.5
t-220 94t-88 244t89 245t219 95zM260 0q117 167 950 1370h140l-955 -1370h-135zM1205 557q-83 0 -133 -64.5t-50 -166.5t50 -168t133 -66t133.5 65t50.5 169t-50.5 167.5t-133.5 63.5zM404 805q84 0 134 69.5t50 169.5t-54.5 164t-132.5 64t-129 -62t-51 -168t49.5 -171.5
t133.5 -65.5zM1944 557q-82 0 -133.5 -64.5t-51.5 -164.5t50.5 -168t133.5 -68t133 65t50 169t-50 167.5t-132 63.5z" />
    <glyph glyph-name="guilsinglleft" unicode="&#x2039;" horiz-adv-x="735" 
d="M100 385v115l475 366v-164l-323 -256l323 -233v-162z" />
    <glyph glyph-name="guilsinglright" unicode="&#x203a;" horiz-adv-x="735" 
d="M664 385l-476 -334v162l324 233l-324 256v164l476 -366v-115z" />
    <glyph glyph-name="fraction" unicode="&#x2044;" horiz-adv-x="286" 
d="M514 1360h123q-92 -145 -870 -1360h-123z" />
    <glyph glyph-name="Euro" unicode="&#x20ac;" horiz-adv-x="1073" 
d="M72 586h135q-2 31 -2 88t2 86h-135v96h149q43 246 178.5 382t335.5 136q117 0 254 -53v-166q-100 80 -241.5 80t-234.5 -100.5t-122 -278.5h498l-23 -96h-493q-2 -29 -2 -87t2 -87h485l-20 -97h-449q29 -170 123 -271t233 -101t238 82l33 -154q-131 -61 -285 -61
q-209 0 -342 131t-170 374h-147v97z" />
    <glyph glyph-name="uni2116" unicode="&#x2116;" horiz-adv-x="2152" 
d="M2101 281h-645v118h645v-118zM322 285q0 -158 6 -285h-166q4 176 4 295v749q0 104 -4 347h98l873 -1092v733q0 205 -9 344h179q-10 -125 -11 -332v-761q0 -195 2 -283h-104l-868 1096v-811zM1423 892q0 151 103.5 255t254.5 104t253 -104.5t102 -254.5t-102.5 -253.5
t-254 -103.5t-254 103t-102.5 254zM1778 1153q-102 0 -167 -82.5t-65 -186.5t65 -178.5t169 -74.5t168.5 73.5t64.5 187.5t-66.5 187.5t-168.5 73.5z" />
    <glyph glyph-name="uni2117" unicode="&#x2117;" horiz-adv-x="1503" 
d="M744 1317q272 0 465.5 -192.5t193.5 -464.5t-188.5 -468t-461.5 -196t-463 192.5t-191 461.5t186 468t459 199zM746 80q236 0 396.5 169t160.5 402t-158 405.5t-392 172.5t-392 -165.5t-162 -399.5t153.5 -409t393.5 -175zM555 1018h203q129 0 199.5 -63.5t70.5 -173.5
t-71.5 -174t-202.5 -64h-92v-119q0 -96 2 -139h-109l2 88v446l-2 115v84zM662 629h88q84 0 129 40t45 111.5t-44 113.5t-126 42h-92v-307z" />
    <glyph glyph-name="trademark" unicode="&#x2122;" horiz-adv-x="1484" 
d="M1239 741q0 100 -2 146l-8 321q-68 -122 -207 -354h-43l-203 352q-6 -215 -8 -319l-2 -146h-121q4 55 8 156l17 483h98l233 -407q59 104 228 407h100l19 -483q4 -98 8 -156h-117zM571 1280h-202v-379q0 -117 2 -160h-121q6 88 6 158v381h-197v96h512v-96z" />
    <glyph glyph-name="Omega" unicode="&#x2126;" horiz-adv-x="1673" 
d="M659 0h-270q-219 0 -311 -6v137q109 -8 272 -8h150q-168 92 -267.5 256t-99.5 338q0 301 210 502.5t502 201.5t494.5 -210t202.5 -494q0 -184 -102.5 -343t-265.5 -251h129q184 0 292 8v-137q-96 6 -329 6h-252v137q166 82 267 238.5t101 335.5q0 238 -159 408.5
t-391 170.5t-388.5 -175t-152.5 -404q2 -186 102.5 -338t265.5 -236v-137z" />
    <glyph glyph-name="estimated" unicode="&#x212e;" horiz-adv-x="1658" 
d="M356 639v-377q61 -111 197.5 -172t280.5 -61q289 0 475 215h139q-219 -260 -621 -260q-190 0 -361 78.5t-283.5 236.5t-112.5 358q0 293 226 485.5t535 192.5q201 0 369 -83t273.5 -243.5t111.5 -369.5h-1229zM1305 686v367q-41 102 -180 166.5t-287 64.5t-287 -61.5
t-195 -173.5v-363h949z" />
    <glyph glyph-name="onethird" unicode="&#x2153;" horiz-adv-x="1646" 
d="M1315 1360l-871 -1360h-120l866 1360h125zM459 1368v-680q0 -68 4 -113h-129v658q-63 -23 -203 -80l-22 96q145 59 276 119h74zM1407 571q1 117 -151 117q-78 0 -154 -51l-19 108q104 45 207 45t175.5 -51t72.5 -147q0 -131 -164 -189q86 -18 137.5 -69t51.5 -137
t-78 -148.5t-207 -62.5t-211 39q5 22 10.5 58t7.5 48q61 -45 158 -45q187 0 187 135q0 61 -48.5 96t-138.5 35h-55v94h41q178 0 178 125z" />
    <glyph glyph-name="twothirds" unicode="&#x2154;" horiz-adv-x="1646" 
d="M1329 1360l-868 -1360h-125l870 1360h123zM1407 571q1 117 -151 117q-78 0 -154 -51l-19 108q104 45 207 45t175.5 -51t72.5 -147q0 -131 -164 -189q86 -18 137.5 -69t51.5 -137t-78 -148.5t-207 -62.5t-211 39q5 22 10.5 58t7.5 48q61 -45 158 -45q187 0 187 135
q0 61 -48.5 96t-138.5 35h-55v94h41q178 0 178 125zM51 569v113q18 20 130 120.5t174.5 178.5t62.5 137.5t-37 98t-119 38.5t-170 -71q-8 57 -20 119q106 61 222 61t188.5 -60.5t72.5 -153.5t-38 -148.5t-67.5 -93t-117.5 -113.5t-146 -121h211q72 0 174 4v-109h-520z" />
    <glyph glyph-name="oneeighth" unicode="&#x215b;" horiz-adv-x="1646" 
d="M1008 588q0 90 69 148.5t177 58.5t177.5 -58.5t69.5 -148.5q0 -123 -131 -176q160 -59 160 -199q0 -96 -77 -160.5t-201 -64.5t-197.5 60.5t-73.5 143.5q0 159 156 216q-129 63 -129 180zM1268 1360l-871 -1360h-121l867 1360h125zM1253 348q-59 0 -103 -34.5t-44 -92
t44 -95.5t104 -38t104.5 37t44.5 93t-45.5 93t-104.5 37zM1378 580q0 51 -35 82.5t-89 31.5t-89 -31.5t-35 -82.5t40 -85t104 -40q104 31 104 125zM459 1370v-680q0 -68 4 -112h-129v657q-63 -23 -203 -80l-22 96q145 59 276 119h74z" />
    <glyph glyph-name="threeeighths" unicode="&#x215c;" horiz-adv-x="1646" 
d="M1008 588q0 90 69 148.5t177 58.5t177.5 -58.5t69.5 -148.5q0 -123 -131 -176q160 -59 160 -199q0 -96 -77 -160.5t-201 -64.5t-197.5 60.5t-73.5 143.5q0 159 156 216q-129 63 -129 180zM1292 1360l-870 -1360h-121l866 1360h125zM1253 348q-59 0 -103 -34.5t-44 -92
t45 -95.5t104.5 -38t103.5 37t44 93t-45.5 93t-104.5 37zM1378 580q0 51 -35 82.5t-89 31.5t-89 -31.5t-35 -82.5t40 -85t104 -40q104 31 104 125zM432 1149q0 117 -152 117q-78 0 -153 -52l-18 109q105 45 207 45t174.5 -51t72.5 -148q0 -131 -164 -188q86 -18 137.5 -69.5
t51.5 -137.5t-78 -148.5t-207 -62.5t-211 39q4 16 7 34.5t6.5 39t5.5 33.5q61 -45 157 -45q186 0 187 135q0 61 -48.5 96t-138.5 35h-55v94h41q178 0 178 125z" />
    <glyph glyph-name="fiveeighths" unicode="&#x215d;" horiz-adv-x="1646" 
d="M1008 588q0 90 69 148.5t177 58.5t177.5 -58.5t69.5 -148.5q0 -123 -131 -176q160 -59 160 -199q0 -96 -77 -160.5t-201 -64.5t-197.5 60.5t-73.5 143.5q0 159 156 216q-129 63 -129 180zM426 1249h-152l-24 -207q29 12 67 13q131 0 201 -61.5t70 -176.5t-82 -185.5
t-202 -70.5t-218 43l20 107q66 -47 159 -47t141.5 40.5t48.5 110.5q0 147 -197 148q-74 0 -127 -17l41 410h262q98 0 135 2q-3 -12 -16 -111q-47 2 -127 2zM1282 1360l-870 -1360h-121l866 1360h125zM1253 348q-59 0 -103 -34.5t-44 -92t45 -95.5t104.5 -38t103.5 37t44 93
t-45.5 93t-104.5 37zM1378 580q0 51 -35 82.5t-89 31.5t-89 -31.5t-35 -82.5t40 -85t104 -40q104 31 104 125z" />
    <glyph glyph-name="seveneighths" unicode="&#x215e;" horiz-adv-x="1646" 
d="M1008 588q0 90 69 148.5t177 58.5t177.5 -58.5t69.5 -148.5q0 -123 -131 -176q160 -59 160 -199q0 -96 -77 -160.5t-201 -64.5t-197.5 60.5t-73.5 143.5q0 159 156 216q-129 63 -129 180zM1268 1360l-871 -1360h-121l867 1360h125zM274 1245q-72 0 -92 -2q-4 43 -16 113
h590q-256 -512 -391 -785h-140q41 68 80 152l254 522h-285zM1253 348q-59 0 -103 -34.5t-44 -92t44 -95.5t104 -38t104.5 37t44.5 93t-45.5 93t-104.5 37zM1378 580q0 51 -35 82.5t-89 31.5t-89 -31.5t-35 -82.5t40 -85t104 -40q104 31 104 125z" />
    <glyph glyph-name="partialdiff" unicode="&#x2202;" horiz-adv-x="1105" 
d="M474 1327q-163 0 -290 -82l-24 133q133 84 319 84q238 0 384.5 -190.5t146.5 -532.5t-139.5 -548.5t-391.5 -206.5q-176 0 -290.5 118t-114.5 306t130 327t343 135q124 -4 179.5 -41.5t104.5 -83.5q2 37 3 52q0 217 -98.5 373.5t-261.5 156.5zM492 113q141 0 231 121.5
t104 349.5q-41 63 -117.5 107t-162.5 44q-137 0 -224 -92.5t-87 -230.5t73.5 -218.5t182.5 -80.5z" />
    <glyph glyph-name="Delta" unicode="&#x2206;" horiz-adv-x="1273" 
d="M1253 0h-1233q68 142 277 665t295 732h86l438 -1080q94 -231 137 -317zM1014 137l-383 1010q-211 -571 -381 -1010h764z" />
    <glyph glyph-name="product" unicode="&#x220f;" horiz-adv-x="1347" 
d="M1149 1126v-1001q0 -186 4 -395h-172q4 100 4 393v1071h-633v-1071q0 -295 4 -393h-174q4 242 4 393v1003h-149l-2 250h1288q-27 -121 -57 -250h-117z" />
    <glyph glyph-name="summation" unicode="&#x2211;" horiz-adv-x="1171" 
d="M922 -141q123 0 180 6v-144q-147 8 -178 9h-885l549 837l-525 809h633q291 0 410 4l-55 -143l-328 6h-379l428 -670l-459 -714h609z" />
    <glyph glyph-name="minus" unicode="&#x2212;" horiz-adv-x="1075" 
d="M92 580h891v-129h-891v129z" />
    <glyph glyph-name="radical" unicode="&#x221a;" horiz-adv-x="1325" 
d="M88 686l318 117l313 -901l424 1771h149q-365 -1475 -479 -1945h-176l-338 895l-182 -68z" />
    <glyph glyph-name="infinity" unicode="&#x221e;" horiz-adv-x="1546" 
d="M1466 620q0 -134 -92 -232.5t-233 -98.5q-100 0 -183.5 54t-185.5 175q-104 -119 -188 -174t-185 -55q-139 0 -228 94t-89 232t92 233.5t234 95.5q102 0 189 -56.5t181 -172.5q61 72 105.5 113.5t116 78.5t147.5 37q137 0 228 -95t91 -229zM229 615q0 -85 52.5 -140
t128.5 -55t149.5 53t130.5 141q-16 16 -56 62.5t-64.5 69t-69 45t-106.5 22.5t-113.5 -56.5t-51.5 -141.5zM1134 420q76 0 127.5 56t51.5 141t-52.5 141.5t-126.5 55.5t-120.5 -38t-66.5 -55t-97 -105q90 -106 149 -151t135 -45z" />
    <glyph glyph-name="integral" unicode="&#x222b;" horiz-adv-x="692" 
d="M537 1575q63 0 122 -27l-16 -129q-47 20 -92 21q-92 0 -122 -86t-30 -281l15 -977q0 -262 -62.5 -383t-226.5 -121q-78 0 -131 27l14 133q48 -22 100 -22q104 1 126 93.5t22 264.5l-12 991q0 260 64.5 378t228.5 118z" />
    <glyph glyph-name="approxequal" unicode="&#x2248;" horiz-adv-x="1075" 
d="M739 786q98 0 166 111l96 -53q-31 -84 -103.5 -135.5t-164.5 -51.5q-92 -1 -221 65t-176 66q-100 0 -170 -108l-92 49q39 88 109.5 138.5t162.5 50.5t211 -66t182 -66zM739 424q98 0 166 111l96 -54q-31 -84 -103.5 -135t-164.5 -51q-92 -1 -221 65t-176 66
q-100 0 -170 -109l-92 50q39 88 109.5 138t162.5 50q92 1 211 -65t182 -66z" />
    <glyph glyph-name="notequal" unicode="&#x2260;" horiz-adv-x="1089" 
d="M92 276v132h328l123 219h-451v127h524l117 198h131l-114 -198h233v-127h-305l-125 -219h430v-132h-504l-117 -202h-131l115 202h-254z" />
    <glyph glyph-name="lessequal" unicode="&#x2264;" horiz-adv-x="1075" 
d="M958 225l-860 400v92q162 78 456 213t404 186v-145l-684 -299l684 -301v-146zM92 129h889v-129h-889v129z" />
    <glyph glyph-name="greaterequal" unicode="&#x2265;" horiz-adv-x="1075" 
d="M109 1122l860 -399v-92l-860 -400v146l682 299l-682 301v145zM975 0h-891v129h891v-129z" />
    <glyph glyph-name="lozenge" unicode="&#x25ca;" horiz-adv-x="1099" 
d="M506 -29l-406 676q82 135 406 676h88l405 -676q-82 -135 -405 -676h-88zM262 647l287 -495l287 497q-246 422 -285 490z" />
    <glyph glyph-name="uniF6BE" unicode="&#xf6be;" horiz-adv-x="471" 
d="M311 735v-850q0 -82 -2 -98q-16 -143 -99 -216t-214 -73h-127v125h127q166 0 166 268v844q0 147 -6 209h161q-6 -68 -6 -209z" />
    <glyph glyph-name="uniFB01" unicode="&#xfb01;" horiz-adv-x="1081" 
d="M936 709v-500q0 -147 6 -209h-170q6 68 6 209v602h-430v-606q0 -147 2 -205h-149q2 84 2 205v606h-148v129h148v158q0 178 76.5 281.5t226.5 103.5q66 0 164 -25l-19 -137q-47 29 -131 29t-128 -71t-44 -177v-162h594q-6 -73 -6 -231z" />
    <glyph glyph-name="uniFB02" unicode="&#xfb02;" horiz-adv-x="1103" 
d="M55 940h148v158q0 178 76.5 281.5t226.5 103.5q61 0 164 -25l-19 -137q-47 29 -131 29t-128 -70t-44 -178v-162h236l-21 -129h-215v-606q0 -147 2 -205h-149q2 84 2 205v606h-148v129zM975 1296v-1089q0 -164 4 -207h-156q4 86 4 207v1184h-90q5 9 47 86h197
q-6 -42 -6 -181z" />
    <glyph glyph-name="glyph557" horiz-adv-x="1275" 
d="M467 1391h207q178 -428 461 -1119q43 -102 125 -272h-193q-8 25 -168 418h-541q-147 -373 -161 -418h-179q27 57 142 334l387 950zM848 549l-219 577l-221 -577h440z" />
    <glyph glyph-name="glyph558" horiz-adv-x="1386" 
d="M1231 711v-652q-6 0 -27 -10q-172 -72 -387 -72q-315 0 -516 191.5t-201 503.5t200 517.5t531 205.5q190 0 365 -68v-166q-145 92 -356 92q-254 0 -412 -155.5t-158 -404.5t149.5 -413.5t405.5 -164.5q158 0 250 49v414h-231q-43 0 -133 -5l26 138h494z" />
    <glyph glyph-name="glyph559" horiz-adv-x="552" 
d="M383 1026v-680q0 -170 -94 -268t-260 -98q-80 0 -158 24v150q51 -35 148 -35t148.5 64.5t51.5 178.5v664q0 250 -4 350h170q-2 -182 -2 -350z" />
    <glyph glyph-name="glyph560" horiz-adv-x="1589" 
d="M795 -23q-297 0 -496 202t-199 505t200 507t495 204t494.5 -205t199.5 -504q0 -180 -79 -334.5t-214 -253.5l70 -73q80 -84 200 -189h-229l-162 199q-137 -58 -280 -58zM795 115q78 0 176 32q-135 135 -211 197h209l123 -135q106 76 165.5 201t59.5 276
q0 244 -148.5 406.5t-372.5 162.5t-375 -160.5t-151 -408.5t148 -409.5t377 -161.5z" />
    <glyph glyph-name="glyph561" horiz-adv-x="1929" 
d="M1266 -8l-308 1001l-319 -1001h-145q-78 231 -233 692t-234 692h184l348 -1108h23l346 1108h61l348 -1108h17l332 1108h178l-453 -1384h-145z" />
    <glyph glyph-name="glyph562" horiz-adv-x="622" 
d="M57 815v129h148v154q0 178 76.5 281.5t226.5 103.5q61 0 164 -25l-19 -137q-47 29 -131 29t-128 -71t-44 -177v-158h236l-21 -129h-215v-973q0 -178 -75.5 -281.5t-225.5 -103.5q-61 0 -164 25l19 137q47 -29 130 -29t126 70t43 178l2 977h-148z" />
    <glyph glyph-name="glyph563" horiz-adv-x="458" 
d="M309 711v-502q0 -147 6 -209h-168q6 68 7 209v647h-88q10 14 51 86h198q-6 -73 -6 -231zM135 1247q0 41 29 71t69.5 30t70.5 -30t30 -71t-30 -69.5t-70.5 -28.5t-69.5 28.5t-29 69.5z" />
    <glyph glyph-name="glyph564" horiz-adv-x="471" 
d="M-4 -377q166 0 166 268v965h-86q6 10 49 86h192q-6 -74 -6 -231v-897q0 -158 -89 -237t-226 -79h-123l59 125h64zM145 1247q0 41 29 71t70 30t70.5 -30t29.5 -71t-29.5 -69.5t-70.5 -28.5t-70 28.5t-29 69.5z" />
    <glyph glyph-name="glyph565" horiz-adv-x="690" 
d="M199 0v813h-156v129h156v70q0 111 -2 157q86 16 157 29q-2 -59 -2 -188v-68h273l-23 -129h-250v-813h-153z" />
    <glyph glyph-name="glyph566" horiz-adv-x="1402" 
d="M569 942l119 -309l113 309h168l-211 -491l86 -226l373 717h165q-37 -59 -71 -129l-430 -829h-82l-117 276l-115 -276h-82l-407 815q-37 74 -78 143h170q29 -74 51 -117l309 -600l78 207l-217 510h178z" />
    <glyph glyph-name="glyph567" horiz-adv-x="964" 
d="M948 942l-637 -1421l-147 2q55 102 143 287.5t103 224.5l-394 907h181l288 -743l291 743h172z" />
    <glyph glyph-name="glyph568" horiz-adv-x="1929" 
d="M655 250l211 538l-248 588h185l143 -385l152 385h176l-248 -581l219 -545l443 1126h178q-2 -6 -49.5 -109.5t-75.5 -174.5l-461 -1092h-78l-256 606l-256 -606h-78l-585 1376h186z" />
    <glyph glyph-name="glyph569" horiz-adv-x="1118" 
d="M297 628q0 -183 5.5 -289t58.5 -165t167 -59q115 0 207 60.5t109 146.5v385q0 160 -2 235h166q-4 -70 -4 -227v-520q0 -127 20 -195h-141l-31 125q-106 -141 -324 -141t-304.5 118.5t-86.5 245.5v508h-84l51 86h195q-2 -131 -2 -314z" />
    <glyph glyph-name="glyph570" horiz-adv-x="1153" 
d="M799 1239h-144v-885q0 -268 4 -354h-170q2 90 3 354v639q0 174 -3 246h-143q-217 0 -301 -4v141h762q236 0 313 2l-24 -143q-176 4 -297 4zM489 -252q0 61 -10 90q94 23 162 33q14 -29 14 -84q0 -154 -170 -293l-88 45q92 113 92 209z" />
    <glyph glyph-name="glyph571" horiz-adv-x="690" 
d="M451 -18q-252 0 -252 303v530h-156v129h156v70q0 109 -2 155l157 29q-2 -59 -2 -186v-68h273q-6 -43 -23 -129h-250v-496q0 -106 31 -157t97 -51t122 34q17 -86 27 -122q-72 -41 -178 -41zM285 -252q0 61 -11 90q94 23 162 33q14 -29 15 -84q0 -154 -170 -293l-88 45
q92 113 92 209z" />
    <glyph glyph-name="glyph572" horiz-adv-x="997" 
d="M614 -231q0 -216 -170 -396l-88 45q92 154 93 312q0 78 -11 131q18 4 162 33q14 -51 14 -125zM317 1063q0 -90 55.5 -151.5t170.5 -133.5q69 -35 135.5 -83t136.5 -118.5t70 -230.5t-120 -265.5t-308 -105.5t-351 74q4 16 15.5 76.5t21.5 97.5q117 -117 308 -117
q117 0 187.5 61.5t70.5 168.5q0 158 -239 293t-279.5 229t-40.5 170q0 168 111 268.5t275 100.5t293 -51v-175q-92 92 -274 93q-104 0 -171 -55.5t-67 -145.5z" />
    <glyph glyph-name="glyph573" horiz-adv-x="1101" 
d="M550 1376q210 0 332 -190.5t122 -508t-122 -506.5t-333 -189t-331 188t-120 510t121 509t331 187zM268 677q0 -263 73 -411.5t208 -148.5t210 150.5t75 410.5t-75 409.5t-210 149.5t-208 -148.5t-73 -411.5z" />
    <glyph glyph-name="glyph574" horiz-adv-x="960" 
d="M651 1376v-1165q0 -100 4 -211h-168q2 82 2 213v983q-211 -92 -290 -135l-29 131q188 82 389 184h92z" />
    <glyph glyph-name="glyph575" horiz-adv-x="1056" 
d="M123 0v115q279 242 450 463q88 115 126 193.5t38 196.5t-74.5 191.5t-205.5 73.5q-215 0 -307 -123v178q120 90 322 90t316.5 -106t114.5 -310t-196 -442q-139 -168 -351 -385h295q170 0 295 10v-145h-823z" />
    <glyph glyph-name="glyph576" horiz-adv-x="1079" 
d="M707 796q0 108 -67 172t-179 64q-160 0 -285 -94v158q152 74 295 73q184 0 292.5 -95t108.5 -255q0 -111 -65.5 -192.5t-181.5 -122.5q129 -31 207.5 -120t78.5 -210q0 -176 -127 -286.5t-340 -110.5q-150 0 -268 43v151q102 -59 248 -59t231.5 71.5t85.5 192.5
t-90 186.5t-233 65.5q-63 0 -99 -2v131h35l52 -2q141 0 221 66.5t80 174.5z" />
    <glyph glyph-name="glyph577" horiz-adv-x="1103" 
d="M666 211h-603v90q63 86 182.5 241.5t155.5 205.5l338 446h88v-858q109 0 220 4v-131q-49 2 -220 2v-225q0 -78 11 -170h-181q8 81 9 166v229zM670 922l-213 -295q-61 -87 -213 -291h422z" />
    <glyph glyph-name="glyph578" horiz-adv-x="1054" 
d="M418 -227q-152 0 -279 59v156q115 -78 261 -78t242.5 81t96.5 210t-88 208.5t-266 79.5q-129 0 -199 -28l23 192q45 381 51 506q135 -4 219 -4h205q82 0 197 4v-145q-123 4 -213 4h-273q-18 -147 -47 -414q43 12 103 12q213 0 337.5 -109.5t124.5 -296.5t-136 -312
t-359 -125z" />
    <glyph glyph-name="glyph579" horiz-adv-x="1087" 
d="M573 856q172 0 297 -127t125 -309t-131 -309t-324 -127q-194 0 -324 126t-130 320q0 152 81 288t299 394t224 270h187q-82 -78 -207 -229l-281 -340l6 -6q63 49 178 49zM539 727q-123 0 -209 -87t-86 -217t86 -219t210 -89t211 89t87 213t-88 217t-211 93z" />
    <glyph glyph-name="glyph580" horiz-adv-x="1019" 
d="M268 1034q-82 0 -159 -4q-2 12 -4.5 37t-4.5 37l-12 74q57 -2 225 -2h625l-610 -1360h-183q12 16 56 98l57 109l457 1011h-447z" />
    <glyph glyph-name="glyph581" horiz-adv-x="1101" 
d="M145 1020q0 154 115 254t287 100t284.5 -101.5t112.5 -244.5q0 -104 -60.5 -186t-164.5 -129q127 -47 197.5 -136.5t70.5 -207.5q0 -168 -124.5 -276.5t-320.5 -108.5t-316 104.5t-120 273.5q0 117 73 209.5t190 137.5q-104 47 -164 128t-60 183zM274 370
q0 -108 77 -180.5t195 -72.5t196.5 71.5t78.5 181.5t-84 180.5t-215 92.5q-104 -16 -176 -90.5t-72 -182.5zM311 1020q0 -96 70 -160.5t188 -85.5q94 18 151.5 85t57.5 160t-65.5 156.5t-168 63.5t-168 -61.5t-65.5 -157.5z" />
    <glyph glyph-name="glyph582" horiz-adv-x="1081" 
d="M504 342q-176 0 -299 128t-123 307t134 308t322 129t320.5 -130t132.5 -316q0 -150 -80 -285q-59 -106 -281 -371t-241 -296h-188q82 78 207 229l280 338l-6 6q-66 -47 -178 -47zM834 773q0 130 -87.5 219t-211.5 89t-209.5 -89t-85.5 -214t89 -216t211 -91t208 86
t86 216z" />
  </font>
</defs>
</svg>
